<svg width="78" height="80" viewBox="0 0 78 80" fill="none" xmlns="http://www.w3.org/2000/svg">
<path d="M25.1858 36.4301C18.2338 40.4939 13.6359 47.5359 13.6359 55.5438C13.6359 68.1288 24.9896 78.3309 38.9953 78.3309C53.001 78.3309 64.3548 68.1288 64.3548 55.5438C64.3548 47.5359 59.7569 40.4939 52.8048 36.4301" fill="#FFD0C6"/>
<path d="M60.8255 43.8287C60.8255 54.8209 65.9392 63.5988 65.9392 78.3318H11.8524C11.8524 63.5227 16.966 54.8308 16.966 43.8287C16.966 36.3063 15.6784 29.754 14.6625 26.4726C17.2351 28.8087 20.6532 30.2328 24.4031 30.2328C32.4065 30.2328 38.9818 23.7446 38.9818 15.7412C38.9818 23.7446 45.5549 30.2328 53.5604 30.2328C57.1962 30.2328 60.5191 28.8937 63.0647 26.6819C62.051 29.9613 60.8255 37.0932 60.8255 43.8287Z" fill="#FFD0C6"/>
<path d="M76.4538 6.67234C76.4538 15.2583 72.5567 28.4175 72.5567 36.8352C72.5567 43.5058 74.895 71.659 74.9737 78.3312H65.9385C65.9385 76.3632 65.8468 74.3935 65.6638 72.4339C65.2671 68.1617 64.4877 64.3711 63.6698 60.8167C64.1174 59.125 64.3551 57.3595 64.3551 55.5443C64.3551 51.3076 63.0679 47.341 60.8254 43.9441V43.8267C60.8254 37.1576 61.9895 30.3368 63.0639 26.6814C60.355 29.0097 57.0971 30.2324 53.559 30.2324C45.5549 30.2324 38.9815 23.7455 38.9815 15.7413C38.9815 23.7455 32.4065 30.2324 24.4025 30.2324C20.6535 30.2324 17.2349 28.8078 14.6605 26.4727C16.2166 31.7776 17.0212 38.3869 16.954 44.2713C14.8442 47.5957 13.6357 51.4435 13.6357 55.5443C13.6357 57.2252 13.841 58.8642 14.2254 60.4416C13.3642 64.1226 12.5322 68.0413 12.1202 72.5142C11.9424 74.4479 11.8516 76.3894 11.8516 78.3312H2.41023C2.81156 71.4105 5.26712 44.7591 5.26712 37.7658C5.26712 37.0019 5.23624 36.1838 5.1745 35.3241C4.75927 29.2864 3.03538 21.0554 2.1154 14.1193C1.60138 10.2222 1.14617 6.24631 2.11077 2.38623H75.9661C76.3149 3.78149 76.4785 5.23386 76.4538 6.67234V6.67234Z" fill="#FFDAD5"/>
<path d="M32.9093 34.4268C22.4929 34.4268 13.8537 44.7026 13.6401 55.1168C13.6371 55.2592 13.6357 55.4019 13.6357 55.5449C13.6357 68.1298 24.9895 78.3319 38.9952 78.3319C53.0009 78.3319 64.3547 68.1298 64.3547 55.5449C64.3547 55.4019 64.3533 55.2592 64.3503 55.1168C64.1367 44.7026 55.4975 34.4268 45.0811 34.4268H32.9093Z" fill="#FFDAD5"/>
<path d="M23.9824 23.326C26.0772 23.326 27.7753 21.6278 27.7753 19.5331C27.7753 17.4383 26.0772 15.7401 23.9824 15.7401C21.8876 15.7401 20.1895 17.4383 20.1895 19.5331C20.1895 21.6278 21.8876 23.326 23.9824 23.326Z" fill="#FFDAD5"/>
<path d="M53.5166 23.3258C55.6114 23.3258 57.3095 21.6276 57.3095 19.5328C57.3095 17.438 55.6114 15.7399 53.5166 15.7399C51.4218 15.7399 49.7236 17.438 49.7236 19.5328C49.7236 21.6276 51.4218 23.3258 53.5166 23.3258Z" fill="#FFDAD5"/>
<path d="M2.48531 0.889121C1.65871 0.681969 0.82022 1.18503 0.613377 2.01209C-0.387341 6.01527 0.00859328 9.95548 0.585438 14.3234C0.940621 16.9945 1.41929 19.8869 1.88207 22.6842C2.51695 26.5214 3.1736 30.4893 3.50115 33.8397C3.5791 34.6371 4.25073 35.2331 5.03565 35.2331C5.08581 35.2331 5.1366 35.2306 5.18769 35.2257C6.03621 35.1426 6.65674 34.3876 6.57369 33.5391C6.23611 30.0865 5.57097 26.0672 4.9279 22.1802C4.46899 19.4067 3.99449 16.5388 3.64594 13.9179C3.11139 9.87012 2.73954 6.23678 3.60859 2.76089C3.81527 1.93383 3.31237 1.09581 2.48531 0.889121V0.889121Z" fill="black"/>
<path d="M77.9976 6.68444C78.0237 5.10457 77.8443 3.53272 77.4643 2.01212C77.2574 1.18506 76.4191 0.682469 75.5925 0.888848C74.7656 1.09554 74.2625 1.93355 74.4694 2.76061C74.7849 4.02343 74.9334 5.33024 74.9106 6.64492C74.9104 6.65388 74.9104 6.66267 74.9104 6.67163C74.9104 10.8489 73.9248 16.3268 72.9718 21.6246C72.0091 26.9761 71.0134 32.5099 71.0134 36.8358C71.0134 40.3821 71.6577 49.8113 72.2809 58.9301C72.8532 67.3054 73.3938 75.216 73.431 78.3497C73.4409 79.1959 74.1301 79.8749 74.9741 79.8749H74.9927C75.845 79.8647 76.5279 79.1655 76.5179 78.3131C76.4798 75.0925 75.9363 67.1396 75.361 58.7197C74.7412 49.6526 74.1006 40.277 74.1006 36.836C74.1006 32.7856 75.0714 27.3896 76.0101 22.1714C76.9864 16.7455 77.9956 11.1349 77.9976 6.68444V6.68444Z" fill="black"/>
<path d="M2.32178 79.8726C2.35235 79.8743 2.3826 79.8753 2.4127 79.8753C3.22417 79.8753 3.90459 79.2418 3.95229 78.4212C4.08473 76.1396 4.44995 71.6536 4.87259 66.4592C5.37966 60.2291 5.95434 53.1678 6.33916 47.3656C6.39566 46.5149 5.75167 45.7797 4.90114 45.7232C4.05154 45.6665 3.31525 46.3107 3.25875 47.1612C2.87547 52.9403 2.30172 59.9893 1.79557 66.2087C1.37123 71.4222 1.00478 75.9247 0.870177 78.2421C0.820936 79.0931 1.47079 79.8231 2.32178 79.8726V79.8726Z" fill="black"/>
<path d="M18.16 0.964881C12.2105 3.48125 8.36633 9.28086 8.36633 15.7402C8.36633 20.2751 10.2591 24.376 13.2953 27.2956C14.5262 31.3988 15.1349 35.6714 15.3411 39.9441C15.403 41.2272 15.4305 42.5128 15.4223 43.7974C12.4002 48.7568 11.3572 54.7682 12.6395 60.4426C11.5642 65.0734 10.4497 70.5111 10.3208 77.0743C10.3127 77.489 10.3079 77.9077 10.3079 78.3314C10.3079 79.1839 10.9989 79.875 11.8515 79.875C12.6884 79.875 13.3951 79.1669 13.3951 78.3312C13.3951 74.4406 13.7703 70.936 14.2978 67.7582C14.4052 67.1176 14.5199 66.4894 14.6391 65.8702C18.9418 74.1374 28.2409 79.8747 38.9953 79.8747C48.7461 79.8747 58.5056 74.8856 63.2037 66.1516C63.8735 69.7041 64.3943 73.7182 64.3943 78.3311C64.3943 79.1682 65.1027 79.8748 65.9382 79.8748C66.7906 79.8748 67.4818 79.1838 67.4818 78.3312C67.4818 71.2967 66.3452 65.6382 65.2493 60.8736C66.7108 54.9616 65.6178 48.6241 62.3694 43.4788C62.3919 40.0054 62.7471 36.3364 63.2369 33.1946C63.6115 30.8262 64.0488 28.8477 64.4258 27.5222C67.6027 24.5901 69.5959 20.3938 69.5959 15.74C69.5959 9.2807 65.7517 3.4811 59.8024 0.964881C59.0178 0.632853 58.1115 0.999921 57.7795 1.78515C57.4475 2.57022 57.8147 3.47601 58.5998 3.80803C63.4044 5.84018 66.5087 10.5236 66.5087 15.7399C66.5087 22.7878 60.6045 28.6884 53.5596 28.6884C46.4966 28.6884 40.5249 22.8235 40.5249 15.7385C40.5252 13.2275 41.3192 10.7249 42.8216 8.50103C43.2989 7.79468 43.113 6.83518 42.4065 6.3579C41.7005 5.88093 40.7405 6.06647 40.2634 6.77298C39.7735 7.49816 39.3466 8.24958 38.9811 9.01984C38.6156 8.24974 38.1888 7.49831 37.6989 6.77298C37.2216 6.06647 36.2619 5.88093 35.5557 6.3579C34.8492 6.83518 34.6635 7.79468 35.1407 8.50103C36.643 10.7249 37.4372 13.2274 37.4375 15.7382C37.4375 15.739 37.4374 15.7397 37.4374 15.7405C37.4374 22.88 31.5899 28.6885 24.4023 28.6885C24.3583 28.6885 24.3146 28.6859 24.2708 28.6854C17.2771 28.6152 11.4534 22.7401 11.4534 15.7399C11.4534 10.5236 14.5579 5.84003 19.3625 3.80803C20.1475 3.47601 20.5149 2.57022 20.1827 1.78515C19.8509 1.00023 18.9452 0.632699 18.16 0.964881V0.964881ZM58.1964 68.0962V61.5945L59.6859 60.1049C60.2886 59.5021 60.2886 58.5247 59.6859 57.9219C59.0829 57.3192 58.1058 57.3192 57.5027 57.9219L55.5612 59.8636C55.2718 60.153 55.1091 60.5457 55.1091 60.9551V71.1717C53.7486 72.2888 52.2422 73.2664 50.6188 74.0795V71.7231C50.6188 71.3137 50.4561 70.921 50.1666 70.6316L48.1584 68.6237V65.7086L50.815 63.0522C51.1044 62.7628 51.2671 62.3701 51.2671 61.9608V56.6969C51.2671 55.8444 50.5759 55.1533 49.7235 55.1533C48.8711 55.1533 48.1799 55.8444 48.1799 56.6969V61.3214L45.5234 63.9778C45.2339 64.2672 45.0712 64.6599 45.0712 65.0693V69.2631C45.0712 69.6724 45.2339 70.0651 45.5234 70.3545L47.5316 72.3624V75.3754C45.045 76.2299 42.3591 76.7233 39.5544 76.7811V69.5299C39.5544 69.1206 39.3919 68.7279 39.1025 68.4385L35.8492 65.185V60.6445C35.8492 59.792 35.1581 59.1009 34.3056 59.1009C33.453 59.1009 32.762 59.792 32.762 60.6445V65.8245C32.762 66.2339 32.9247 66.6266 33.2141 66.916L36.4674 70.1695V76.6678C34.1506 76.4488 31.932 75.9322 29.8605 75.1618V69.4776C29.8605 69.0683 29.6978 68.6756 29.4083 68.3861L25.8312 64.8088V62.5952C25.8312 62.1858 25.6685 61.7931 25.3791 61.5037L22.1175 58.2422V55.7442C22.1175 54.8917 21.4264 54.2006 20.5739 54.2006C19.7213 54.2006 19.0303 54.8917 19.0303 55.7442V58.8816C19.0303 59.2909 19.193 59.6836 19.4824 59.9731L22.744 63.2345V65.4482C22.744 65.8576 22.9067 66.2503 23.1961 66.5397L26.7733 70.117V73.77C21.1919 70.7809 17.09 65.8111 15.6978 59.9579C14.4569 54.7251 15.6339 49.6308 18.2952 45.0324C20.1364 42.1507 22.7391 39.6484 25.9647 37.7629C26.7007 37.3327 26.9486 36.3872 26.5184 35.6512C26.0881 34.9152 25.1425 34.6673 24.4068 35.0975C22.1292 36.4289 20.1255 38.0355 18.4286 39.85C18.2643 36.3898 17.8524 33.1197 17.1937 30.0677C19.3416 31.1489 21.7293 31.7328 24.1328 31.7725C30.3827 31.8771 36.2906 28.2347 38.9811 22.5857C41.6173 28.1158 47.342 31.7393 53.465 31.7748C55.943 31.7888 58.4144 31.2236 60.6384 30.1295C60.0954 32.8826 59.6371 36.2557 59.4185 39.6964C57.7527 37.9445 55.7969 36.3914 53.5837 35.0975C52.8473 34.6672 51.9021 34.9151 51.4721 35.6512C51.0419 36.3872 51.2896 37.3327 52.0256 37.7629C55.1474 39.5877 57.6861 41.9902 59.5154 44.7552C62.4458 49.4803 63.6109 54.9412 62.1862 60.3863C61.4445 63.2145 60.0667 65.8261 58.1964 68.0962V68.0962Z" fill="black"/>
<path d="M38.9945 52.0863C38.142 52.0863 37.4509 52.7774 37.4509 53.6299V55.7433C37.4509 56.5958 38.142 57.2869 38.9945 57.2869C39.8469 57.2869 40.5381 56.5958 40.5381 55.7433V53.6299C40.5381 52.7774 39.8469 52.0863 38.9945 52.0863V52.0863Z" fill="black"/>
<path d="M23.9804 24.8695C26.9229 24.8695 29.3169 22.4756 29.3169 19.5328C29.3169 16.5903 26.9229 14.1963 23.9804 14.1963C21.0378 14.1963 18.6437 16.5903 18.6437 19.5328C18.6438 22.4756 21.0378 24.8695 23.9804 24.8695ZM23.9804 17.2835C25.2207 17.2835 26.2297 18.2926 26.2297 19.5328C26.2297 20.7733 25.2207 21.7823 23.9804 21.7823C22.7399 21.7823 21.7309 20.7733 21.7309 19.5328C21.731 18.2926 22.7401 17.2835 23.9804 17.2835Z" fill="black"/>
<path d="M58.8537 19.5352C58.8537 16.5926 56.4595 14.1986 53.517 14.1986C50.5744 14.1986 48.1804 16.5926 48.1804 19.5352C48.1804 22.4777 50.5744 24.8719 53.517 24.8719C56.4595 24.8719 58.8537 22.4777 58.8537 19.5352V19.5352ZM51.2676 19.5352C51.2676 18.2949 52.2767 17.2858 53.517 17.2858C54.7574 17.2858 55.7665 18.2949 55.7665 19.5352C55.7665 20.7756 54.7574 21.7846 53.517 21.7846C52.2767 21.7845 51.2676 20.7754 51.2676 19.5352V19.5352Z" fill="black"/>
<path d="M6.6648 39.9477C6.41536 39.3392 5.78171 38.9501 5.12614 38.9992C4.48261 39.0475 3.92599 39.5044 3.75356 40.1261C3.38341 41.462 4.90401 42.5783 6.06851 41.8394C6.69228 41.4438 6.94867 40.629 6.6648 39.9477V39.9477Z" fill="black"/>
</svg>
