<svg width="96" height="97" viewBox="0 0 96 97" fill="none" xmlns="http://www.w3.org/2000/svg">
<g clip-path="url(#clip0_1_13740)">
<path d="M36.3902 94.4842C55.4524 94.4842 70.9054 79.0313 70.9054 59.969C70.9054 40.9068 55.4524 25.4539 36.3902 25.4539C17.328 25.4539 1.875 40.9068 1.875 59.969C1.875 79.0313 17.328 94.4842 36.3902 94.4842Z" fill="#FFDAD5"/>
<path d="M61.9091 59.9695C61.9091 74.0612 50.4831 85.4854 36.3913 85.4856C22.3127 85.4858 10.8748 74.0479 10.875 59.9691C10.8752 45.8774 22.2994 34.4513 36.3911 34.4513H36.4404C39.0486 34.4562 41.3293 36.1598 42.1999 38.6181C44.7638 45.8579 50.5026 51.5967 57.7423 54.1605C60.2008 55.0311 61.9043 57.312 61.9091 59.92C61.9089 59.9367 61.9091 59.953 61.9091 59.9695Z" fill="url(#paint0_linear_1_13740)"/>
<path d="M40.7126 60.0986L71.4501 29.3612L65.9335 23.8444L40.7126 49.0652V60.0986Z" fill="white"/>
<path d="M26.5361 65.4385C29.8137 65.4385 32.4707 62.7815 32.4707 59.5039C32.4707 56.2263 29.8137 53.5693 26.5361 53.5693C23.2586 53.5693 20.6016 56.2263 20.6016 59.5039C20.6016 62.7815 23.2586 65.4385 26.5361 65.4385Z" fill="#FFD0C6"/>
<path d="M65.9355 23.8448L60.7014 18.6109L67.4295 11.8828L83.4437 27.897L76.6959 34.6446L65.9355 23.8448Z" fill="url(#paint1_linear_1_13740)"/>
<path d="M94.1248 2.23413V29.9129C91.2355 31.8929 87.2642 31.6229 84.6655 29.0898L83.443 27.8973L66.7048 11.1591C64.288 8.74226 63.868 5.08413 65.4467 2.23413H94.1248Z" fill="url(#paint2_linear_1_13740)"/>
<path d="M26.5361 51.694C22.2298 51.694 18.7266 55.1974 18.7266 59.5035C18.7266 63.8097 22.23 67.3131 26.5361 67.3131C30.8422 67.3131 34.3457 63.8097 34.3457 59.5035C34.3457 55.1974 30.8424 51.694 26.5361 51.694ZM26.5361 63.5633C24.2978 63.5633 22.4766 61.7421 22.4766 59.5037C22.4766 57.2653 24.2978 55.4442 26.5361 55.4442C28.7745 55.4442 30.5957 57.2653 30.5957 59.5037C30.5957 61.7421 28.7747 63.5633 26.5361 63.5633Z" fill="black"/>
<path d="M38.1195 73.0378C37.7321 72.0921 36.6129 71.6334 35.6707 72.0234C34.728 72.4136 34.2673 73.5283 34.6582 74.4703C35.0495 75.4133 36.1624 75.8779 37.107 75.4847C38.048 75.093 38.5127 73.9808 38.1195 73.0378Z" fill="black"/>
<path d="M47.9999 68.8246C49.6733 68.8246 50.5058 66.6891 49.2589 65.5609C48.6402 65.0011 47.7023 64.9236 46.9979 65.3673C46.3129 65.7985 45.9786 66.6535 46.1897 67.435C46.4084 68.2435 47.1606 68.8246 47.9999 68.8246Z" fill="black"/>
<path d="M93.0651 28.3662C90.8687 29.8716 87.8863 29.6112 85.975 27.7476L68.0307 9.83333C66.2689 8.07158 65.8806 5.3204 67.087 3.14278C67.5887 2.23697 67.2612 1.09585 66.3554 0.593912C65.4497 0.0925375 64.3084 0.419537 63.8065 1.32554C61.9332 4.70765 62.3658 8.91815 64.8055 11.854L59.3749 17.2846C58.6428 18.0168 58.6428 19.204 59.3749 19.9364L63.2832 23.8446L57.0882 30.0396C53.456 27.5189 49.4455 25.7041 45.1422 24.6407C44.1376 24.3929 43.1206 25.006 42.8722 26.0114C42.6237 27.0167 43.2374 28.0328 44.2426 28.2812C47.8792 29.1797 51.2834 30.6756 54.3901 32.7377L45.5774 41.5502C44.944 40.4153 44.4027 39.2258 43.966 37.9922C42.8212 34.7592 39.7979 32.5825 36.4391 32.5761H36.3897C21.2865 32.5761 8.99886 44.8644 8.99867 59.9689C8.99867 67.2787 11.8496 74.1554 17.0265 79.3323C22.2033 84.509 29.0801 87.3601 36.3899 87.3599C51.4943 87.3599 63.7827 75.0723 63.7827 59.9689V59.9162C63.7763 56.5611 61.5998 53.5378 58.3668 52.3927C56.6427 51.7822 55.0053 50.9674 53.4826 49.9817L62.7471 40.7171C66.8116 46.2782 69.0297 53.0383 69.0297 59.9689C69.0297 77.9666 54.3875 92.6088 36.3897 92.6088C18.392 92.6088 3.74999 77.9669 3.74999 59.969C3.74999 52.4709 6.22236 45.4213 10.8995 39.5822C15.4413 33.9124 21.8122 29.8731 28.8384 28.2085C29.846 27.9698 30.4694 26.9595 30.2306 25.9517C29.9919 24.9445 28.9824 24.3211 27.9738 24.5596C20.1378 26.4158 13.0348 30.9184 7.97267 37.2377C2.83143 43.6562 0 51.729 0 59.969C0 80.0345 16.3245 96.359 36.3899 96.359C56.4556 96.359 72.7799 80.0345 72.7799 59.969C72.7799 52.0474 70.1792 44.3261 65.4267 38.0382L71.4392 32.0256L75.3672 35.9678C75.7185 36.3205 76.1959 36.5188 76.6937 36.5192H76.6954C77.1927 36.5192 77.6695 36.3216 78.0212 35.97L83.4617 30.5295C85.2488 32.2189 87.5721 33.0883 89.9091 33.0883C91.7453 33.0883 93.5891 32.5527 95.1848 31.4594C96.039 30.874 96.2571 29.707 95.6717 28.8529C95.0863 27.9987 93.9189 27.7806 93.0651 28.3662ZM46.8905 49.4685C47.1907 49.7689 47.4998 50.0602 47.8141 50.3464L42.5892 55.5712V49.842L45.029 47.4023C45.6149 48.1219 46.2352 48.8132 46.8905 49.4685ZM57.1152 55.928C58.8571 56.5449 60.0297 58.1507 60.0331 59.9199V59.9692C60.0331 73.005 49.4272 83.6103 36.3903 83.6103C30.0821 83.6103 24.147 81.1496 19.6785 76.6809C15.21 72.2124 12.749 66.2773 12.749 59.969C12.7492 46.9324 23.3546 36.3263 36.3901 36.3263H36.4359C38.209 36.3297 39.8148 37.5021 40.4315 39.2441C41.0529 40.999 41.8632 42.6936 42.835 44.2933L39.3886 47.7398C39.0397 48.0889 38.839 48.5726 38.839 49.0661V60.0986C38.839 60.8098 39.2407 61.4552 39.8684 61.7722C40.579 62.133 41.4768 61.9884 42.0402 61.4248L50.7749 52.6903C52.7418 54.0396 54.88 55.1364 57.1152 55.928ZM61.6026 36.5588C61.5996 36.5618 61.5964 36.564 61.5934 36.567L50.4785 47.6822C49.4727 46.7775 48.5446 45.7879 47.7044 44.7272L58.6088 33.8228C58.6094 33.8222 58.6098 33.8217 58.6105 33.8209L65.9326 26.4989L68.7925 29.3691L61.6026 36.5588ZM76.6978 31.9904L63.3526 18.6108L67.4286 14.5347L80.7912 27.8972L76.6978 31.9904Z" fill="black"/>
<path d="M38.2921 24.4149C37.3696 23.0052 35.1299 23.5319 34.8804 25.1804C34.6242 26.8722 36.6914 27.9824 37.9694 26.8647C38.6686 26.2533 38.8062 25.1866 38.2921 24.4149Z" fill="black"/>
</g>
<defs>
<linearGradient id="paint0_linear_1_13740" x1="10.875" y1="34.4513" x2="61.9093" y2="85.4854" gradientUnits="userSpaceOnUse">
<stop stop-color="#4EBEFF"/>
<stop offset="1" stop-color="#0679BB"/>
</linearGradient>
<linearGradient id="paint1_linear_1_13740" x1="60.7014" y1="11.8828" x2="83.4632" y2="34.6251" gradientUnits="userSpaceOnUse">
<stop stop-color="#4EBEFF"/>
<stop offset="1" stop-color="#0679BB"/>
</linearGradient>
<linearGradient id="paint2_linear_1_13740" x1="64.5114" y1="2.23413" x2="93.4891" y2="31.8408" gradientUnits="userSpaceOnUse">
<stop stop-color="#4EBEFF"/>
<stop offset="1" stop-color="#0679BB"/>
</linearGradient>
<clipPath id="clip0_1_13740">
<rect width="96" height="96" fill="white" transform="translate(0 0.358887)"/>
</clipPath>
</defs>
</svg>
