<svg width="41" height="41" viewBox="0 0 41 41" fill="none" xmlns="http://www.w3.org/2000/svg">
<path d="M22.0413 16.6452H25.1602L24.7961 20.0918H22.0413V30.0918H17.9029V20.0918H15.8398V16.6452H17.9029V14.57C17.9029 13.0975 18.2508 11.985 18.9466 11.2326C19.6424 10.4721 20.7872 10.0918 22.3811 10.0918H25.1359V13.5384H23.4126C23.0971 13.5384 22.8422 13.5667 22.6481 13.6233C22.462 13.6719 22.3244 13.7649 22.2354 13.9025C22.1545 14.04 22.1019 14.1816 22.0777 14.3272C22.0534 14.4648 22.0413 14.663 22.0413 14.9219V16.6452Z" fill="white"/>
<rect x="1" y="0.591797" width="39" height="39" rx="19.5" stroke="white"/>
</svg>
