<svg width="1408" height="40" viewBox="0 0 1408 40" fill="none" xmlns="http://www.w3.org/2000/svg">
<path d="M0 0H1408V16C1408 29.2548 1397.25 40 1384 40H24C10.7451 40 0 29.2548 0 16V0Z" fill="url(#paint0_linear_1_13528)"/>
<path fill-rule="evenodd" clip-rule="evenodd" d="M487.965 24.6102L486.792 23.4372C486.206 22.8512 485.256 22.8512 484.671 23.4372L483.749 24.3592C483.543 24.5652 483.231 24.6342 482.965 24.5172C481.629 23.9322 480.309 23.0452 479.132 21.8682C477.96 20.6962 477.076 19.3822 476.49 18.0512C476.368 17.7762 476.439 17.4532 476.652 17.2402L477.478 16.4142C478.149 15.7432 478.149 14.7942 477.563 14.2082L476.39 13.0352C475.609 12.2542 474.343 12.2542 473.562 13.0352L472.91 13.6862C472.169 14.4272 471.86 15.4962 472.06 16.5562C472.554 19.1692 474.072 22.0302 476.521 24.4792C478.97 26.9282 481.831 28.4462 484.444 28.9402C485.504 29.1402 486.573 28.8312 487.314 28.0902L487.965 27.4392C488.746 26.6582 488.746 25.3922 487.965 24.6102V24.6102Z" stroke="white" stroke-width="1.5" stroke-linecap="round" stroke-linejoin="round"/>
<path d="M482 14.9911C483.031 14.9771 484.067 15.3591 484.854 16.1461" stroke="white" stroke-width="1.5" stroke-linecap="round" stroke-linejoin="round"/>
<path d="M487.682 13.3181C486.113 11.7491 484.056 10.9641 482 10.9641" stroke="white" stroke-width="1.5" stroke-linecap="round" stroke-linejoin="round"/>
<path d="M486.009 19C486.023 17.969 485.641 16.933 484.854 16.146" stroke="white" stroke-width="1.5" stroke-linecap="round" stroke-linejoin="round"/>
<path d="M487.682 13.3181C489.251 14.8871 490.036 16.9441 490.036 19.0001" stroke="white" stroke-width="1.5" stroke-linecap="round" stroke-linejoin="round"/>
<path d="M504.554 19.1553V20.6318H499.317V19.1553H504.554ZM499.83 15.0469V25H497.95V15.0469H499.83ZM505.948 15.0469V25H504.068V15.0469H505.948ZM507.404 21.377V21.2334C507.404 20.6911 507.482 20.1921 507.637 19.7363C507.792 19.276 508.017 18.8773 508.313 18.54C508.61 18.2028 508.972 17.9408 509.4 17.7539C509.829 17.5625 510.316 17.4668 510.863 17.4668C511.419 17.4668 511.911 17.5625 512.34 17.7539C512.773 17.9408 513.137 18.2028 513.434 18.54C513.73 18.8773 513.955 19.276 514.11 19.7363C514.265 20.1921 514.343 20.6911 514.343 21.2334V21.377C514.343 21.9147 514.265 22.4137 514.11 22.874C513.955 23.3298 513.73 23.7285 513.434 24.0703C513.137 24.4076 512.775 24.6696 512.347 24.8564C511.918 25.0433 511.428 25.1367 510.877 25.1367C510.33 25.1367 509.84 25.0433 509.407 24.8564C508.974 24.6696 508.61 24.4076 508.313 24.0703C508.017 23.7285 507.792 23.3298 507.637 22.874C507.482 22.4137 507.404 21.9147 507.404 21.377ZM509.209 21.2334V21.377C509.209 21.7005 509.241 22.0036 509.305 22.2861C509.368 22.5687 509.466 22.8171 509.599 23.0312C509.731 23.2454 509.902 23.4141 510.111 23.5371C510.326 23.6556 510.581 23.7148 510.877 23.7148C511.169 23.7148 511.419 23.6556 511.629 23.5371C511.839 23.4141 512.009 23.2454 512.142 23.0312C512.278 22.8171 512.379 22.5687 512.442 22.2861C512.506 22.0036 512.538 21.7005 512.538 21.377V21.2334C512.538 20.9144 512.506 20.6159 512.442 20.3379C512.379 20.0553 512.278 19.807 512.142 19.5928C512.009 19.374 511.836 19.2031 511.622 19.0801C511.412 18.9525 511.16 18.8887 510.863 18.8887C510.572 18.8887 510.321 18.9525 510.111 19.0801C509.902 19.2031 509.731 19.374 509.599 19.5928C509.466 19.807 509.368 20.0553 509.305 20.3379C509.241 20.6159 509.209 20.9144 509.209 21.2334ZM519.155 17.6035V18.9023H514.917V17.6035H519.155ZM516.052 15.7852H517.863V22.8672C517.863 23.0859 517.893 23.2546 517.952 23.373C518.011 23.4915 518.1 23.5713 518.219 23.6123C518.337 23.6533 518.479 23.6738 518.643 23.6738C518.761 23.6738 518.87 23.667 518.971 23.6533C519.071 23.6396 519.155 23.626 519.224 23.6123L519.23 24.9658C519.08 25.016 518.909 25.057 518.718 25.0889C518.531 25.1208 518.319 25.1367 518.082 25.1367C517.676 25.1367 517.321 25.0684 517.016 24.9316C516.71 24.7904 516.473 24.5648 516.305 24.2549C516.136 23.9404 516.052 23.5257 516.052 23.0107V15.7852ZM522.272 14.5V25H520.461V14.5H522.272ZM525.909 17.6035V25H524.098V17.6035H525.909ZM523.975 15.6689C523.975 15.4001 524.066 15.1768 524.248 14.999C524.435 14.8213 524.686 14.7324 525 14.7324C525.314 14.7324 525.563 14.8213 525.745 14.999C525.932 15.1768 526.025 15.4001 526.025 15.6689C526.025 15.9333 525.932 16.1543 525.745 16.332C525.563 16.5098 525.314 16.5986 525 16.5986C524.686 16.5986 524.435 16.5098 524.248 16.332C524.066 16.1543 523.975 15.9333 523.975 15.6689ZM529.402 19.1826V25H527.598V17.6035H529.293L529.402 19.1826ZM529.115 21.0352H528.582C528.587 20.4974 528.66 20.0098 528.801 19.5723C528.942 19.1348 529.14 18.7588 529.396 18.4443C529.655 18.1299 529.963 17.8883 530.318 17.7197C530.674 17.5511 531.07 17.4668 531.508 17.4668C531.863 17.4668 532.185 17.5169 532.472 17.6172C532.759 17.7174 533.005 17.877 533.21 18.0957C533.42 18.3145 533.579 18.6016 533.688 18.957C533.802 19.3079 533.859 19.7409 533.859 20.2559V25H532.041V20.2422C532.041 19.9049 531.991 19.6383 531.891 19.4424C531.795 19.2464 531.654 19.1074 531.467 19.0254C531.285 18.9434 531.059 18.9023 530.79 18.9023C530.512 18.9023 530.268 18.9593 530.059 19.0732C529.854 19.1826 529.68 19.3353 529.539 19.5312C529.402 19.7272 529.298 19.9528 529.225 20.208C529.152 20.4632 529.115 20.7389 529.115 21.0352ZM538.774 25.1367C538.214 25.1367 537.71 25.0456 537.264 24.8633C536.817 24.681 536.437 24.4281 536.122 24.1045C535.812 23.7764 535.573 23.3958 535.404 22.9629C535.24 22.5254 535.158 22.056 535.158 21.5547V21.2812C535.158 20.7116 535.24 20.1943 535.404 19.7295C535.568 19.2601 535.801 18.8568 536.102 18.5195C536.402 18.1823 536.762 17.9225 537.182 17.7402C537.601 17.5579 538.063 17.4668 538.569 17.4668C539.093 17.4668 539.556 17.5557 539.957 17.7334C540.358 17.9066 540.693 18.1527 540.962 18.4717C541.231 18.7907 541.434 19.1735 541.57 19.6201C541.707 20.0622 541.775 20.5521 541.775 21.0898V21.8486H535.979V20.6045H539.998V20.4678C539.989 20.1807 539.934 19.9186 539.834 19.6816C539.734 19.4401 539.579 19.2487 539.369 19.1074C539.16 18.9616 538.888 18.8887 538.556 18.8887C538.287 18.8887 538.052 18.9479 537.852 19.0664C537.656 19.1803 537.492 19.3444 537.359 19.5586C537.232 19.7682 537.136 20.0189 537.072 20.3105C537.008 20.6022 536.977 20.9258 536.977 21.2812V21.5547C536.977 21.8646 537.018 22.1517 537.1 22.416C537.186 22.6803 537.312 22.9105 537.476 23.1064C537.644 23.2979 537.845 23.4482 538.077 23.5576C538.314 23.6624 538.583 23.7148 538.884 23.7148C539.262 23.7148 539.604 23.6419 539.909 23.4961C540.219 23.3457 540.488 23.1247 540.716 22.833L541.625 23.7764C541.47 24.0042 541.26 24.223 540.996 24.4326C540.736 24.6423 540.422 24.8132 540.053 24.9453C539.684 25.0729 539.257 25.1367 538.774 25.1367ZM543.026 24.1182C543.026 23.8447 543.12 23.6146 543.307 23.4277C543.493 23.2409 543.746 23.1475 544.065 23.1475C544.384 23.1475 544.637 23.2409 544.824 23.4277C545.011 23.6146 545.104 23.8447 545.104 24.1182C545.104 24.387 545.011 24.6149 544.824 24.8018C544.637 24.984 544.384 25.0752 544.065 25.0752C543.746 25.0752 543.493 24.984 543.307 24.8018C543.12 24.6149 543.026 24.387 543.026 24.1182ZM543.033 18.3828C543.033 18.1094 543.127 17.8792 543.313 17.6924C543.5 17.5055 543.753 17.4121 544.072 17.4121C544.391 17.4121 544.644 17.5055 544.831 17.6924C545.018 17.8792 545.111 18.1094 545.111 18.3828C545.111 18.6517 545.018 18.8796 544.831 19.0664C544.644 19.2487 544.391 19.3398 544.072 19.3398C543.753 19.3398 543.5 19.2487 543.313 19.0664C543.127 18.8796 543.033 18.6517 543.033 18.3828ZM554.839 15.0195V25H553.027V17.1318L550.628 17.9248V16.4619L554.634 15.0195H554.839ZM559.549 23.5986H559.679C560.267 23.5986 560.763 23.5234 561.169 23.373C561.579 23.2227 561.91 23.0107 562.16 22.7373C562.415 22.4593 562.6 22.1289 562.714 21.7461C562.832 21.3587 562.892 20.9303 562.892 20.4609V18.6562C562.892 18.2734 562.853 17.9385 562.775 17.6514C562.698 17.3597 562.589 17.1159 562.447 16.9199C562.311 16.724 562.149 16.5781 561.962 16.4824C561.775 16.3822 561.575 16.332 561.36 16.332C561.123 16.332 560.914 16.3867 560.731 16.4961C560.549 16.6055 560.394 16.7559 560.267 16.9473C560.144 17.1341 560.048 17.3506 559.979 17.5967C559.916 17.8428 559.884 18.1025 559.884 18.376C559.884 18.6403 559.913 18.8932 559.973 19.1348C560.036 19.3763 560.13 19.5905 560.253 19.7773C560.381 19.9642 560.54 20.1123 560.731 20.2217C560.923 20.3265 561.146 20.3789 561.401 20.3789C561.643 20.3789 561.862 20.3333 562.058 20.2422C562.258 20.1465 562.431 20.0212 562.577 19.8662C562.723 19.7067 562.835 19.5312 562.912 19.3398C562.994 19.1439 563.04 18.9456 563.049 18.7451L563.685 19.0186C563.685 19.3512 563.614 19.6794 563.473 20.0029C563.336 20.3265 563.142 20.6204 562.892 20.8848C562.646 21.1445 562.358 21.3542 562.03 21.5137C561.702 21.6686 561.349 21.7461 560.971 21.7461C560.501 21.7461 560.087 21.6595 559.727 21.4863C559.367 21.3132 559.063 21.0739 558.817 20.7686C558.576 20.4587 558.394 20.1032 558.271 19.7021C558.147 19.2965 558.086 18.8636 558.086 18.4033C558.086 17.9248 558.161 17.4759 558.312 17.0566C558.462 16.6328 558.678 16.2614 558.961 15.9424C559.248 15.6188 559.594 15.3659 560 15.1836C560.406 14.9967 560.861 14.9033 561.367 14.9033C561.891 14.9033 562.358 15.0059 562.769 15.2109C563.179 15.416 563.527 15.7008 563.814 16.0654C564.102 16.4255 564.32 16.8516 564.471 17.3438C564.626 17.8359 564.703 18.3737 564.703 18.957V19.5928C564.703 20.208 564.642 20.7913 564.519 21.3428C564.396 21.8942 564.206 22.3978 563.951 22.8535C563.696 23.3092 563.37 23.7035 562.974 24.0361C562.582 24.3688 562.112 24.6263 561.565 24.8086C561.023 24.9863 560.403 25.0752 559.706 25.0752H559.549V23.5986ZM572.776 19.1689V20.8438C572.776 21.6094 572.699 22.2633 572.544 22.8057C572.389 23.348 572.166 23.7923 571.874 24.1387C571.582 24.4805 571.234 24.7334 570.828 24.8975C570.423 25.057 569.971 25.1367 569.475 25.1367C569.078 25.1367 568.709 25.0866 568.367 24.9863C568.025 24.8815 567.718 24.722 567.444 24.5078C567.175 24.2891 566.943 24.0111 566.747 23.6738C566.556 23.3366 566.408 22.9333 566.303 22.4639C566.202 21.9945 566.152 21.4544 566.152 20.8438V19.1689C566.152 18.4033 566.23 17.7516 566.385 17.2139C566.544 16.6761 566.77 16.2363 567.062 15.8945C567.353 15.5527 567.702 15.3044 568.107 15.1494C568.513 14.9899 568.964 14.9102 569.461 14.9102C569.862 14.9102 570.231 14.9603 570.568 15.0605C570.91 15.1608 571.215 15.318 571.484 15.5322C571.758 15.7419 571.99 16.0153 572.182 16.3525C572.373 16.6852 572.519 17.0863 572.619 17.5557C572.724 18.0205 572.776 18.5583 572.776 19.1689ZM570.972 21.0898V18.916C570.972 18.5332 570.949 18.2005 570.903 17.918C570.862 17.6309 570.801 17.387 570.719 17.1865C570.637 16.986 570.534 16.8242 570.411 16.7012C570.288 16.5736 570.147 16.4801 569.987 16.4209C569.828 16.3617 569.652 16.332 569.461 16.332C569.224 16.332 569.012 16.3799 568.825 16.4756C568.638 16.5667 568.481 16.7126 568.354 16.9131C568.226 17.1136 568.128 17.3802 568.06 17.7129C567.996 18.041 567.964 18.4421 567.964 18.916V21.0898C567.964 21.4727 567.984 21.8076 568.025 22.0947C568.071 22.3818 568.135 22.6279 568.217 22.833C568.303 23.0381 568.406 23.2067 568.524 23.3389C568.647 23.4665 568.789 23.5622 568.948 23.626C569.108 23.6852 569.283 23.7148 569.475 23.7148C569.716 23.7148 569.928 23.667 570.11 23.5713C570.297 23.4756 570.454 23.3252 570.582 23.1201C570.71 22.9105 570.805 22.6393 570.869 22.3066C570.938 21.9694 570.972 21.5638 570.972 21.0898ZM580.774 19.1689V20.8438C580.774 21.6094 580.697 22.2633 580.542 22.8057C580.387 23.348 580.164 23.7923 579.872 24.1387C579.58 24.4805 579.232 24.7334 578.826 24.8975C578.421 25.057 577.969 25.1367 577.473 25.1367C577.076 25.1367 576.707 25.0866 576.365 24.9863C576.023 24.8815 575.716 24.722 575.442 24.5078C575.174 24.2891 574.941 24.0111 574.745 23.6738C574.554 23.3366 574.406 22.9333 574.301 22.4639C574.201 21.9945 574.15 21.4544 574.15 20.8438V19.1689C574.15 18.4033 574.228 17.7516 574.383 17.2139C574.542 16.6761 574.768 16.2363 575.06 15.8945C575.351 15.5527 575.7 15.3044 576.105 15.1494C576.511 14.9899 576.962 14.9102 577.459 14.9102C577.86 14.9102 578.229 14.9603 578.566 15.0605C578.908 15.1608 579.214 15.318 579.482 15.5322C579.756 15.7419 579.988 16.0153 580.18 16.3525C580.371 16.6852 580.517 17.0863 580.617 17.5557C580.722 18.0205 580.774 18.5583 580.774 19.1689ZM578.97 21.0898V18.916C578.97 18.5332 578.947 18.2005 578.901 17.918C578.86 17.6309 578.799 17.387 578.717 17.1865C578.635 16.986 578.532 16.8242 578.409 16.7012C578.286 16.5736 578.145 16.4801 577.985 16.4209C577.826 16.3617 577.65 16.332 577.459 16.332C577.222 16.332 577.01 16.3799 576.823 16.4756C576.636 16.5667 576.479 16.7126 576.352 16.9131C576.224 17.1136 576.126 17.3802 576.058 17.7129C575.994 18.041 575.962 18.4421 575.962 18.916V21.0898C575.962 21.4727 575.982 21.8076 576.023 22.0947C576.069 22.3818 576.133 22.6279 576.215 22.833C576.301 23.0381 576.404 23.2067 576.522 23.3389C576.646 23.4665 576.787 23.5622 576.946 23.626C577.106 23.6852 577.281 23.7148 577.473 23.7148C577.714 23.7148 577.926 23.667 578.108 23.5713C578.295 23.4756 578.452 23.3252 578.58 23.1201C578.708 22.9105 578.803 22.6393 578.867 22.3066C578.936 21.9694 578.97 21.5638 578.97 21.0898ZM590.317 15.0195V25H588.506V17.1318L586.106 17.9248V16.4619L590.112 15.0195H590.317ZM600.271 22.2793C600.271 22.8991 600.125 23.4232 599.833 23.8516C599.546 24.2754 599.152 24.5967 598.65 24.8154C598.154 25.0296 597.589 25.1367 596.955 25.1367C596.326 25.1367 595.759 25.0296 595.253 24.8154C594.752 24.5967 594.353 24.2754 594.057 23.8516C593.765 23.4232 593.619 22.8991 593.619 22.2793C593.619 21.8646 593.701 21.4886 593.865 21.1514C594.034 20.8141 594.266 20.5247 594.562 20.2832C594.859 20.0371 595.21 19.8503 595.615 19.7227C596.021 19.5905 596.463 19.5244 596.941 19.5244C597.579 19.5244 598.149 19.6406 598.65 19.873C599.156 20.1009 599.553 20.4222 599.84 20.8369C600.127 21.2471 600.271 21.7279 600.271 22.2793ZM598.452 22.1699C598.452 21.8509 598.388 21.5752 598.261 21.3428C598.138 21.1058 597.962 20.9235 597.734 20.7959C597.507 20.6683 597.242 20.6045 596.941 20.6045C596.636 20.6045 596.369 20.6683 596.142 20.7959C595.918 20.9235 595.743 21.1058 595.615 21.3428C595.492 21.5752 595.431 21.8509 595.431 22.1699C595.431 22.4935 595.492 22.7715 595.615 23.0039C595.743 23.2318 595.921 23.4072 596.148 23.5303C596.376 23.6533 596.645 23.7148 596.955 23.7148C597.265 23.7148 597.532 23.6533 597.755 23.5303C597.978 23.4072 598.149 23.2318 598.268 23.0039C598.391 22.7715 598.452 22.4935 598.452 22.1699ZM600.052 17.6719C600.052 18.1732 599.92 18.6198 599.655 19.0117C599.391 19.3991 599.024 19.7021 598.555 19.9209C598.09 20.1396 597.557 20.249 596.955 20.249C596.354 20.249 595.816 20.1396 595.342 19.9209C594.872 19.7021 594.503 19.3991 594.234 19.0117C593.97 18.6198 593.838 18.1732 593.838 17.6719C593.838 17.0794 593.972 16.5781 594.241 16.168C594.51 15.7533 594.877 15.4388 595.342 15.2246C595.811 15.0104 596.344 14.9033 596.941 14.9033C597.548 14.9033 598.085 15.0104 598.555 15.2246C599.024 15.4388 599.391 15.7533 599.655 16.168C599.92 16.5781 600.052 17.0794 600.052 17.6719ZM598.247 17.7471C598.247 17.4645 598.195 17.2184 598.09 17.0088C597.985 16.7946 597.835 16.6283 597.639 16.5098C597.447 16.3913 597.215 16.332 596.941 16.332C596.677 16.332 596.449 16.389 596.258 16.5029C596.066 16.6169 595.918 16.7809 595.813 16.9951C595.709 17.2048 595.656 17.4554 595.656 17.7471C595.656 18.0342 595.709 18.2848 595.813 18.499C595.918 18.7132 596.066 18.8818 596.258 19.0049C596.454 19.1234 596.686 19.1826 596.955 19.1826C597.224 19.1826 597.454 19.1234 597.646 19.0049C597.837 18.8818 597.985 18.7132 598.09 18.499C598.195 18.2848 598.247 18.0342 598.247 17.7471ZM608.255 19.1689V20.8438C608.255 21.6094 608.177 22.2633 608.022 22.8057C607.868 23.348 607.644 23.7923 607.353 24.1387C607.061 24.4805 606.712 24.7334 606.307 24.8975C605.901 25.057 605.45 25.1367 604.953 25.1367C604.557 25.1367 604.188 25.0866 603.846 24.9863C603.504 24.8815 603.196 24.722 602.923 24.5078C602.654 24.2891 602.422 24.0111 602.226 23.6738C602.034 23.3366 601.886 22.9333 601.781 22.4639C601.681 21.9945 601.631 21.4544 601.631 20.8438V19.1689C601.631 18.4033 601.708 17.7516 601.863 17.2139C602.023 16.6761 602.248 16.2363 602.54 15.8945C602.832 15.5527 603.18 15.3044 603.586 15.1494C603.992 14.9899 604.443 14.9102 604.939 14.9102C605.34 14.9102 605.71 14.9603 606.047 15.0605C606.389 15.1608 606.694 15.318 606.963 15.5322C607.236 15.7419 607.469 16.0153 607.66 16.3525C607.852 16.6852 607.997 17.0863 608.098 17.5557C608.202 18.0205 608.255 18.5583 608.255 19.1689ZM606.45 21.0898V18.916C606.45 18.5332 606.427 18.2005 606.382 17.918C606.341 17.6309 606.279 17.387 606.197 17.1865C606.115 16.986 606.013 16.8242 605.89 16.7012C605.767 16.5736 605.625 16.4801 605.466 16.4209C605.306 16.3617 605.131 16.332 604.939 16.332C604.702 16.332 604.491 16.3799 604.304 16.4756C604.117 16.5667 603.96 16.7126 603.832 16.9131C603.704 17.1136 603.606 17.3802 603.538 17.7129C603.474 18.041 603.442 18.4421 603.442 18.916V21.0898C603.442 21.4727 603.463 21.8076 603.504 22.0947C603.549 22.3818 603.613 22.6279 603.695 22.833C603.782 23.0381 603.884 23.2067 604.003 23.3389C604.126 23.4665 604.267 23.5622 604.427 23.626C604.586 23.6852 604.762 23.7148 604.953 23.7148C605.195 23.7148 605.407 23.667 605.589 23.5713C605.776 23.4756 605.933 23.3252 606.061 23.1201C606.188 22.9105 606.284 22.6393 606.348 22.3066C606.416 21.9694 606.45 21.5638 606.45 21.0898ZM614.688 14.9648H614.934V16.4209H614.817C614.266 16.4209 613.781 16.5052 613.361 16.6738C612.947 16.8424 612.6 17.0794 612.322 17.3848C612.049 17.6855 611.841 18.0433 611.7 18.458C611.559 18.8682 611.488 19.3171 611.488 19.8047V21.418C611.488 21.7962 611.527 22.1289 611.604 22.416C611.687 22.6986 611.798 22.9378 611.939 23.1338C612.085 23.3252 612.254 23.4688 612.445 23.5645C612.641 23.6602 612.855 23.708 613.088 23.708C613.32 23.708 613.53 23.6602 613.717 23.5645C613.904 23.4688 614.063 23.3343 614.195 23.1611C614.332 22.9834 614.435 22.776 614.503 22.5391C614.576 22.3021 614.612 22.0423 614.612 21.7598C614.612 21.4818 614.578 21.2243 614.51 20.9873C614.441 20.7503 614.341 20.543 614.209 20.3652C614.077 20.1829 613.913 20.0439 613.717 19.9482C613.525 19.848 613.307 19.7979 613.061 19.7979C612.742 19.7979 612.457 19.873 612.206 20.0234C611.955 20.1693 611.757 20.3607 611.611 20.5977C611.465 20.8346 611.386 21.0853 611.372 21.3496L610.764 21.0488C610.786 20.6615 610.868 20.306 611.01 19.9824C611.156 19.6589 611.349 19.3763 611.591 19.1348C611.837 18.8932 612.126 18.7064 612.459 18.5742C612.796 18.4421 613.17 18.376 613.58 18.376C614.054 18.376 614.469 18.4671 614.824 18.6494C615.18 18.8271 615.474 19.071 615.706 19.3809C615.943 19.6908 616.121 20.0485 616.239 20.4541C616.358 20.8551 616.417 21.279 616.417 21.7256C616.417 22.2041 616.34 22.6507 616.185 23.0654C616.034 23.4801 615.815 23.8424 615.528 24.1523C615.241 24.4622 614.895 24.7038 614.489 24.877C614.084 25.0501 613.628 25.1367 613.122 25.1367C612.589 25.1367 612.11 25.0365 611.687 24.8359C611.267 24.6354 610.907 24.3574 610.606 24.002C610.306 23.6465 610.076 23.2318 609.916 22.7578C609.757 22.2839 609.677 21.7712 609.677 21.2197V20.4951C609.677 19.7158 609.784 18.9912 609.998 18.3213C610.212 17.6514 610.529 17.0658 610.948 16.5645C611.372 16.0586 611.896 15.6667 612.521 15.3887C613.145 15.1061 613.867 14.9648 614.688 14.9648Z" fill="white"/>
<path d="M714 11.1001C718.667 16.0271 718.667 23.9731 714 28.9001" stroke="white" stroke-width="1.5" stroke-linecap="round" stroke-linejoin="round"/>
<path d="M714 28.9001C709.333 23.9731 709.333 16.0271 714 11.1001" stroke="white" stroke-width="1.5" stroke-linecap="round" stroke-linejoin="round"/>
<path d="M714 11C718.982 11 723 15.018 723 20C723 24.982 718.982 29 714 29" stroke="white" stroke-width="1.5" stroke-linecap="round" stroke-linejoin="round"/>
<path d="M714 29C709.018 29 705 24.982 705 20C705 15.018 709.018 11 714 11" stroke="white" stroke-width="1.5" stroke-linecap="round" stroke-linejoin="round"/>
<path d="M705.51 17H722.49" stroke="white" stroke-width="1.5" stroke-linecap="round" stroke-linejoin="round"/>
<path d="M705.51 23H722.49" stroke="white" stroke-width="1.5" stroke-linecap="round" stroke-linejoin="round"/>
<path d="M732.584 14.5V25H730.772V14.5H732.584ZM732.297 21.0352H731.764C731.764 20.5202 731.832 20.0462 731.969 19.6133C732.105 19.1803 732.299 18.8044 732.55 18.4854C732.8 18.1618 733.099 17.9111 733.445 17.7334C733.796 17.5557 734.184 17.4668 734.607 17.4668C734.972 17.4668 735.302 17.5192 735.599 17.624C735.899 17.7243 736.157 17.8861 736.371 18.1094C736.585 18.3327 736.749 18.6243 736.863 18.9844C736.982 19.3398 737.041 19.7728 737.041 20.2832V25H735.223V20.2695C735.223 19.9277 735.173 19.6589 735.072 19.4629C734.972 19.2624 734.828 19.1188 734.642 19.0322C734.459 18.9456 734.234 18.9023 733.965 18.9023C733.673 18.9023 733.423 18.9593 733.213 19.0732C733.003 19.1826 732.83 19.3353 732.693 19.5312C732.561 19.7272 732.461 19.9528 732.393 20.208C732.329 20.4632 732.297 20.7389 732.297 21.0352ZM742.134 17.6035V18.9023H737.896V17.6035H742.134ZM739.03 15.7852H740.842V22.8672C740.842 23.0859 740.871 23.2546 740.931 23.373C740.99 23.4915 741.079 23.5713 741.197 23.6123C741.316 23.6533 741.457 23.6738 741.621 23.6738C741.74 23.6738 741.849 23.667 741.949 23.6533C742.049 23.6396 742.134 23.626 742.202 23.6123L742.209 24.9658C742.059 25.016 741.888 25.057 741.696 25.0889C741.509 25.1208 741.298 25.1367 741.061 25.1367C740.655 25.1367 740.299 25.0684 739.994 24.9316C739.689 24.7904 739.452 24.5648 739.283 24.2549C739.115 23.9404 739.03 23.5257 739.03 23.0107V15.7852ZM746.837 17.6035V18.9023H742.599V17.6035H746.837ZM743.733 15.7852H745.545V22.8672C745.545 23.0859 745.575 23.2546 745.634 23.373C745.693 23.4915 745.782 23.5713 745.9 23.6123C746.019 23.6533 746.16 23.6738 746.324 23.6738C746.443 23.6738 746.552 23.667 746.652 23.6533C746.753 23.6396 746.837 23.626 746.905 23.6123L746.912 24.9658C746.762 25.016 746.591 25.057 746.399 25.0889C746.213 25.1208 746.001 25.1367 745.764 25.1367C745.358 25.1367 745.003 25.0684 744.697 24.9316C744.392 24.7904 744.155 24.5648 743.986 24.2549C743.818 23.9404 743.733 23.5257 743.733 23.0107V15.7852ZM749.845 19.0254V27.8438H748.033V17.6035H749.708L749.845 19.0254ZM754.596 21.2266V21.3701C754.596 21.9079 754.532 22.4069 754.404 22.8672C754.281 23.3229 754.099 23.7217 753.857 24.0635C753.616 24.4007 753.315 24.665 752.955 24.8564C752.6 25.0433 752.189 25.1367 751.725 25.1367C751.269 25.1367 750.872 25.0501 750.535 24.877C750.198 24.6992 749.913 24.4486 749.681 24.125C749.448 23.8014 749.261 23.4255 749.12 22.9971C748.983 22.5641 748.881 22.0924 748.812 21.582V21.124C748.881 20.5817 748.983 20.0895 749.12 19.6475C749.261 19.2008 749.448 18.8158 749.681 18.4922C749.913 18.1641 750.196 17.9111 750.528 17.7334C750.866 17.5557 751.26 17.4668 751.711 17.4668C752.18 17.4668 752.593 17.5557 752.948 17.7334C753.308 17.9111 753.611 18.1663 753.857 18.499C754.104 18.8317 754.288 19.2282 754.411 19.6885C754.534 20.1488 754.596 20.6615 754.596 21.2266ZM752.784 21.3701V21.2266C752.784 20.8984 752.755 20.5954 752.695 20.3174C752.636 20.0348 752.545 19.7887 752.422 19.5791C752.299 19.3649 752.139 19.1986 751.943 19.0801C751.747 18.9616 751.51 18.9023 751.232 18.9023C750.954 18.9023 750.715 18.9479 750.515 19.0391C750.314 19.1302 750.15 19.2601 750.022 19.4287C749.895 19.5973 749.795 19.7979 749.722 20.0303C749.653 20.2581 749.608 20.5111 749.585 20.7891V21.9238C749.626 22.2611 749.706 22.5641 749.824 22.833C749.943 23.1019 750.116 23.3161 750.344 23.4756C750.576 23.6351 750.877 23.7148 751.246 23.7148C751.524 23.7148 751.761 23.6533 751.957 23.5303C752.153 23.4072 752.312 23.2386 752.436 23.0244C752.559 22.8057 752.647 22.555 752.702 22.2725C752.757 21.9899 752.784 21.6891 752.784 21.3701ZM759.982 22.9766C759.982 22.8216 759.941 22.6826 759.859 22.5596C759.777 22.4365 759.622 22.3249 759.395 22.2246C759.171 22.1198 758.843 22.0218 758.41 21.9307C758.027 21.8486 757.674 21.7461 757.351 21.623C757.027 21.5 756.749 21.3519 756.517 21.1787C756.284 21.001 756.102 20.7936 755.97 20.5566C755.842 20.3151 755.778 20.0371 755.778 19.7227C755.778 19.4173 755.844 19.1302 755.977 18.8613C756.109 18.5879 756.3 18.3486 756.551 18.1436C756.801 17.9339 757.107 17.7699 757.467 17.6514C757.827 17.5283 758.232 17.4668 758.684 17.4668C759.312 17.4668 759.853 17.5693 760.304 17.7744C760.759 17.9795 761.108 18.262 761.35 18.6221C761.591 18.9775 761.712 19.3786 761.712 19.8252H759.907C759.907 19.6292 759.862 19.4515 759.771 19.292C759.684 19.1325 759.549 19.0049 759.367 18.9092C759.185 18.8089 758.955 18.7588 758.677 18.7588C758.426 18.7588 758.214 18.7998 758.041 18.8818C757.872 18.9639 757.745 19.071 757.658 19.2031C757.572 19.3353 757.528 19.4811 757.528 19.6406C757.528 19.7591 757.551 19.8662 757.597 19.9619C757.647 20.0531 757.727 20.1374 757.836 20.2148C757.945 20.2923 758.093 20.363 758.28 20.4268C758.472 20.4906 758.706 20.5521 758.984 20.6113C759.536 20.7207 760.017 20.8665 760.427 21.0488C760.841 21.2266 761.165 21.4635 761.397 21.7598C761.63 22.056 761.746 22.4342 761.746 22.8945C761.746 23.2227 761.675 23.5234 761.534 23.7969C761.393 24.0658 761.188 24.3005 760.919 24.501C760.65 24.7015 760.329 24.8587 759.955 24.9727C759.581 25.082 759.16 25.1367 758.69 25.1367C758.011 25.1367 757.437 25.016 756.968 24.7744C756.498 24.5283 756.143 24.2184 755.901 23.8447C755.66 23.4665 755.539 23.0745 755.539 22.6689H757.269C757.282 22.9561 757.36 23.1862 757.501 23.3594C757.642 23.5326 757.82 23.6579 758.034 23.7354C758.253 23.8083 758.483 23.8447 758.725 23.8447C758.998 23.8447 759.228 23.8083 759.415 23.7354C759.602 23.6579 759.743 23.5553 759.839 23.4277C759.935 23.2956 759.982 23.1452 759.982 22.9766ZM763.161 24.1182C763.161 23.8447 763.255 23.6146 763.441 23.4277C763.628 23.2409 763.881 23.1475 764.2 23.1475C764.519 23.1475 764.772 23.2409 764.959 23.4277C765.146 23.6146 765.239 23.8447 765.239 24.1182C765.239 24.387 765.146 24.6149 764.959 24.8018C764.772 24.984 764.519 25.0752 764.2 25.0752C763.881 25.0752 763.628 24.984 763.441 24.8018C763.255 24.6149 763.161 24.387 763.161 24.1182ZM763.168 18.3828C763.168 18.1094 763.261 17.8792 763.448 17.6924C763.635 17.5055 763.888 17.4121 764.207 17.4121C764.526 17.4121 764.779 17.5055 764.966 17.6924C765.153 17.8792 765.246 18.1094 765.246 18.3828C765.246 18.6517 765.153 18.8796 764.966 19.0664C764.779 19.2487 764.526 19.3398 764.207 19.3398C763.888 19.3398 763.635 19.2487 763.448 19.0664C763.261 18.8796 763.168 18.6517 763.168 18.3828ZM771.214 15.0469L767.454 25.8545H766.08L769.84 15.0469H771.214ZM774.933 15.0469L771.173 25.8545H769.799L773.559 15.0469H774.933ZM775.979 14.5H777.79V23.3662L777.612 25H775.979V14.5ZM782.548 21.2266V21.3701C782.548 21.9215 782.486 22.4274 782.363 22.8877C782.245 23.348 782.065 23.7467 781.823 24.084C781.582 24.4167 781.281 24.6764 780.921 24.8633C780.565 25.0456 780.148 25.1367 779.67 25.1367C779.214 25.1367 778.818 25.0479 778.48 24.8701C778.148 24.6924 777.868 24.4417 777.64 24.1182C777.412 23.79 777.229 23.4049 777.093 22.9629C776.956 22.5163 776.854 22.0286 776.785 21.5V21.1104C776.854 20.5771 776.956 20.0895 777.093 19.6475C777.229 19.2054 777.412 18.8203 777.64 18.4922C777.868 18.1641 778.148 17.9111 778.48 17.7334C778.813 17.5557 779.205 17.4668 779.656 17.4668C780.139 17.4668 780.561 17.5602 780.921 17.7471C781.285 17.9294 781.586 18.1891 781.823 18.5264C782.065 18.859 782.245 19.2555 782.363 19.7158C782.486 20.1715 782.548 20.6751 782.548 21.2266ZM780.736 21.3701V21.2266C780.736 20.9121 780.711 20.6159 780.661 20.3379C780.611 20.0553 780.529 19.807 780.415 19.5928C780.301 19.3786 780.146 19.21 779.95 19.0869C779.754 18.9639 779.508 18.9023 779.212 18.9023C778.929 18.9023 778.688 18.9502 778.487 19.0459C778.291 19.1416 778.127 19.2738 777.995 19.4424C777.868 19.611 777.767 19.8092 777.694 20.0371C777.626 20.265 777.58 20.5111 777.558 20.7754V21.8418C777.59 22.1927 777.665 22.5094 777.783 22.792C777.902 23.07 778.077 23.291 778.31 23.4551C778.547 23.6191 778.852 23.7012 779.226 23.7012C779.517 23.7012 779.761 23.6442 779.957 23.5303C780.153 23.4118 780.308 23.2477 780.422 23.0381C780.536 22.8239 780.616 22.5755 780.661 22.293C780.711 22.0104 780.736 21.7028 780.736 21.3701ZM787.183 25.1367C786.622 25.1367 786.118 25.0456 785.672 24.8633C785.225 24.681 784.845 24.4281 784.53 24.1045C784.22 23.7764 783.981 23.3958 783.812 22.9629C783.648 22.5254 783.566 22.056 783.566 21.5547V21.2812C783.566 20.7116 783.648 20.1943 783.812 19.7295C783.977 19.2601 784.209 18.8568 784.51 18.5195C784.811 18.1823 785.171 17.9225 785.59 17.7402C786.009 17.5579 786.472 17.4668 786.978 17.4668C787.502 17.4668 787.964 17.5557 788.365 17.7334C788.766 17.9066 789.101 18.1527 789.37 18.4717C789.639 18.7907 789.842 19.1735 789.979 19.6201C790.115 20.0622 790.184 20.5521 790.184 21.0898V21.8486H784.387V20.6045H788.406V20.4678C788.397 20.1807 788.342 19.9186 788.242 19.6816C788.142 19.4401 787.987 19.2487 787.777 19.1074C787.568 18.9616 787.297 18.8887 786.964 18.8887C786.695 18.8887 786.46 18.9479 786.26 19.0664C786.064 19.1803 785.9 19.3444 785.768 19.5586C785.64 19.7682 785.544 20.0189 785.48 20.3105C785.417 20.6022 785.385 20.9258 785.385 21.2812V21.5547C785.385 21.8646 785.426 22.1517 785.508 22.416C785.594 22.6803 785.72 22.9105 785.884 23.1064C786.052 23.2979 786.253 23.4482 786.485 23.5576C786.722 23.6624 786.991 23.7148 787.292 23.7148C787.67 23.7148 788.012 23.6419 788.317 23.4961C788.627 23.3457 788.896 23.1247 789.124 22.833L790.033 23.7764C789.878 24.0042 789.669 24.223 789.404 24.4326C789.145 24.6423 788.83 24.8132 788.461 24.9453C788.092 25.0729 787.666 25.1367 787.183 25.1367ZM793.164 19.1826V25H791.359V17.6035H793.055L793.164 19.1826ZM792.877 21.0352H792.344C792.348 20.4974 792.421 20.0098 792.562 19.5723C792.704 19.1348 792.902 18.7588 793.157 18.4443C793.417 18.1299 793.725 17.8883 794.08 17.7197C794.436 17.5511 794.832 17.4668 795.27 17.4668C795.625 17.4668 795.946 17.5169 796.233 17.6172C796.521 17.7174 796.767 17.877 796.972 18.0957C797.181 18.3145 797.341 18.6016 797.45 18.957C797.564 19.3079 797.621 19.7409 797.621 20.2559V25H795.803V20.2422C795.803 19.9049 795.753 19.6383 795.652 19.4424C795.557 19.2464 795.415 19.1074 795.229 19.0254C795.046 18.9434 794.821 18.9023 794.552 18.9023C794.274 18.9023 794.03 18.9593 793.82 19.0732C793.615 19.1826 793.442 19.3353 793.301 19.5312C793.164 19.7272 793.059 19.9528 792.986 20.208C792.913 20.4632 792.877 20.7389 792.877 21.0352ZM800.984 14.5V25H799.173V14.5H800.984ZM800.697 21.0352H800.164C800.164 20.5202 800.232 20.0462 800.369 19.6133C800.506 19.1803 800.7 18.8044 800.95 18.4854C801.201 18.1618 801.499 17.9111 801.846 17.7334C802.197 17.5557 802.584 17.4668 803.008 17.4668C803.372 17.4668 803.703 17.5192 803.999 17.624C804.3 17.7243 804.557 17.8861 804.771 18.1094C804.986 18.3327 805.15 18.6243 805.264 18.9844C805.382 19.3398 805.441 19.7728 805.441 20.2832V25H803.623V20.2695C803.623 19.9277 803.573 19.6589 803.473 19.4629C803.372 19.2624 803.229 19.1188 803.042 19.0322C802.86 18.9456 802.634 18.9023 802.365 18.9023C802.074 18.9023 801.823 18.9593 801.613 19.0732C801.404 19.1826 801.23 19.3353 801.094 19.5312C800.962 19.7272 800.861 19.9528 800.793 20.208C800.729 20.4632 800.697 20.7389 800.697 21.0352ZM809.488 23.6328L811.211 17.6035H813.098L810.562 25H809.413L809.488 23.6328ZM808.23 17.6035L809.974 23.6465L810.035 25H808.88L806.337 17.6035H808.23ZM815.962 17.6035V25H814.15V17.6035H815.962ZM814.027 15.6689C814.027 15.4001 814.118 15.1768 814.301 14.999C814.488 14.8213 814.738 14.7324 815.053 14.7324C815.367 14.7324 815.616 14.8213 815.798 14.999C815.985 15.1768 816.078 15.4001 816.078 15.6689C816.078 15.9333 815.985 16.1543 815.798 16.332C815.616 16.5098 815.367 16.5986 815.053 16.5986C814.738 16.5986 814.488 16.5098 814.301 16.332C814.118 16.1543 814.027 15.9333 814.027 15.6689ZM821.007 25.1367C820.446 25.1367 819.943 25.0456 819.496 24.8633C819.049 24.681 818.669 24.4281 818.354 24.1045C818.045 23.7764 817.805 23.3958 817.637 22.9629C817.473 22.5254 817.391 22.056 817.391 21.5547V21.2812C817.391 20.7116 817.473 20.1943 817.637 19.7295C817.801 19.2601 818.033 18.8568 818.334 18.5195C818.635 18.1823 818.995 17.9225 819.414 17.7402C819.833 17.5579 820.296 17.4668 820.802 17.4668C821.326 17.4668 821.788 17.5557 822.189 17.7334C822.59 17.9066 822.925 18.1527 823.194 18.4717C823.463 18.7907 823.666 19.1735 823.803 19.6201C823.939 20.0622 824.008 20.5521 824.008 21.0898V21.8486H818.211V20.6045H822.23V20.4678C822.221 20.1807 822.167 19.9186 822.066 19.6816C821.966 19.4401 821.811 19.2487 821.602 19.1074C821.392 18.9616 821.121 18.8887 820.788 18.8887C820.519 18.8887 820.285 18.9479 820.084 19.0664C819.888 19.1803 819.724 19.3444 819.592 19.5586C819.464 19.7682 819.368 20.0189 819.305 20.3105C819.241 20.6022 819.209 20.9258 819.209 21.2812V21.5547C819.209 21.8646 819.25 22.1517 819.332 22.416C819.419 22.6803 819.544 22.9105 819.708 23.1064C819.877 23.2979 820.077 23.4482 820.31 23.5576C820.547 23.6624 820.815 23.7148 821.116 23.7148C821.494 23.7148 821.836 23.6419 822.142 23.4961C822.451 23.3457 822.72 23.1247 822.948 22.833L823.857 23.7764C823.702 24.0042 823.493 24.223 823.229 24.4326C822.969 24.6423 822.654 24.8132 822.285 24.9453C821.916 25.0729 821.49 25.1367 821.007 25.1367ZM826.988 19.1826V25H825.184V17.6035H826.879L826.988 19.1826ZM826.701 21.0352H826.168C826.173 20.4974 826.245 20.0098 826.387 19.5723C826.528 19.1348 826.726 18.7588 826.981 18.4443C827.241 18.1299 827.549 17.8883 827.904 17.7197C828.26 17.5511 828.656 17.4668 829.094 17.4668C829.449 17.4668 829.771 17.5169 830.058 17.6172C830.345 17.7174 830.591 17.877 830.796 18.0957C831.006 18.3145 831.165 18.6016 831.274 18.957C831.388 19.3079 831.445 19.7409 831.445 20.2559V25H829.627V20.2422C829.627 19.9049 829.577 19.6383 829.477 19.4424C829.381 19.2464 829.24 19.1074 829.053 19.0254C828.87 18.9434 828.645 18.9023 828.376 18.9023C828.098 18.9023 827.854 18.9593 827.645 19.0732C827.439 19.1826 827.266 19.3353 827.125 19.5312C826.988 19.7272 826.883 19.9528 826.811 20.208C826.738 20.4632 826.701 20.7389 826.701 21.0352ZM834.843 19.0254V27.8438H833.031V17.6035H834.706L834.843 19.0254ZM839.594 21.2266V21.3701C839.594 21.9079 839.53 22.4069 839.402 22.8672C839.279 23.3229 839.097 23.7217 838.855 24.0635C838.614 24.4007 838.313 24.665 837.953 24.8564C837.598 25.0433 837.188 25.1367 836.723 25.1367C836.267 25.1367 835.87 25.0501 835.533 24.877C835.196 24.6992 834.911 24.4486 834.679 24.125C834.446 23.8014 834.259 23.4255 834.118 22.9971C833.981 22.5641 833.879 22.0924 833.811 21.582V21.124C833.879 20.5817 833.981 20.0895 834.118 19.6475C834.259 19.2008 834.446 18.8158 834.679 18.4922C834.911 18.1641 835.194 17.9111 835.526 17.7334C835.864 17.5557 836.258 17.4668 836.709 17.4668C837.178 17.4668 837.591 17.5557 837.946 17.7334C838.306 17.9111 838.609 18.1663 838.855 18.499C839.102 18.8317 839.286 19.2282 839.409 19.6885C839.532 20.1488 839.594 20.6615 839.594 21.2266ZM837.782 21.3701V21.2266C837.782 20.8984 837.753 20.5954 837.693 20.3174C837.634 20.0348 837.543 19.7887 837.42 19.5791C837.297 19.3649 837.137 19.1986 836.941 19.0801C836.745 18.9616 836.508 18.9023 836.23 18.9023C835.952 18.9023 835.713 18.9479 835.513 19.0391C835.312 19.1302 835.148 19.2601 835.021 19.4287C834.893 19.5973 834.793 19.7979 834.72 20.0303C834.651 20.2581 834.606 20.5111 834.583 20.7891V21.9238C834.624 22.2611 834.704 22.5641 834.822 22.833C834.941 23.1019 835.114 23.3161 835.342 23.4756C835.574 23.6351 835.875 23.7148 836.244 23.7148C836.522 23.7148 836.759 23.6533 836.955 23.5303C837.151 23.4072 837.311 23.2386 837.434 23.0244C837.557 22.8057 837.646 22.555 837.7 22.2725C837.755 21.9899 837.782 21.6891 837.782 21.3701ZM842.684 14.5V25H840.872V14.5H842.684ZM842.396 21.0352H841.863C841.863 20.5202 841.932 20.0462 842.068 19.6133C842.205 19.1803 842.399 18.8044 842.649 18.4854C842.9 18.1618 843.199 17.9111 843.545 17.7334C843.896 17.5557 844.283 17.4668 844.707 17.4668C845.072 17.4668 845.402 17.5192 845.698 17.624C845.999 17.7243 846.257 17.8861 846.471 18.1094C846.685 18.3327 846.849 18.6243 846.963 18.9844C847.081 19.3398 847.141 19.7728 847.141 20.2832V25H845.322V20.2695C845.322 19.9277 845.272 19.6589 845.172 19.4629C845.072 19.2624 844.928 19.1188 844.741 19.0322C844.559 18.9456 844.333 18.9023 844.064 18.9023C843.773 18.9023 843.522 18.9593 843.312 19.0732C843.103 19.1826 842.93 19.3353 842.793 19.5312C842.661 19.7272 842.561 19.9528 842.492 20.208C842.428 20.4632 842.396 20.7389 842.396 21.0352ZM853.136 23.2432V17.6035H854.954V25H853.245L853.136 23.2432ZM853.368 21.7119L853.929 21.6982C853.929 22.195 853.874 22.653 853.765 23.0723C853.655 23.4915 853.484 23.8561 853.252 24.166C853.024 24.4714 852.735 24.7106 852.384 24.8838C852.033 25.0524 851.618 25.1367 851.14 25.1367C850.775 25.1367 850.442 25.0866 850.142 24.9863C849.841 24.8815 849.581 24.7197 849.362 24.501C849.148 24.2777 848.982 23.9928 848.863 23.6465C848.745 23.2956 848.686 22.874 848.686 22.3818V17.6035H850.49V22.3955C850.49 22.6416 850.518 22.8467 850.572 23.0107C850.632 23.1748 850.711 23.3092 850.812 23.4141C850.916 23.5143 851.037 23.5872 851.174 23.6328C851.315 23.6738 851.465 23.6943 851.625 23.6943C852.062 23.6943 852.407 23.6077 852.657 23.4346C852.912 23.2568 853.095 23.0199 853.204 22.7236C853.313 22.4229 853.368 22.0856 853.368 21.7119ZM856.232 21.377V21.2334C856.232 20.6911 856.31 20.1921 856.465 19.7363C856.62 19.276 856.845 18.8773 857.142 18.54C857.438 18.2028 857.8 17.9408 858.229 17.7539C858.657 17.5625 859.145 17.4668 859.691 17.4668C860.247 17.4668 860.74 17.5625 861.168 17.7539C861.601 17.9408 861.965 18.2028 862.262 18.54C862.558 18.8773 862.784 19.276 862.938 19.7363C863.093 20.1921 863.171 20.6911 863.171 21.2334V21.377C863.171 21.9147 863.093 22.4137 862.938 22.874C862.784 23.3298 862.558 23.7285 862.262 24.0703C861.965 24.4076 861.603 24.6696 861.175 24.8564C860.746 25.0433 860.257 25.1367 859.705 25.1367C859.158 25.1367 858.668 25.0433 858.235 24.8564C857.802 24.6696 857.438 24.4076 857.142 24.0703C856.845 23.7285 856.62 23.3298 856.465 22.874C856.31 22.4137 856.232 21.9147 856.232 21.377ZM858.037 21.2334V21.377C858.037 21.7005 858.069 22.0036 858.133 22.2861C858.197 22.5687 858.295 22.8171 858.427 23.0312C858.559 23.2454 858.73 23.4141 858.939 23.5371C859.154 23.6556 859.409 23.7148 859.705 23.7148C859.997 23.7148 860.247 23.6556 860.457 23.5371C860.667 23.4141 860.838 23.2454 860.97 23.0312C861.106 22.8171 861.207 22.5687 861.271 22.2861C861.334 22.0036 861.366 21.7005 861.366 21.377V21.2334C861.366 20.9144 861.334 20.6159 861.271 20.3379C861.207 20.0553 861.106 19.807 860.97 19.5928C860.838 19.374 860.664 19.2031 860.45 19.0801C860.241 18.9525 859.988 18.8887 859.691 18.8887C859.4 18.8887 859.149 18.9525 858.939 19.0801C858.73 19.2031 858.559 19.374 858.427 19.5928C858.295 19.807 858.197 20.0553 858.133 20.3379C858.069 20.6159 858.037 20.9144 858.037 21.2334ZM866.254 19.1826V25H864.449V17.6035H866.145L866.254 19.1826ZM865.967 21.0352H865.434C865.438 20.4974 865.511 20.0098 865.652 19.5723C865.794 19.1348 865.992 18.7588 866.247 18.4443C866.507 18.1299 866.814 17.8883 867.17 17.7197C867.525 17.5511 867.922 17.4668 868.359 17.4668C868.715 17.4668 869.036 17.5169 869.323 17.6172C869.61 17.7174 869.856 17.877 870.062 18.0957C870.271 18.3145 870.431 18.6016 870.54 18.957C870.654 19.3079 870.711 19.7409 870.711 20.2559V25H868.893V20.2422C868.893 19.9049 868.842 19.6383 868.742 19.4424C868.646 19.2464 868.505 19.1074 868.318 19.0254C868.136 18.9434 867.91 18.9023 867.642 18.9023C867.364 18.9023 867.12 18.9593 866.91 19.0732C866.705 19.1826 866.532 19.3353 866.391 19.5312C866.254 19.7272 866.149 19.9528 866.076 20.208C866.003 20.4632 865.967 20.7389 865.967 21.0352ZM877.007 17.6035H878.647V24.7744C878.647 25.4443 878.502 26.0117 878.21 26.4766C877.923 26.946 877.52 27.3014 877 27.543C876.48 27.7891 875.877 27.9121 875.188 27.9121C874.892 27.9121 874.571 27.8711 874.225 27.7891C873.883 27.707 873.552 27.5771 873.233 27.3994C872.919 27.2262 872.657 27.0007 872.447 26.7227L873.261 25.6562C873.507 25.9434 873.785 26.1598 874.095 26.3057C874.405 26.4561 874.74 26.5312 875.1 26.5312C875.464 26.5312 875.774 26.4629 876.029 26.3262C876.289 26.194 876.487 25.998 876.624 25.7383C876.765 25.4831 876.836 25.1686 876.836 24.7949V19.292L877.007 17.6035ZM872.01 21.3906V21.2471C872.01 20.682 872.078 20.1693 872.215 19.709C872.352 19.2441 872.548 18.8454 872.803 18.5127C873.062 18.18 873.375 17.9225 873.739 17.7402C874.108 17.5579 874.523 17.4668 874.983 17.4668C875.471 17.4668 875.881 17.5557 876.214 17.7334C876.551 17.9111 876.829 18.1641 877.048 18.4922C877.271 18.8203 877.444 19.21 877.567 19.6611C877.695 20.1077 877.793 20.5999 877.861 21.1377V21.5273C877.798 22.0514 877.695 22.5322 877.554 22.9697C877.417 23.4072 877.235 23.79 877.007 24.1182C876.779 24.4417 876.496 24.6924 876.159 24.8701C875.822 25.0479 875.425 25.1367 874.97 25.1367C874.514 25.1367 874.104 25.0433 873.739 24.8564C873.375 24.6696 873.062 24.4076 872.803 24.0703C872.548 23.7331 872.352 23.3366 872.215 22.8809C872.078 22.4251 872.01 21.9284 872.01 21.3906ZM873.814 21.2471V21.3906C873.814 21.7096 873.846 22.0081 873.91 22.2861C873.974 22.5641 874.072 22.8102 874.204 23.0244C874.336 23.234 874.503 23.3981 874.703 23.5166C874.904 23.6351 875.143 23.6943 875.421 23.6943C875.795 23.6943 876.1 23.6169 876.337 23.4619C876.578 23.3024 876.761 23.0859 876.884 22.8125C877.011 22.5345 877.093 22.2223 877.13 21.876V20.8027C877.107 20.5293 877.057 20.2764 876.979 20.0439C876.907 19.8115 876.804 19.611 876.672 19.4424C876.54 19.2738 876.371 19.1416 876.166 19.0459C875.961 18.9502 875.717 18.9023 875.435 18.9023C875.161 18.9023 874.922 18.9639 874.717 19.0869C874.512 19.2054 874.343 19.3717 874.211 19.5859C874.079 19.8001 873.979 20.0485 873.91 20.3311C873.846 20.6136 873.814 20.9189 873.814 21.2471ZM888.197 23.4277V14.5H890.016V25H888.375L888.197 23.4277ZM883.446 21.3906V21.2471C883.446 20.682 883.51 20.1693 883.638 19.709C883.77 19.2441 883.961 18.8454 884.212 18.5127C884.463 18.18 884.766 17.9225 885.121 17.7402C885.481 17.5579 885.889 17.4668 886.345 17.4668C886.787 17.4668 887.172 17.5557 887.5 17.7334C887.833 17.9111 888.115 18.1641 888.348 18.4922C888.585 18.8203 888.774 19.21 888.915 19.6611C889.056 20.1077 889.159 20.5999 889.223 21.1377V21.5273C889.159 22.0514 889.056 22.5322 888.915 22.9697C888.774 23.4072 888.585 23.79 888.348 24.1182C888.115 24.4417 887.833 24.6924 887.5 24.8701C887.167 25.0479 886.778 25.1367 886.331 25.1367C885.88 25.1367 885.474 25.0433 885.114 24.8564C884.759 24.6696 884.456 24.4076 884.205 24.0703C883.959 23.7331 883.77 23.3366 883.638 22.8809C883.51 22.4251 883.446 21.9284 883.446 21.3906ZM885.258 21.2471V21.3906C885.258 21.7096 885.285 22.0081 885.34 22.2861C885.395 22.5641 885.483 22.8102 885.606 23.0244C885.729 23.234 885.887 23.3981 886.078 23.5166C886.274 23.6351 886.511 23.6943 886.789 23.6943C887.145 23.6943 887.436 23.6169 887.664 23.4619C887.896 23.3024 888.076 23.0859 888.204 22.8125C888.332 22.5345 888.414 22.2223 888.45 21.876V20.8027C888.432 20.5293 888.384 20.2764 888.307 20.0439C888.234 19.8115 888.129 19.611 887.992 19.4424C887.86 19.2738 887.696 19.1416 887.5 19.0459C887.304 18.9502 887.072 18.9023 886.803 18.9023C886.525 18.9023 886.288 18.9639 886.092 19.0869C885.896 19.2054 885.736 19.3717 885.613 19.5859C885.49 19.8001 885.399 20.0485 885.34 20.3311C885.285 20.6136 885.258 20.9189 885.258 21.2471ZM891.328 21.377V21.2334C891.328 20.6911 891.406 20.1921 891.561 19.7363C891.715 19.276 891.941 18.8773 892.237 18.54C892.534 18.2028 892.896 17.9408 893.324 17.7539C893.753 17.5625 894.24 17.4668 894.787 17.4668C895.343 17.4668 895.835 17.5625 896.264 17.7539C896.697 17.9408 897.061 18.2028 897.357 18.54C897.654 18.8773 897.879 19.276 898.034 19.7363C898.189 20.1921 898.267 20.6911 898.267 21.2334V21.377C898.267 21.9147 898.189 22.4137 898.034 22.874C897.879 23.3298 897.654 23.7285 897.357 24.0703C897.061 24.4076 896.699 24.6696 896.271 24.8564C895.842 25.0433 895.352 25.1367 894.801 25.1367C894.254 25.1367 893.764 25.0433 893.331 24.8564C892.898 24.6696 892.534 24.4076 892.237 24.0703C891.941 23.7285 891.715 23.3298 891.561 22.874C891.406 22.4137 891.328 21.9147 891.328 21.377ZM893.133 21.2334V21.377C893.133 21.7005 893.165 22.0036 893.229 22.2861C893.292 22.5687 893.39 22.8171 893.522 23.0312C893.655 23.2454 893.826 23.4141 894.035 23.5371C894.249 23.6556 894.505 23.7148 894.801 23.7148C895.092 23.7148 895.343 23.6556 895.553 23.5371C895.762 23.4141 895.933 23.2454 896.065 23.0312C896.202 22.8171 896.302 22.5687 896.366 22.2861C896.43 22.0036 896.462 21.7005 896.462 21.377V21.2334C896.462 20.9144 896.43 20.6159 896.366 20.3379C896.302 20.0553 896.202 19.807 896.065 19.5928C895.933 19.374 895.76 19.2031 895.546 19.0801C895.336 18.9525 895.083 18.8887 894.787 18.8887C894.495 18.8887 894.245 18.9525 894.035 19.0801C893.826 19.2031 893.655 19.374 893.522 19.5928C893.39 19.807 893.292 20.0553 893.229 20.3379C893.165 20.6159 893.133 20.9144 893.133 21.2334ZM901.35 19.1826V25H899.545V17.6035H901.24L901.35 19.1826ZM901.062 21.0352H900.529C900.534 20.4974 900.607 20.0098 900.748 19.5723C900.889 19.1348 901.088 18.7588 901.343 18.4443C901.603 18.1299 901.91 17.8883 902.266 17.7197C902.621 17.5511 903.018 17.4668 903.455 17.4668C903.811 17.4668 904.132 17.5169 904.419 17.6172C904.706 17.7174 904.952 17.877 905.157 18.0957C905.367 18.3145 905.526 18.6016 905.636 18.957C905.75 19.3079 905.807 19.7409 905.807 20.2559V25H903.988V20.2422C903.988 19.9049 903.938 19.6383 903.838 19.4424C903.742 19.2464 903.601 19.1074 903.414 19.0254C903.232 18.9434 903.006 18.9023 902.737 18.9023C902.459 18.9023 902.215 18.9593 902.006 19.0732C901.801 19.1826 901.628 19.3353 901.486 19.5312C901.35 19.7272 901.245 19.9528 901.172 20.208C901.099 20.4632 901.062 20.7389 901.062 21.0352ZM912.103 17.6035H913.743V24.7744C913.743 25.4443 913.597 26.0117 913.306 26.4766C913.019 26.946 912.615 27.3014 912.096 27.543C911.576 27.7891 910.972 27.9121 910.284 27.9121C909.988 27.9121 909.667 27.8711 909.32 27.7891C908.979 27.707 908.648 27.5771 908.329 27.3994C908.015 27.2262 907.753 27.0007 907.543 26.7227L908.356 25.6562C908.603 25.9434 908.881 26.1598 909.19 26.3057C909.5 26.4561 909.835 26.5312 910.195 26.5312C910.56 26.5312 910.87 26.4629 911.125 26.3262C911.385 26.194 911.583 25.998 911.72 25.7383C911.861 25.4831 911.932 25.1686 911.932 24.7949V19.292L912.103 17.6035ZM907.105 21.3906V21.2471C907.105 20.682 907.174 20.1693 907.311 19.709C907.447 19.2441 907.643 18.8454 907.898 18.5127C908.158 18.18 908.47 17.9225 908.835 17.7402C909.204 17.5579 909.619 17.4668 910.079 17.4668C910.567 17.4668 910.977 17.5557 911.31 17.7334C911.647 17.9111 911.925 18.1641 912.144 18.4922C912.367 18.8203 912.54 19.21 912.663 19.6611C912.791 20.1077 912.889 20.5999 912.957 21.1377V21.5273C912.893 22.0514 912.791 22.5322 912.649 22.9697C912.513 23.4072 912.33 23.79 912.103 24.1182C911.875 24.4417 911.592 24.6924 911.255 24.8701C910.918 25.0479 910.521 25.1367 910.065 25.1367C909.61 25.1367 909.2 25.0433 908.835 24.8564C908.47 24.6696 908.158 24.4076 907.898 24.0703C907.643 23.7331 907.447 23.3366 907.311 22.8809C907.174 22.4251 907.105 21.9284 907.105 21.3906ZM908.91 21.2471V21.3906C908.91 21.7096 908.942 22.0081 909.006 22.2861C909.07 22.5641 909.168 22.8102 909.3 23.0244C909.432 23.234 909.598 23.3981 909.799 23.5166C909.999 23.6351 910.239 23.6943 910.517 23.6943C910.89 23.6943 911.196 23.6169 911.433 23.4619C911.674 23.3024 911.856 23.0859 911.979 22.8125C912.107 22.5345 912.189 22.2223 912.226 21.876V20.8027C912.203 20.5293 912.153 20.2764 912.075 20.0439C912.002 19.8115 911.9 19.611 911.768 19.4424C911.635 19.2738 911.467 19.1416 911.262 19.0459C911.057 18.9502 910.813 18.9023 910.53 18.9023C910.257 18.9023 910.018 18.9639 909.812 19.0869C909.607 19.2054 909.439 19.3717 909.307 19.5859C909.174 19.8001 909.074 20.0485 909.006 20.3311C908.942 20.6136 908.91 20.9189 908.91 21.2471ZM915.445 24.1182C915.445 23.8447 915.539 23.6146 915.726 23.4277C915.912 23.2409 916.165 23.1475 916.484 23.1475C916.803 23.1475 917.056 23.2409 917.243 23.4277C917.43 23.6146 917.523 23.8447 917.523 24.1182C917.523 24.387 917.43 24.6149 917.243 24.8018C917.056 24.984 916.803 25.0752 916.484 25.0752C916.165 25.0752 915.912 24.984 915.726 24.8018C915.539 24.6149 915.445 24.387 915.445 24.1182ZM921.803 23.6328L923.525 17.6035H925.412L922.876 25H921.728L921.803 23.6328ZM920.545 17.6035L922.288 23.6465L922.35 25H921.194L918.651 17.6035H920.545ZM928.133 19.1826V25H926.328V17.6035H928.023L928.133 19.1826ZM927.846 21.0352H927.312C927.317 20.4974 927.39 20.0098 927.531 19.5723C927.673 19.1348 927.871 18.7588 928.126 18.4443C928.386 18.1299 928.693 17.8883 929.049 17.7197C929.404 17.5511 929.801 17.4668 930.238 17.4668C930.594 17.4668 930.915 17.5169 931.202 17.6172C931.489 17.7174 931.735 17.877 931.94 18.0957C932.15 18.3145 932.31 18.6016 932.419 18.957C932.533 19.3079 932.59 19.7409 932.59 20.2559V25H930.771V20.2422C930.771 19.9049 930.721 19.6383 930.621 19.4424C930.525 19.2464 930.384 19.1074 930.197 19.0254C930.015 18.9434 929.789 18.9023 929.521 18.9023C929.243 18.9023 928.999 18.9593 928.789 19.0732C928.584 19.1826 928.411 19.3353 928.27 19.5312C928.133 19.7272 928.028 19.9528 927.955 20.208C927.882 20.4632 927.846 20.7389 927.846 21.0352ZM938.462 15.0469L934.702 25.8545H933.328L937.088 15.0469H938.462Z" fill="white"/>
<defs>
<linearGradient id="paint0_linear_1_13528" x1="-1.10187e-05" y1="20.081" x2="1408" y2="20.0804" gradientUnits="userSpaceOnUse">
<stop stop-color="#50C577"/>
<stop offset="1" stop-color="#2DBEFC"/>
</linearGradient>
</defs>
</svg>
