<svg width="1920" height="419" viewBox="0 0 1920 419" fill="none" xmlns="http://www.w3.org/2000/svg">
<rect width="1920" height="349.092" transform="translate(0 70)" fill="url(#paint0_linear_1_13900)"/>
<path d="M1920 67C1219.5 -17.1588 701.5 -24.5 -0.0017395 64.5C-701.503 153.5 -0.0017395 191.263 -0.0017395 191.263H1920C1920 191.263 2620.5 151.159 1920 67Z" fill="url(#paint1_linear_1_13900)"/>
<rect y="353.092" width="1920" height="1" fill="white" fill-opacity="0.14"/>
<path d="M717.109 386.42H718.25C718.25 387.238 718.016 387.852 717.547 388.264C717.083 388.67 716.453 388.873 715.656 388.873C715.104 388.873 714.625 388.745 714.219 388.49C713.818 388.235 713.505 387.881 713.281 387.428C713.062 386.975 712.953 386.449 712.953 385.85V384.951C712.953 384.352 713.062 383.826 713.281 383.373C713.505 382.92 713.818 382.566 714.219 382.311C714.625 382.055 715.104 381.928 715.656 381.928C716.453 381.928 717.086 382.131 717.555 382.537C718.023 382.943 718.258 383.555 718.258 384.373H717.117C717.117 383.857 716.992 383.488 716.742 383.264C716.497 383.04 716.135 382.928 715.656 382.928C715.312 382.928 715.023 383.014 714.789 383.186C714.555 383.357 714.378 383.597 714.258 383.904C714.138 384.206 714.078 384.553 714.078 384.943V385.85C714.078 386.245 714.138 386.597 714.258 386.904C714.378 387.206 714.555 387.443 714.789 387.615C715.023 387.787 715.312 387.873 715.656 387.873C716.135 387.873 716.497 387.761 716.742 387.537C716.987 387.313 717.109 386.941 717.109 386.42ZM711.117 385.396C711.117 386.089 711.237 386.735 711.477 387.334C711.716 387.933 712.049 388.456 712.477 388.904C712.904 389.352 713.398 389.701 713.961 389.951C714.523 390.201 715.125 390.326 715.766 390.326C716.406 390.326 717.005 390.201 717.562 389.951C718.125 389.701 718.617 389.352 719.039 388.904C719.466 388.456 719.799 387.933 720.039 387.334C720.279 386.735 720.398 386.089 720.398 385.396C720.398 384.699 720.279 384.053 720.039 383.459C719.799 382.865 719.466 382.347 719.039 381.904C718.617 381.456 718.125 381.11 717.562 380.865C717.005 380.615 716.406 380.49 715.766 380.49C715.125 380.49 714.523 380.615 713.961 380.865C713.398 381.11 712.904 381.456 712.477 381.904C712.049 382.347 711.716 382.865 711.477 383.459C711.237 384.053 711.117 384.699 711.117 385.396ZM710.219 385.396C710.219 384.568 710.362 383.8 710.648 383.092C710.935 382.383 711.333 381.766 711.844 381.24C712.354 380.709 712.943 380.298 713.609 380.006C714.281 379.709 715 379.561 715.766 379.561C716.531 379.561 717.247 379.709 717.914 380.006C718.586 380.298 719.174 380.709 719.68 381.24C720.19 381.766 720.589 382.383 720.875 383.092C721.161 383.8 721.305 384.568 721.305 385.396C721.305 386.225 721.161 386.993 720.875 387.701C720.589 388.41 720.19 389.032 719.68 389.568C719.174 390.1 718.586 390.514 717.914 390.811C717.247 391.107 716.531 391.256 715.766 391.256C715 391.256 714.281 391.107 713.609 390.811C712.943 390.514 712.354 390.1 711.844 389.568C711.333 389.032 710.935 388.41 710.648 387.701C710.362 386.993 710.219 386.225 710.219 385.396ZM734.234 387.475H735.734C735.656 388.193 735.451 388.837 735.117 389.404C734.784 389.972 734.312 390.423 733.703 390.756C733.094 391.084 732.333 391.248 731.422 391.248C730.755 391.248 730.148 391.123 729.602 390.873C729.06 390.623 728.594 390.269 728.203 389.811C727.812 389.347 727.51 388.792 727.297 388.146C727.089 387.495 726.984 386.771 726.984 385.975V384.842C726.984 384.045 727.089 383.324 727.297 382.678C727.51 382.027 727.815 381.469 728.211 381.006C728.612 380.542 729.094 380.186 729.656 379.936C730.219 379.686 730.852 379.561 731.555 379.561C732.414 379.561 733.141 379.722 733.734 380.045C734.328 380.368 734.789 380.816 735.117 381.389C735.451 381.956 735.656 382.615 735.734 383.365H734.234C734.161 382.834 734.026 382.378 733.828 381.998C733.63 381.613 733.349 381.316 732.984 381.107C732.62 380.899 732.143 380.795 731.555 380.795C731.049 380.795 730.604 380.891 730.219 381.084C729.839 381.277 729.518 381.55 729.258 381.904C729.003 382.258 728.81 382.683 728.68 383.178C728.549 383.673 728.484 384.222 728.484 384.826V385.975C728.484 386.532 728.542 387.055 728.656 387.545C728.776 388.035 728.956 388.464 729.195 388.834C729.435 389.204 729.74 389.495 730.109 389.709C730.479 389.917 730.917 390.021 731.422 390.021C732.062 390.021 732.573 389.92 732.953 389.717C733.333 389.514 733.62 389.222 733.812 388.842C734.01 388.462 734.151 388.006 734.234 387.475ZM737.188 386.959V386.779C737.188 386.17 737.276 385.605 737.453 385.084C737.63 384.558 737.885 384.102 738.219 383.717C738.552 383.326 738.956 383.024 739.43 382.811C739.904 382.592 740.435 382.482 741.023 382.482C741.617 382.482 742.151 382.592 742.625 382.811C743.104 383.024 743.51 383.326 743.844 383.717C744.182 384.102 744.44 384.558 744.617 385.084C744.794 385.605 744.883 386.17 744.883 386.779V386.959C744.883 387.568 744.794 388.133 744.617 388.654C744.44 389.175 744.182 389.631 743.844 390.021C743.51 390.407 743.107 390.709 742.633 390.928C742.164 391.141 741.633 391.248 741.039 391.248C740.445 391.248 739.911 391.141 739.438 390.928C738.964 390.709 738.557 390.407 738.219 390.021C737.885 389.631 737.63 389.175 737.453 388.654C737.276 388.133 737.188 387.568 737.188 386.959ZM738.633 386.779V386.959C738.633 387.381 738.682 387.779 738.781 388.154C738.88 388.524 739.029 388.852 739.227 389.139C739.43 389.425 739.682 389.652 739.984 389.818C740.286 389.98 740.638 390.061 741.039 390.061C741.435 390.061 741.781 389.98 742.078 389.818C742.38 389.652 742.63 389.425 742.828 389.139C743.026 388.852 743.174 388.524 743.273 388.154C743.378 387.779 743.43 387.381 743.43 386.959V386.779C743.43 386.363 743.378 385.969 743.273 385.6C743.174 385.225 743.023 384.894 742.82 384.607C742.622 384.316 742.372 384.087 742.07 383.92C741.773 383.753 741.424 383.67 741.023 383.67C740.628 383.67 740.279 383.753 739.977 383.92C739.68 384.087 739.43 384.316 739.227 384.607C739.029 384.894 738.88 385.225 738.781 385.6C738.682 385.969 738.633 386.363 738.633 386.779ZM748.141 384.264V394.342H746.688V382.639H748.016L748.141 384.264ZM753.836 386.795V386.959C753.836 387.574 753.763 388.144 753.617 388.67C753.471 389.191 753.258 389.644 752.977 390.029C752.701 390.415 752.359 390.714 751.953 390.928C751.547 391.141 751.081 391.248 750.555 391.248C750.018 391.248 749.544 391.16 749.133 390.982C748.721 390.805 748.372 390.548 748.086 390.209C747.799 389.87 747.57 389.464 747.398 388.99C747.232 388.516 747.117 387.982 747.055 387.389V386.514C747.117 385.889 747.234 385.329 747.406 384.834C747.578 384.339 747.805 383.917 748.086 383.568C748.372 383.214 748.719 382.946 749.125 382.764C749.531 382.576 750 382.482 750.531 382.482C751.062 382.482 751.534 382.587 751.945 382.795C752.357 382.998 752.703 383.29 752.984 383.67C753.266 384.05 753.477 384.506 753.617 385.037C753.763 385.563 753.836 386.149 753.836 386.795ZM752.383 386.959V386.795C752.383 386.373 752.339 385.977 752.25 385.607C752.161 385.232 752.023 384.904 751.836 384.623C751.654 384.337 751.419 384.113 751.133 383.951C750.846 383.785 750.505 383.701 750.109 383.701C749.745 383.701 749.427 383.764 749.156 383.889C748.891 384.014 748.664 384.183 748.477 384.396C748.289 384.605 748.135 384.844 748.016 385.115C747.901 385.381 747.815 385.657 747.758 385.943V387.967C747.862 388.331 748.008 388.675 748.195 388.998C748.383 389.316 748.633 389.574 748.945 389.771C749.258 389.964 749.651 390.061 750.125 390.061C750.516 390.061 750.852 389.98 751.133 389.818C751.419 389.652 751.654 389.425 751.836 389.139C752.023 388.852 752.161 388.524 752.25 388.154C752.339 387.779 752.383 387.381 752.383 386.959ZM757.961 390.217L760.312 382.639H761.859L758.469 392.396C758.391 392.605 758.286 392.829 758.156 393.068C758.031 393.313 757.87 393.545 757.672 393.764C757.474 393.982 757.234 394.16 756.953 394.295C756.677 394.436 756.346 394.506 755.961 394.506C755.846 394.506 755.701 394.49 755.523 394.459C755.346 394.428 755.221 394.402 755.148 394.381L755.141 393.209C755.182 393.214 755.247 393.219 755.336 393.225C755.43 393.235 755.495 393.24 755.531 393.24C755.859 393.24 756.138 393.196 756.367 393.107C756.596 393.024 756.789 392.881 756.945 392.678C757.107 392.48 757.245 392.206 757.359 391.857L757.961 390.217ZM756.234 382.639L758.43 389.201L758.805 390.725L757.766 391.256L754.656 382.639H756.234ZM764.609 383.967V391.092H763.164V382.639H764.57L764.609 383.967ZM767.25 382.592L767.242 383.936C767.122 383.91 767.008 383.894 766.898 383.889C766.794 383.878 766.674 383.873 766.539 383.873C766.206 383.873 765.911 383.925 765.656 384.029C765.401 384.133 765.185 384.279 765.008 384.467C764.831 384.654 764.69 384.878 764.586 385.139C764.487 385.394 764.422 385.675 764.391 385.982L763.984 386.217C763.984 385.706 764.034 385.227 764.133 384.779C764.237 384.331 764.396 383.936 764.609 383.592C764.823 383.243 765.094 382.972 765.422 382.779C765.755 382.581 766.151 382.482 766.609 382.482C766.714 382.482 766.833 382.495 766.969 382.521C767.104 382.542 767.198 382.566 767.25 382.592ZM770.156 382.639V391.092H768.703V382.639H770.156ZM768.594 380.396C768.594 380.162 768.664 379.964 768.805 379.803C768.951 379.641 769.164 379.561 769.445 379.561C769.721 379.561 769.932 379.641 770.078 379.803C770.229 379.964 770.305 380.162 770.305 380.396C770.305 380.62 770.229 380.813 770.078 380.975C769.932 381.131 769.721 381.209 769.445 381.209C769.164 381.209 768.951 381.131 768.805 380.975C768.664 380.813 768.594 380.62 768.594 380.396ZM777.953 382.639H779.266V390.912C779.266 391.657 779.115 392.292 778.812 392.818C778.51 393.344 778.089 393.743 777.547 394.014C777.01 394.29 776.391 394.428 775.688 394.428C775.396 394.428 775.052 394.381 774.656 394.287C774.266 394.199 773.88 394.045 773.5 393.826C773.125 393.613 772.81 393.324 772.555 392.959L773.312 392.1C773.667 392.527 774.036 392.824 774.422 392.99C774.812 393.157 775.198 393.24 775.578 393.24C776.036 393.24 776.432 393.154 776.766 392.982C777.099 392.811 777.357 392.555 777.539 392.217C777.727 391.883 777.82 391.472 777.82 390.982V384.498L777.953 382.639ZM772.133 386.959V386.795C772.133 386.149 772.208 385.563 772.359 385.037C772.516 384.506 772.737 384.05 773.023 383.67C773.315 383.29 773.667 382.998 774.078 382.795C774.49 382.587 774.953 382.482 775.469 382.482C776 382.482 776.464 382.576 776.859 382.764C777.26 382.946 777.599 383.214 777.875 383.568C778.156 383.917 778.378 384.339 778.539 384.834C778.701 385.329 778.812 385.889 778.875 386.514V387.232C778.818 387.852 778.706 388.41 778.539 388.904C778.378 389.399 778.156 389.821 777.875 390.17C777.599 390.519 777.26 390.787 776.859 390.975C776.458 391.157 775.99 391.248 775.453 391.248C774.948 391.248 774.49 391.141 774.078 390.928C773.672 390.714 773.323 390.415 773.031 390.029C772.74 389.644 772.516 389.191 772.359 388.67C772.208 388.144 772.133 387.574 772.133 386.959ZM773.578 386.795V386.959C773.578 387.381 773.62 387.777 773.703 388.146C773.792 388.516 773.924 388.842 774.102 389.123C774.284 389.404 774.516 389.626 774.797 389.787C775.078 389.943 775.414 390.021 775.805 390.021C776.284 390.021 776.68 389.92 776.992 389.717C777.305 389.514 777.552 389.245 777.734 388.912C777.922 388.579 778.068 388.217 778.172 387.826V385.943C778.115 385.657 778.026 385.381 777.906 385.115C777.792 384.844 777.641 384.605 777.453 384.396C777.271 384.183 777.044 384.014 776.773 383.889C776.503 383.764 776.185 383.701 775.82 383.701C775.424 383.701 775.083 383.785 774.797 383.951C774.516 384.113 774.284 384.337 774.102 384.623C773.924 384.904 773.792 385.232 773.703 385.607C773.62 385.977 773.578 386.373 773.578 386.795ZM782.906 379.092V391.092H781.461V379.092H782.906ZM782.562 386.545L781.961 386.521C781.966 385.943 782.052 385.41 782.219 384.92C782.385 384.425 782.62 383.995 782.922 383.631C783.224 383.266 783.583 382.985 784 382.787C784.422 382.584 784.888 382.482 785.398 382.482C785.815 382.482 786.19 382.54 786.523 382.654C786.857 382.764 787.141 382.941 787.375 383.186C787.615 383.43 787.797 383.748 787.922 384.139C788.047 384.524 788.109 384.995 788.109 385.553V391.092H786.656V385.537C786.656 385.094 786.591 384.74 786.461 384.475C786.331 384.204 786.141 384.008 785.891 383.889C785.641 383.764 785.333 383.701 784.969 383.701C784.609 383.701 784.281 383.777 783.984 383.928C783.693 384.079 783.44 384.287 783.227 384.553C783.018 384.818 782.854 385.123 782.734 385.467C782.62 385.805 782.562 386.165 782.562 386.545ZM793.812 382.639V383.748H789.242V382.639H793.812ZM790.789 380.584H792.234V388.998C792.234 389.285 792.279 389.501 792.367 389.646C792.456 389.792 792.57 389.889 792.711 389.936C792.852 389.982 793.003 390.006 793.164 390.006C793.284 390.006 793.409 389.995 793.539 389.975C793.674 389.949 793.776 389.928 793.844 389.912L793.852 391.092C793.737 391.128 793.586 391.162 793.398 391.193C793.216 391.23 792.995 391.248 792.734 391.248C792.38 391.248 792.055 391.178 791.758 391.037C791.461 390.896 791.224 390.662 791.047 390.334C790.875 390.001 790.789 389.553 790.789 388.99V380.584ZM806.773 389.904V391.092H799.328V390.053L803.055 385.904C803.513 385.394 803.867 384.962 804.117 384.607C804.372 384.248 804.549 383.928 804.648 383.646C804.753 383.36 804.805 383.068 804.805 382.771C804.805 382.396 804.727 382.058 804.57 381.756C804.419 381.449 804.195 381.204 803.898 381.021C803.602 380.839 803.242 380.748 802.82 380.748C802.315 380.748 801.893 380.847 801.555 381.045C801.221 381.238 800.971 381.508 800.805 381.857C800.638 382.206 800.555 382.607 800.555 383.061H799.109C799.109 382.42 799.25 381.834 799.531 381.303C799.812 380.771 800.229 380.35 800.781 380.037C801.333 379.719 802.013 379.561 802.82 379.561C803.539 379.561 804.154 379.688 804.664 379.943C805.174 380.193 805.565 380.548 805.836 381.006C806.112 381.459 806.25 381.99 806.25 382.6C806.25 382.933 806.193 383.271 806.078 383.615C805.969 383.954 805.815 384.292 805.617 384.631C805.424 384.969 805.198 385.303 804.938 385.631C804.682 385.959 804.409 386.282 804.117 386.6L801.07 389.904H806.773ZM815.461 384.498V386.232C815.461 387.165 815.378 387.951 815.211 388.592C815.044 389.232 814.805 389.748 814.492 390.139C814.18 390.529 813.802 390.813 813.359 390.99C812.922 391.162 812.427 391.248 811.875 391.248C811.438 391.248 811.034 391.193 810.664 391.084C810.294 390.975 809.961 390.8 809.664 390.561C809.372 390.316 809.122 389.998 808.914 389.607C808.706 389.217 808.547 388.743 808.438 388.186C808.328 387.628 808.273 386.977 808.273 386.232V384.498C808.273 383.566 808.357 382.785 808.523 382.154C808.695 381.524 808.938 381.019 809.25 380.639C809.562 380.253 809.938 379.977 810.375 379.811C810.818 379.644 811.312 379.561 811.859 379.561C812.302 379.561 812.708 379.615 813.078 379.725C813.453 379.829 813.786 379.998 814.078 380.232C814.37 380.462 814.617 380.769 814.82 381.154C815.029 381.535 815.188 382.001 815.297 382.553C815.406 383.105 815.461 383.753 815.461 384.498ZM814.008 386.467V384.256C814.008 383.745 813.977 383.298 813.914 382.912C813.857 382.521 813.771 382.188 813.656 381.912C813.542 381.636 813.396 381.412 813.219 381.24C813.047 381.068 812.846 380.943 812.617 380.865C812.393 380.782 812.141 380.74 811.859 380.74C811.516 380.74 811.211 380.805 810.945 380.936C810.68 381.061 810.456 381.261 810.273 381.537C810.096 381.813 809.961 382.175 809.867 382.623C809.773 383.071 809.727 383.615 809.727 384.256V386.467C809.727 386.977 809.755 387.428 809.812 387.818C809.875 388.209 809.966 388.548 810.086 388.834C810.206 389.115 810.352 389.347 810.523 389.529C810.695 389.712 810.893 389.847 811.117 389.936C811.346 390.019 811.599 390.061 811.875 390.061C812.229 390.061 812.539 389.993 812.805 389.857C813.07 389.722 813.292 389.511 813.469 389.225C813.651 388.933 813.786 388.561 813.875 388.107C813.964 387.649 814.008 387.102 814.008 386.467ZM824.773 389.904V391.092H817.328V390.053L821.055 385.904C821.513 385.394 821.867 384.962 822.117 384.607C822.372 384.248 822.549 383.928 822.648 383.646C822.753 383.36 822.805 383.068 822.805 382.771C822.805 382.396 822.727 382.058 822.57 381.756C822.419 381.449 822.195 381.204 821.898 381.021C821.602 380.839 821.242 380.748 820.82 380.748C820.315 380.748 819.893 380.847 819.555 381.045C819.221 381.238 818.971 381.508 818.805 381.857C818.638 382.206 818.555 382.607 818.555 383.061H817.109C817.109 382.42 817.25 381.834 817.531 381.303C817.812 380.771 818.229 380.35 818.781 380.037C819.333 379.719 820.013 379.561 820.82 379.561C821.539 379.561 822.154 379.688 822.664 379.943C823.174 380.193 823.565 380.548 823.836 381.006C824.112 381.459 824.25 381.99 824.25 382.6C824.25 382.933 824.193 383.271 824.078 383.615C823.969 383.954 823.815 384.292 823.617 384.631C823.424 384.969 823.198 385.303 822.938 385.631C822.682 385.959 822.409 386.282 822.117 386.6L819.07 389.904H824.773ZM833.773 389.904V391.092H826.328V390.053L830.055 385.904C830.513 385.394 830.867 384.962 831.117 384.607C831.372 384.248 831.549 383.928 831.648 383.646C831.753 383.36 831.805 383.068 831.805 382.771C831.805 382.396 831.727 382.058 831.57 381.756C831.419 381.449 831.195 381.204 830.898 381.021C830.602 380.839 830.242 380.748 829.82 380.748C829.315 380.748 828.893 380.847 828.555 381.045C828.221 381.238 827.971 381.508 827.805 381.857C827.638 382.206 827.555 382.607 827.555 383.061H826.109C826.109 382.42 826.25 381.834 826.531 381.303C826.812 380.771 827.229 380.35 827.781 380.037C828.333 379.719 829.013 379.561 829.82 379.561C830.539 379.561 831.154 379.688 831.664 379.943C832.174 380.193 832.565 380.548 832.836 381.006C833.112 381.459 833.25 381.99 833.25 382.6C833.25 382.933 833.193 383.271 833.078 383.615C832.969 383.954 832.815 384.292 832.617 384.631C832.424 384.969 832.198 385.303 831.938 385.631C831.682 385.959 831.409 386.282 831.117 386.6L828.07 389.904H833.773ZM843.719 385.771H840.836L840.82 384.561H843.438C843.87 384.561 844.247 384.488 844.57 384.342C844.893 384.196 845.143 383.988 845.32 383.717C845.503 383.441 845.594 383.113 845.594 382.732C845.594 382.316 845.513 381.977 845.352 381.717C845.195 381.451 844.953 381.258 844.625 381.139C844.302 381.014 843.891 380.951 843.391 380.951H841.172V391.092H839.664V379.717H843.391C843.974 379.717 844.495 379.777 844.953 379.896C845.411 380.011 845.799 380.193 846.117 380.443C846.44 380.688 846.685 381.001 846.852 381.381C847.018 381.761 847.102 382.217 847.102 382.748C847.102 383.217 846.982 383.641 846.742 384.021C846.503 384.396 846.169 384.704 845.742 384.943C845.32 385.183 844.826 385.337 844.258 385.404L843.719 385.771ZM843.648 391.092H840.242L841.094 389.865H843.648C844.128 389.865 844.534 389.782 844.867 389.615C845.206 389.449 845.464 389.214 845.641 388.912C845.818 388.605 845.906 388.243 845.906 387.826C845.906 387.404 845.831 387.04 845.68 386.732C845.529 386.425 845.292 386.188 844.969 386.021C844.646 385.855 844.229 385.771 843.719 385.771H841.57L841.586 384.561H844.523L844.844 384.998C845.391 385.045 845.854 385.201 846.234 385.467C846.615 385.727 846.904 386.061 847.102 386.467C847.305 386.873 847.406 387.321 847.406 387.811C847.406 388.519 847.25 389.118 846.938 389.607C846.63 390.092 846.195 390.462 845.633 390.717C845.07 390.967 844.409 391.092 843.648 391.092ZM852.922 391.248C852.333 391.248 851.799 391.149 851.32 390.951C850.846 390.748 850.438 390.464 850.094 390.1C849.755 389.735 849.495 389.303 849.312 388.803C849.13 388.303 849.039 387.756 849.039 387.162V386.834C849.039 386.146 849.141 385.535 849.344 384.998C849.547 384.456 849.823 383.998 850.172 383.623C850.521 383.248 850.917 382.964 851.359 382.771C851.802 382.579 852.26 382.482 852.734 382.482C853.339 382.482 853.859 382.587 854.297 382.795C854.74 383.003 855.102 383.295 855.383 383.67C855.664 384.04 855.872 384.477 856.008 384.982C856.143 385.482 856.211 386.029 856.211 386.623V387.271H849.898V386.092H854.766V385.982C854.745 385.607 854.667 385.243 854.531 384.889C854.401 384.535 854.193 384.243 853.906 384.014C853.62 383.785 853.229 383.67 852.734 383.67C852.406 383.67 852.104 383.74 851.828 383.881C851.552 384.016 851.315 384.219 851.117 384.49C850.919 384.761 850.766 385.092 850.656 385.482C850.547 385.873 850.492 386.324 850.492 386.834V387.162C850.492 387.563 850.547 387.941 850.656 388.295C850.771 388.644 850.935 388.951 851.148 389.217C851.367 389.482 851.63 389.691 851.938 389.842C852.25 389.993 852.604 390.068 853 390.068C853.51 390.068 853.943 389.964 854.297 389.756C854.651 389.548 854.961 389.269 855.227 388.92L856.102 389.615C855.919 389.891 855.688 390.154 855.406 390.404C855.125 390.654 854.779 390.857 854.367 391.014C853.961 391.17 853.479 391.248 852.922 391.248ZM853.164 379.092L855.102 381.225V381.303H853.898L852.727 379.982L851.562 381.303H850.375V381.217L852.289 379.092H853.164ZM851.852 393.014C851.852 392.779 851.922 392.581 852.062 392.42C852.208 392.258 852.422 392.178 852.703 392.178C852.979 392.178 853.19 392.258 853.336 392.42C853.487 392.581 853.562 392.779 853.562 393.014C853.562 393.238 853.487 393.428 853.336 393.584C853.19 393.745 852.979 393.826 852.703 393.826C852.422 393.826 852.208 393.745 852.062 393.584C851.922 393.428 851.852 393.238 851.852 393.014ZM859.344 384.443V391.092H857.898V382.639H859.266L859.344 384.443ZM859 386.545L858.398 386.521C858.404 385.943 858.49 385.41 858.656 384.92C858.823 384.425 859.057 383.995 859.359 383.631C859.661 383.266 860.021 382.985 860.438 382.787C860.859 382.584 861.326 382.482 861.836 382.482C862.253 382.482 862.628 382.54 862.961 382.654C863.294 382.764 863.578 382.941 863.812 383.186C864.052 383.43 864.234 383.748 864.359 384.139C864.484 384.524 864.547 384.995 864.547 385.553V391.092H863.094V385.537C863.094 385.094 863.029 384.74 862.898 384.475C862.768 384.204 862.578 384.008 862.328 383.889C862.078 383.764 861.771 383.701 861.406 383.701C861.047 383.701 860.719 383.777 860.422 383.928C860.13 384.079 859.878 384.287 859.664 384.553C859.456 384.818 859.292 385.123 859.172 385.467C859.057 385.805 859 386.165 859 386.545ZM868.188 379.092V391.092H866.742V379.092H868.188ZM867.844 386.545L867.242 386.521C867.247 385.943 867.333 385.41 867.5 384.92C867.667 384.425 867.901 383.995 868.203 383.631C868.505 383.266 868.865 382.985 869.281 382.787C869.703 382.584 870.169 382.482 870.68 382.482C871.096 382.482 871.471 382.54 871.805 382.654C872.138 382.764 872.422 382.941 872.656 383.186C872.896 383.43 873.078 383.748 873.203 384.139C873.328 384.524 873.391 384.995 873.391 385.553V391.092H871.938V385.537C871.938 385.094 871.872 384.74 871.742 384.475C871.612 384.204 871.422 384.008 871.172 383.889C870.922 383.764 870.615 383.701 870.25 383.701C869.891 383.701 869.562 383.777 869.266 383.928C868.974 384.079 868.721 384.287 868.508 384.553C868.299 384.818 868.135 385.123 868.016 385.467C867.901 385.805 867.844 386.165 867.844 386.545ZM883.414 389.365L886.766 379.717H888.398L884.188 391.092H883.023L883.414 389.365ZM880.281 379.717L883.602 389.365L884.016 391.092H882.852L878.648 379.717H880.281ZM891.281 382.639V391.092H889.828V382.639H891.281ZM889.719 380.396C889.719 380.162 889.789 379.964 889.93 379.803C890.076 379.641 890.289 379.561 890.57 379.561C890.846 379.561 891.057 379.641 891.203 379.803C891.354 379.964 891.43 380.162 891.43 380.396C891.43 380.62 891.354 380.813 891.203 380.975C891.057 381.131 890.846 381.209 890.57 381.209C890.289 381.209 890.076 381.131 889.93 380.975C889.789 380.813 889.719 380.62 889.719 380.396ZM897.109 391.248C896.521 391.248 895.987 391.149 895.508 390.951C895.034 390.748 894.625 390.464 894.281 390.1C893.943 389.735 893.682 389.303 893.5 388.803C893.318 388.303 893.227 387.756 893.227 387.162V386.834C893.227 386.146 893.328 385.535 893.531 384.998C893.734 384.456 894.01 383.998 894.359 383.623C894.708 383.248 895.104 382.964 895.547 382.771C895.99 382.579 896.448 382.482 896.922 382.482C897.526 382.482 898.047 382.587 898.484 382.795C898.927 383.003 899.289 383.295 899.57 383.67C899.852 384.04 900.06 384.477 900.195 384.982C900.331 385.482 900.398 386.029 900.398 386.623V387.271H894.086V386.092H898.953V385.982C898.932 385.607 898.854 385.243 898.719 384.889C898.589 384.535 898.38 384.243 898.094 384.014C897.807 383.785 897.417 383.67 896.922 383.67C896.594 383.67 896.292 383.74 896.016 383.881C895.74 384.016 895.503 384.219 895.305 384.49C895.107 384.761 894.953 385.092 894.844 385.482C894.734 385.873 894.68 386.324 894.68 386.834V387.162C894.68 387.563 894.734 387.941 894.844 388.295C894.958 388.644 895.122 388.951 895.336 389.217C895.555 389.482 895.818 389.691 896.125 389.842C896.438 389.993 896.792 390.068 897.188 390.068C897.698 390.068 898.13 389.964 898.484 389.756C898.839 389.548 899.148 389.269 899.414 388.92L900.289 389.615C900.107 389.891 899.875 390.154 899.594 390.404C899.312 390.654 898.966 390.857 898.555 391.014C898.148 391.17 897.667 391.248 897.109 391.248ZM897.352 379.092L899.289 381.225V381.303H898.086L896.914 379.982L895.75 381.303H894.562V381.217L896.477 379.092H897.352ZM896.039 393.014C896.039 392.779 896.109 392.581 896.25 392.42C896.396 392.258 896.609 392.178 896.891 392.178C897.167 392.178 897.378 392.258 897.523 392.42C897.674 392.581 897.75 392.779 897.75 393.014C897.75 393.238 897.674 393.428 897.523 393.584C897.378 393.745 897.167 393.826 896.891 393.826C896.609 393.826 896.396 393.745 896.25 393.584C896.109 393.428 896.039 393.238 896.039 393.014ZM903.531 384.443V391.092H902.086V382.639H903.453L903.531 384.443ZM903.188 386.545L902.586 386.521C902.591 385.943 902.677 385.41 902.844 384.92C903.01 384.425 903.245 383.995 903.547 383.631C903.849 383.266 904.208 382.985 904.625 382.787C905.047 382.584 905.513 382.482 906.023 382.482C906.44 382.482 906.815 382.54 907.148 382.654C907.482 382.764 907.766 382.941 908 383.186C908.24 383.43 908.422 383.748 908.547 384.139C908.672 384.524 908.734 384.995 908.734 385.553V391.092H907.281V385.537C907.281 385.094 907.216 384.74 907.086 384.475C906.956 384.204 906.766 384.008 906.516 383.889C906.266 383.764 905.958 383.701 905.594 383.701C905.234 383.701 904.906 383.777 904.609 383.928C904.318 384.079 904.065 384.287 903.852 384.553C903.643 384.818 903.479 385.123 903.359 385.467C903.245 385.805 903.188 386.165 903.188 386.545ZM918.43 391.092H916.055L916.07 389.865H918.43C919.242 389.865 919.919 389.696 920.461 389.357C921.003 389.014 921.409 388.535 921.68 387.92C921.956 387.3 922.094 386.576 922.094 385.748V385.053C922.094 384.402 922.016 383.824 921.859 383.318C921.703 382.808 921.474 382.378 921.172 382.029C920.87 381.675 920.5 381.407 920.062 381.225C919.63 381.042 919.133 380.951 918.57 380.951H916.008V379.717H918.57C919.315 379.717 919.995 379.842 920.609 380.092C921.224 380.337 921.753 380.693 922.195 381.162C922.643 381.626 922.987 382.188 923.227 382.85C923.466 383.506 923.586 384.245 923.586 385.068V385.748C923.586 386.571 923.466 387.313 923.227 387.975C922.987 388.631 922.641 389.191 922.188 389.654C921.74 390.118 921.198 390.475 920.562 390.725C919.932 390.969 919.221 391.092 918.43 391.092ZM916.859 379.717V391.092H915.352V379.717H916.859ZM919.062 384.709V385.896H914.086V384.709H919.062ZM930.617 389.646V385.295C930.617 384.962 930.549 384.673 930.414 384.428C930.284 384.178 930.086 383.985 929.82 383.85C929.555 383.714 929.227 383.646 928.836 383.646C928.471 383.646 928.151 383.709 927.875 383.834C927.604 383.959 927.391 384.123 927.234 384.326C927.083 384.529 927.008 384.748 927.008 384.982H925.562C925.562 384.68 925.641 384.381 925.797 384.084C925.953 383.787 926.177 383.519 926.469 383.279C926.766 383.035 927.12 382.842 927.531 382.701C927.948 382.555 928.411 382.482 928.922 382.482C929.536 382.482 930.078 382.587 930.547 382.795C931.021 383.003 931.391 383.318 931.656 383.74C931.927 384.157 932.062 384.68 932.062 385.311V389.248C932.062 389.529 932.086 389.829 932.133 390.146C932.185 390.464 932.26 390.738 932.359 390.967V391.092H930.852C930.779 390.925 930.721 390.704 930.68 390.428C930.638 390.146 930.617 389.886 930.617 389.646ZM930.867 385.967L930.883 386.982H929.422C929.01 386.982 928.643 387.016 928.32 387.084C927.997 387.146 927.727 387.243 927.508 387.373C927.289 387.503 927.122 387.667 927.008 387.865C926.893 388.058 926.836 388.285 926.836 388.545C926.836 388.811 926.896 389.053 927.016 389.271C927.135 389.49 927.315 389.665 927.555 389.795C927.799 389.92 928.099 389.982 928.453 389.982C928.896 389.982 929.286 389.889 929.625 389.701C929.964 389.514 930.232 389.285 930.43 389.014C930.633 388.743 930.742 388.48 930.758 388.225L931.375 388.92C931.339 389.139 931.24 389.381 931.078 389.646C930.917 389.912 930.701 390.167 930.43 390.412C930.164 390.652 929.846 390.852 929.477 391.014C929.112 391.17 928.701 391.248 928.242 391.248C927.669 391.248 927.167 391.136 926.734 390.912C926.307 390.688 925.974 390.389 925.734 390.014C925.5 389.633 925.383 389.209 925.383 388.74C925.383 388.287 925.471 387.889 925.648 387.545C925.826 387.196 926.081 386.907 926.414 386.678C926.747 386.443 927.148 386.266 927.617 386.146C928.086 386.027 928.609 385.967 929.188 385.967H930.867ZM939.758 379.092V391.092H938.305V379.092H939.758ZM944.922 382.639L941.234 386.584L939.172 388.725L939.055 387.186L940.531 385.42L943.156 382.639H944.922ZM943.602 391.092L940.586 387.061L941.336 385.771L945.305 391.092H943.602ZM947.859 379.092V391.092H946.414V379.092H947.859ZM947.516 386.545L946.914 386.521C946.919 385.943 947.005 385.41 947.172 384.92C947.339 384.425 947.573 383.995 947.875 383.631C948.177 383.266 948.536 382.985 948.953 382.787C949.375 382.584 949.841 382.482 950.352 382.482C950.768 382.482 951.143 382.54 951.477 382.654C951.81 382.764 952.094 382.941 952.328 383.186C952.568 383.43 952.75 383.748 952.875 384.139C953 384.524 953.062 384.995 953.062 385.553V391.092H951.609V385.537C951.609 385.094 951.544 384.74 951.414 384.475C951.284 384.204 951.094 384.008 950.844 383.889C950.594 383.764 950.286 383.701 949.922 383.701C949.562 383.701 949.234 383.777 948.938 383.928C948.646 384.079 948.393 384.287 948.18 384.553C947.971 384.818 947.807 385.123 947.688 385.467C947.573 385.805 947.516 386.165 947.516 386.545ZM954.844 386.959V386.779C954.844 386.17 954.932 385.605 955.109 385.084C955.286 384.558 955.542 384.102 955.875 383.717C956.208 383.326 956.612 383.024 957.086 382.811C957.56 382.592 958.091 382.482 958.68 382.482C959.273 382.482 959.807 382.592 960.281 382.811C960.76 383.024 961.167 383.326 961.5 383.717C961.839 384.102 962.096 384.558 962.273 385.084C962.451 385.605 962.539 386.17 962.539 386.779V386.959C962.539 387.568 962.451 388.133 962.273 388.654C962.096 389.175 961.839 389.631 961.5 390.021C961.167 390.407 960.763 390.709 960.289 390.928C959.82 391.141 959.289 391.248 958.695 391.248C958.102 391.248 957.568 391.141 957.094 390.928C956.62 390.709 956.214 390.407 955.875 390.021C955.542 389.631 955.286 389.175 955.109 388.654C954.932 388.133 954.844 387.568 954.844 386.959ZM956.289 386.779V386.959C956.289 387.381 956.339 387.779 956.438 388.154C956.536 388.524 956.685 388.852 956.883 389.139C957.086 389.425 957.339 389.652 957.641 389.818C957.943 389.98 958.294 390.061 958.695 390.061C959.091 390.061 959.438 389.98 959.734 389.818C960.036 389.652 960.286 389.425 960.484 389.139C960.682 388.852 960.831 388.524 960.93 388.154C961.034 387.779 961.086 387.381 961.086 386.959V386.779C961.086 386.363 961.034 385.969 960.93 385.6C960.831 385.225 960.68 384.894 960.477 384.607C960.279 384.316 960.029 384.087 959.727 383.92C959.43 383.753 959.081 383.67 958.68 383.67C958.284 383.67 957.935 383.753 957.633 383.92C957.336 384.087 957.086 384.316 956.883 384.607C956.685 384.894 956.536 385.225 956.438 385.6C956.339 385.969 956.289 386.363 956.289 386.779ZM969.336 389.646V385.295C969.336 384.962 969.268 384.673 969.133 384.428C969.003 384.178 968.805 383.985 968.539 383.85C968.273 383.714 967.945 383.646 967.555 383.646C967.19 383.646 966.87 383.709 966.594 383.834C966.323 383.959 966.109 384.123 965.953 384.326C965.802 384.529 965.727 384.748 965.727 384.982H964.281C964.281 384.68 964.359 384.381 964.516 384.084C964.672 383.787 964.896 383.519 965.188 383.279C965.484 383.035 965.839 382.842 966.25 382.701C966.667 382.555 967.13 382.482 967.641 382.482C968.255 382.482 968.797 382.587 969.266 382.795C969.74 383.003 970.109 383.318 970.375 383.74C970.646 384.157 970.781 384.68 970.781 385.311V389.248C970.781 389.529 970.805 389.829 970.852 390.146C970.904 390.464 970.979 390.738 971.078 390.967V391.092H969.57C969.497 390.925 969.44 390.704 969.398 390.428C969.357 390.146 969.336 389.886 969.336 389.646ZM969.586 385.967L969.602 386.982H968.141C967.729 386.982 967.362 387.016 967.039 387.084C966.716 387.146 966.445 387.243 966.227 387.373C966.008 387.503 965.841 387.667 965.727 387.865C965.612 388.058 965.555 388.285 965.555 388.545C965.555 388.811 965.615 389.053 965.734 389.271C965.854 389.49 966.034 389.665 966.273 389.795C966.518 389.92 966.818 389.982 967.172 389.982C967.615 389.982 968.005 389.889 968.344 389.701C968.682 389.514 968.951 389.285 969.148 389.014C969.352 388.743 969.461 388.48 969.477 388.225L970.094 388.92C970.057 389.139 969.958 389.381 969.797 389.646C969.635 389.912 969.419 390.167 969.148 390.412C968.883 390.652 968.565 390.852 968.195 391.014C967.831 391.17 967.419 391.248 966.961 391.248C966.388 391.248 965.885 391.136 965.453 390.912C965.026 390.688 964.693 390.389 964.453 390.014C964.219 389.633 964.102 389.209 964.102 388.74C964.102 388.287 964.19 387.889 964.367 387.545C964.544 387.196 964.799 386.907 965.133 386.678C965.466 386.443 965.867 386.266 966.336 386.146C966.805 386.027 967.328 385.967 967.906 385.967H969.586ZM981.438 386.631H978.398V385.404H981.438C982.026 385.404 982.503 385.311 982.867 385.123C983.232 384.936 983.497 384.675 983.664 384.342C983.836 384.008 983.922 383.628 983.922 383.201C983.922 382.811 983.836 382.443 983.664 382.1C983.497 381.756 983.232 381.48 982.867 381.271C982.503 381.058 982.026 380.951 981.438 380.951H978.75V391.092H977.242V379.717H981.438C982.297 379.717 983.023 379.865 983.617 380.162C984.211 380.459 984.661 380.87 984.969 381.396C985.276 381.917 985.43 382.514 985.43 383.186C985.43 383.915 985.276 384.537 984.969 385.053C984.661 385.568 984.211 385.962 983.617 386.232C983.023 386.498 982.297 386.631 981.438 386.631ZM988.562 379.092V391.092H987.117V379.092H988.562ZM988.219 386.545L987.617 386.521C987.622 385.943 987.708 385.41 987.875 384.92C988.042 384.425 988.276 383.995 988.578 383.631C988.88 383.266 989.24 382.985 989.656 382.787C990.078 382.584 990.544 382.482 991.055 382.482C991.471 382.482 991.846 382.54 992.18 382.654C992.513 382.764 992.797 382.941 993.031 383.186C993.271 383.43 993.453 383.748 993.578 384.139C993.703 384.524 993.766 384.995 993.766 385.553V391.092H992.312V385.537C992.312 385.094 992.247 384.74 992.117 384.475C991.987 384.204 991.797 384.008 991.547 383.889C991.297 383.764 990.99 383.701 990.625 383.701C990.266 383.701 989.938 383.777 989.641 383.928C989.349 384.079 989.096 384.287 988.883 384.553C988.674 384.818 988.51 385.123 988.391 385.467C988.276 385.805 988.219 386.165 988.219 386.545ZM1003.84 381.959H1004.95C1004.95 382.527 1004.88 383.003 1004.73 383.389C1004.58 383.774 1004.32 384.063 1003.95 384.256C1003.58 384.449 1003.06 384.545 1002.39 384.545V383.654C1002.86 383.654 1003.2 383.597 1003.4 383.482C1003.6 383.363 1003.73 383.178 1003.77 382.928C1003.82 382.678 1003.84 382.355 1003.84 381.959ZM1001.1 389.139V382.639H1002.55V391.092H1001.17L1001.1 389.139ZM1001.38 387.357L1001.98 387.342C1001.98 387.904 1001.92 388.425 1001.8 388.904C1001.68 389.378 1001.49 389.79 1001.23 390.139C1000.97 390.488 1000.63 390.761 1000.21 390.959C999.789 391.152 999.276 391.248 998.672 391.248C998.26 391.248 997.883 391.188 997.539 391.068C997.201 390.949 996.909 390.764 996.664 390.514C996.419 390.264 996.229 389.938 996.094 389.537C995.964 389.136 995.898 388.654 995.898 388.092V382.639H997.344V388.107C997.344 388.488 997.385 388.803 997.469 389.053C997.557 389.298 997.674 389.493 997.82 389.639C997.971 389.779 998.138 389.878 998.32 389.936C998.508 389.993 998.701 390.021 998.898 390.021C999.513 390.021 1000 389.904 1000.36 389.67C1000.72 389.43 1000.98 389.11 1001.13 388.709C1001.29 388.303 1001.38 387.852 1001.38 387.357ZM1013.02 381.709H1014.19C1014.19 382.282 1014.11 382.777 1013.95 383.193C1013.8 383.605 1013.54 383.923 1013.17 384.146C1012.81 384.37 1012.31 384.482 1011.69 384.482V383.576C1012.08 383.576 1012.37 383.498 1012.55 383.342C1012.75 383.186 1012.87 382.967 1012.93 382.686C1012.99 382.404 1013.02 382.079 1013.02 381.709ZM1005.45 386.959V386.779C1005.45 386.17 1005.54 385.605 1005.72 385.084C1005.9 384.558 1006.15 384.102 1006.48 383.717C1006.82 383.326 1007.22 383.024 1007.7 382.811C1008.17 382.592 1008.7 382.482 1009.29 382.482C1009.88 382.482 1010.42 382.592 1010.89 382.811C1011.37 383.024 1011.78 383.326 1012.11 383.717C1012.44 384.102 1012.7 384.558 1012.88 385.084C1013.05 385.605 1013.14 386.17 1013.14 386.779V386.959C1013.14 387.568 1013.05 388.133 1012.88 388.654C1012.7 389.175 1012.44 389.631 1012.11 390.021C1011.78 390.407 1011.37 390.709 1010.9 390.928C1010.43 391.141 1009.9 391.248 1009.3 391.248C1008.71 391.248 1008.18 391.141 1007.7 390.928C1007.23 390.709 1006.82 390.407 1006.48 390.021C1006.15 389.631 1005.9 389.175 1005.72 388.654C1005.54 388.133 1005.45 387.568 1005.45 386.959ZM1006.9 386.779V386.959C1006.9 387.381 1006.95 387.779 1007.05 388.154C1007.15 388.524 1007.29 388.852 1007.49 389.139C1007.7 389.425 1007.95 389.652 1008.25 389.818C1008.55 389.98 1008.9 390.061 1009.3 390.061C1009.7 390.061 1010.05 389.98 1010.34 389.818C1010.65 389.652 1010.9 389.425 1011.09 389.139C1011.29 388.852 1011.44 388.524 1011.54 388.154C1011.64 387.779 1011.7 387.381 1011.7 386.959V386.779C1011.7 386.363 1011.64 385.969 1011.54 385.6C1011.44 385.225 1011.29 384.894 1011.09 384.607C1010.89 384.316 1010.64 384.087 1010.34 383.92C1010.04 383.753 1009.69 383.67 1009.29 383.67C1008.89 383.67 1008.54 383.753 1008.24 383.92C1007.95 384.087 1007.7 384.316 1007.49 384.607C1007.29 384.894 1007.15 385.225 1007.05 385.6C1006.95 385.969 1006.9 386.363 1006.9 386.779ZM1016.44 384.443V391.092H1014.99V382.639H1016.36L1016.44 384.443ZM1016.09 386.545L1015.49 386.521C1015.5 385.943 1015.58 385.41 1015.75 384.92C1015.92 384.425 1016.15 383.995 1016.45 383.631C1016.76 383.266 1017.11 382.985 1017.53 382.787C1017.95 382.584 1018.42 382.482 1018.93 382.482C1019.35 382.482 1019.72 382.54 1020.05 382.654C1020.39 382.764 1020.67 382.941 1020.91 383.186C1021.15 383.43 1021.33 383.748 1021.45 384.139C1021.58 384.524 1021.64 384.995 1021.64 385.553V391.092H1020.19V385.537C1020.19 385.094 1020.12 384.74 1019.99 384.475C1019.86 384.204 1019.67 384.008 1019.42 383.889C1019.17 383.764 1018.86 383.701 1018.5 383.701C1018.14 383.701 1017.81 383.777 1017.52 383.928C1017.22 384.079 1016.97 384.287 1016.76 384.553C1016.55 384.818 1016.39 385.123 1016.27 385.467C1016.15 385.805 1016.09 386.165 1016.09 386.545ZM1029.31 382.639H1030.62V390.912C1030.62 391.657 1030.47 392.292 1030.17 392.818C1029.87 393.344 1029.45 393.743 1028.91 394.014C1028.37 394.29 1027.75 394.428 1027.05 394.428C1026.76 394.428 1026.41 394.381 1026.02 394.287C1025.62 394.199 1025.24 394.045 1024.86 393.826C1024.48 393.613 1024.17 393.324 1023.91 392.959L1024.67 392.1C1025.03 392.527 1025.4 392.824 1025.78 392.99C1026.17 393.157 1026.56 393.24 1026.94 393.24C1027.4 393.24 1027.79 393.154 1028.12 392.982C1028.46 392.811 1028.72 392.555 1028.9 392.217C1029.09 391.883 1029.18 391.472 1029.18 390.982V384.498L1029.31 382.639ZM1023.49 386.959V386.795C1023.49 386.149 1023.57 385.563 1023.72 385.037C1023.88 384.506 1024.1 384.05 1024.38 383.67C1024.67 383.29 1025.03 382.998 1025.44 382.795C1025.85 382.587 1026.31 382.482 1026.83 382.482C1027.36 382.482 1027.82 382.576 1028.22 382.764C1028.62 382.946 1028.96 383.214 1029.23 383.568C1029.52 383.917 1029.74 384.339 1029.9 384.834C1030.06 385.329 1030.17 385.889 1030.23 386.514V387.232C1030.18 387.852 1030.07 388.41 1029.9 388.904C1029.74 389.399 1029.52 389.821 1029.23 390.17C1028.96 390.519 1028.62 390.787 1028.22 390.975C1027.82 391.157 1027.35 391.248 1026.81 391.248C1026.31 391.248 1025.85 391.141 1025.44 390.928C1025.03 390.714 1024.68 390.415 1024.39 390.029C1024.1 389.644 1023.88 389.191 1023.72 388.67C1023.57 388.144 1023.49 387.574 1023.49 386.959ZM1024.94 386.795V386.959C1024.94 387.381 1024.98 387.777 1025.06 388.146C1025.15 388.516 1025.28 388.842 1025.46 389.123C1025.64 389.404 1025.88 389.626 1026.16 389.787C1026.44 389.943 1026.77 390.021 1027.16 390.021C1027.64 390.021 1028.04 389.92 1028.35 389.717C1028.66 389.514 1028.91 389.245 1029.09 388.912C1029.28 388.579 1029.43 388.217 1029.53 387.826V385.943C1029.47 385.657 1029.39 385.381 1029.27 385.115C1029.15 384.844 1029 384.605 1028.81 384.396C1028.63 384.183 1028.4 384.014 1028.13 383.889C1027.86 383.764 1027.54 383.701 1027.18 383.701C1026.78 383.701 1026.44 383.785 1026.16 383.951C1025.88 384.113 1025.64 384.337 1025.46 384.623C1025.28 384.904 1025.15 385.232 1025.06 385.607C1024.98 385.977 1024.94 386.373 1024.94 386.795ZM1040.32 391.092H1037.95L1037.96 389.865H1040.32C1041.13 389.865 1041.81 389.696 1042.35 389.357C1042.89 389.014 1043.3 388.535 1043.57 387.92C1043.85 387.3 1043.98 386.576 1043.98 385.748V385.053C1043.98 384.402 1043.91 383.824 1043.75 383.318C1043.59 382.808 1043.36 382.378 1043.06 382.029C1042.76 381.675 1042.39 381.407 1041.95 381.225C1041.52 381.042 1041.02 380.951 1040.46 380.951H1037.9V379.717H1040.46C1041.21 379.717 1041.89 379.842 1042.5 380.092C1043.11 380.337 1043.64 380.693 1044.09 381.162C1044.53 381.626 1044.88 382.188 1045.12 382.85C1045.36 383.506 1045.48 384.245 1045.48 385.068V385.748C1045.48 386.571 1045.36 387.313 1045.12 387.975C1044.88 388.631 1044.53 389.191 1044.08 389.654C1043.63 390.118 1043.09 390.475 1042.45 390.725C1041.82 390.969 1041.11 391.092 1040.32 391.092ZM1038.75 379.717V391.092H1037.24V379.717H1038.75ZM1040.95 384.709V385.896H1035.98V384.709H1040.95ZM1047.14 386.959V386.779C1047.14 386.17 1047.23 385.605 1047.41 385.084C1047.58 384.558 1047.84 384.102 1048.17 383.717C1048.51 383.326 1048.91 383.024 1049.38 382.811C1049.86 382.592 1050.39 382.482 1050.98 382.482C1051.57 382.482 1052.1 382.592 1052.58 382.811C1053.06 383.024 1053.46 383.326 1053.8 383.717C1054.14 384.102 1054.39 384.558 1054.57 385.084C1054.75 385.605 1054.84 386.17 1054.84 386.779V386.959C1054.84 387.568 1054.75 388.133 1054.57 388.654C1054.39 389.175 1054.14 389.631 1053.8 390.021C1053.46 390.407 1053.06 390.709 1052.59 390.928C1052.12 391.141 1051.59 391.248 1050.99 391.248C1050.4 391.248 1049.86 391.141 1049.39 390.928C1048.92 390.709 1048.51 390.407 1048.17 390.021C1047.84 389.631 1047.58 389.175 1047.41 388.654C1047.23 388.133 1047.14 387.568 1047.14 386.959ZM1048.59 386.779V386.959C1048.59 387.381 1048.64 387.779 1048.73 388.154C1048.83 388.524 1048.98 388.852 1049.18 389.139C1049.38 389.425 1049.64 389.652 1049.94 389.818C1050.24 389.98 1050.59 390.061 1050.99 390.061C1051.39 390.061 1051.73 389.98 1052.03 389.818C1052.33 389.652 1052.58 389.425 1052.78 389.139C1052.98 388.852 1053.13 388.524 1053.23 388.154C1053.33 387.779 1053.38 387.381 1053.38 386.959V386.779C1053.38 386.363 1053.33 385.969 1053.23 385.6C1053.13 385.225 1052.98 384.894 1052.77 384.607C1052.58 384.316 1052.33 384.087 1052.02 383.92C1051.73 383.753 1051.38 383.67 1050.98 383.67C1050.58 383.67 1050.23 383.753 1049.93 383.92C1049.63 384.087 1049.38 384.316 1049.18 384.607C1048.98 384.894 1048.83 385.225 1048.73 385.6C1048.64 385.969 1048.59 386.363 1048.59 386.779ZM1051.35 379.092L1053.29 381.225V381.303H1052.09L1050.91 379.982L1049.75 381.303H1048.56V381.217L1050.48 379.092H1051.35ZM1058.09 384.443V391.092H1056.65V382.639H1058.02L1058.09 384.443ZM1057.75 386.545L1057.15 386.521C1057.15 385.943 1057.24 385.41 1057.41 384.92C1057.57 384.425 1057.81 383.995 1058.11 383.631C1058.41 383.266 1058.77 382.985 1059.19 382.787C1059.61 382.584 1060.08 382.482 1060.59 382.482C1061 382.482 1061.38 382.54 1061.71 382.654C1062.04 382.764 1062.33 382.941 1062.56 383.186C1062.8 383.43 1062.98 383.748 1063.11 384.139C1063.23 384.524 1063.3 384.995 1063.3 385.553V391.092H1061.84V385.537C1061.84 385.094 1061.78 384.74 1061.65 384.475C1061.52 384.204 1061.33 384.008 1061.08 383.889C1060.83 383.764 1060.52 383.701 1060.16 383.701C1059.8 383.701 1059.47 383.777 1059.17 383.928C1058.88 384.079 1058.63 384.287 1058.41 384.553C1058.21 384.818 1058.04 385.123 1057.92 385.467C1057.81 385.805 1057.75 386.165 1057.75 386.545ZM1070.97 382.639H1072.28V390.912C1072.28 391.657 1072.13 392.292 1071.83 392.818C1071.53 393.344 1071.1 393.743 1070.56 394.014C1070.03 394.29 1069.41 394.428 1068.7 394.428C1068.41 394.428 1068.07 394.381 1067.67 394.287C1067.28 394.199 1066.9 394.045 1066.52 393.826C1066.14 393.613 1065.83 393.324 1065.57 392.959L1066.33 392.1C1066.68 392.527 1067.05 392.824 1067.44 392.99C1067.83 393.157 1068.21 393.24 1068.59 393.24C1069.05 393.24 1069.45 393.154 1069.78 392.982C1070.11 392.811 1070.37 392.555 1070.55 392.217C1070.74 391.883 1070.84 391.472 1070.84 390.982V384.498L1070.97 382.639ZM1065.15 386.959V386.795C1065.15 386.149 1065.22 385.563 1065.38 385.037C1065.53 384.506 1065.75 384.05 1066.04 383.67C1066.33 383.29 1066.68 382.998 1067.09 382.795C1067.51 382.587 1067.97 382.482 1068.48 382.482C1069.02 382.482 1069.48 382.576 1069.88 382.764C1070.28 382.946 1070.61 383.214 1070.89 383.568C1071.17 383.917 1071.39 384.339 1071.55 384.834C1071.72 385.329 1071.83 385.889 1071.89 386.514V387.232C1071.83 387.852 1071.72 388.41 1071.55 388.904C1071.39 389.399 1071.17 389.821 1070.89 390.17C1070.61 390.519 1070.28 390.787 1069.88 390.975C1069.47 391.157 1069.01 391.248 1068.47 391.248C1067.96 391.248 1067.51 391.141 1067.09 390.928C1066.69 390.714 1066.34 390.415 1066.05 390.029C1065.76 389.644 1065.53 389.191 1065.38 388.67C1065.22 388.144 1065.15 387.574 1065.15 386.959ZM1066.59 386.795V386.959C1066.59 387.381 1066.64 387.777 1066.72 388.146C1066.81 388.516 1066.94 388.842 1067.12 389.123C1067.3 389.404 1067.53 389.626 1067.81 389.787C1068.09 389.943 1068.43 390.021 1068.82 390.021C1069.3 390.021 1069.7 389.92 1070.01 389.717C1070.32 389.514 1070.57 389.245 1070.75 388.912C1070.94 388.579 1071.08 388.217 1071.19 387.826V385.943C1071.13 385.657 1071.04 385.381 1070.92 385.115C1070.81 384.844 1070.66 384.605 1070.47 384.396C1070.29 384.183 1070.06 384.014 1069.79 383.889C1069.52 383.764 1069.2 383.701 1068.84 383.701C1068.44 383.701 1068.1 383.785 1067.81 383.951C1067.53 384.113 1067.3 384.337 1067.12 384.623C1066.94 384.904 1066.81 385.232 1066.72 385.607C1066.64 385.977 1066.59 386.373 1066.59 386.795ZM1074.5 390.326C1074.5 390.081 1074.58 389.876 1074.73 389.709C1074.88 389.537 1075.11 389.451 1075.4 389.451C1075.69 389.451 1075.91 389.537 1076.06 389.709C1076.22 389.876 1076.3 390.081 1076.3 390.326C1076.3 390.566 1076.22 390.769 1076.06 390.936C1075.91 391.102 1075.69 391.186 1075.4 391.186C1075.11 391.186 1074.88 391.102 1074.73 390.936C1074.58 390.769 1074.5 390.566 1074.5 390.326ZM1087.09 380.725L1083.33 391.092H1081.79L1086.12 379.717H1087.12L1087.09 380.725ZM1090.25 391.092L1086.48 380.725L1086.45 379.717H1087.45L1091.8 391.092H1090.25ZM1090.05 386.881V388.115H1083.66V386.881H1090.05ZM1094.67 379.092V391.092H1093.22V379.092H1094.67ZM1098.56 379.092V391.092H1097.11V379.092H1098.56ZM1106.3 383.967V391.092H1104.85V382.639H1106.26L1106.3 383.967ZM1108.94 382.592L1108.93 383.936C1108.81 383.91 1108.7 383.894 1108.59 383.889C1108.48 383.878 1108.36 383.873 1108.23 383.873C1107.89 383.873 1107.6 383.925 1107.34 384.029C1107.09 384.133 1106.87 384.279 1106.7 384.467C1106.52 384.654 1106.38 384.878 1106.27 385.139C1106.17 385.394 1106.11 385.675 1106.08 385.982L1105.67 386.217C1105.67 385.706 1105.72 385.227 1105.82 384.779C1105.92 384.331 1106.08 383.936 1106.3 383.592C1106.51 383.243 1106.78 382.972 1107.11 382.779C1107.44 382.581 1107.84 382.482 1108.3 382.482C1108.4 382.482 1108.52 382.495 1108.66 382.521C1108.79 382.542 1108.89 382.566 1108.94 382.592ZM1111.84 382.639V391.092H1110.39V382.639H1111.84ZM1110.28 380.396C1110.28 380.162 1110.35 379.964 1110.49 379.803C1110.64 379.641 1110.85 379.561 1111.13 379.561C1111.41 379.561 1111.62 379.641 1111.77 379.803C1111.92 379.964 1111.99 380.162 1111.99 380.396C1111.99 380.62 1111.92 380.813 1111.77 380.975C1111.62 381.131 1111.41 381.209 1111.13 381.209C1110.85 381.209 1110.64 381.131 1110.49 380.975C1110.35 380.813 1110.28 380.62 1110.28 380.396ZM1119.64 382.639H1120.95V390.912C1120.95 391.657 1120.8 392.292 1120.5 392.818C1120.2 393.344 1119.78 393.743 1119.23 394.014C1118.7 394.29 1118.08 394.428 1117.38 394.428C1117.08 394.428 1116.74 394.381 1116.34 394.287C1115.95 394.199 1115.57 394.045 1115.19 393.826C1114.81 393.613 1114.5 393.324 1114.24 392.959L1115 392.1C1115.35 392.527 1115.72 392.824 1116.11 392.99C1116.5 393.157 1116.89 393.24 1117.27 393.24C1117.72 393.24 1118.12 393.154 1118.45 392.982C1118.79 392.811 1119.04 392.555 1119.23 392.217C1119.41 391.883 1119.51 391.472 1119.51 390.982V384.498L1119.64 382.639ZM1113.82 386.959V386.795C1113.82 386.149 1113.9 385.563 1114.05 385.037C1114.2 384.506 1114.42 384.05 1114.71 383.67C1115 383.29 1115.35 382.998 1115.77 382.795C1116.18 382.587 1116.64 382.482 1117.16 382.482C1117.69 382.482 1118.15 382.576 1118.55 382.764C1118.95 382.946 1119.29 383.214 1119.56 383.568C1119.84 383.917 1120.07 384.339 1120.23 384.834C1120.39 385.329 1120.5 385.889 1120.56 386.514V387.232C1120.51 387.852 1120.39 388.41 1120.23 388.904C1120.07 389.399 1119.84 389.821 1119.56 390.17C1119.29 390.519 1118.95 390.787 1118.55 390.975C1118.15 391.157 1117.68 391.248 1117.14 391.248C1116.64 391.248 1116.18 391.141 1115.77 390.928C1115.36 390.714 1115.01 390.415 1114.72 390.029C1114.43 389.644 1114.2 389.191 1114.05 388.67C1113.9 388.144 1113.82 387.574 1113.82 386.959ZM1115.27 386.795V386.959C1115.27 387.381 1115.31 387.777 1115.39 388.146C1115.48 388.516 1115.61 388.842 1115.79 389.123C1115.97 389.404 1116.2 389.626 1116.48 389.787C1116.77 389.943 1117.1 390.021 1117.49 390.021C1117.97 390.021 1118.37 389.92 1118.68 389.717C1118.99 389.514 1119.24 389.245 1119.42 388.912C1119.61 388.579 1119.76 388.217 1119.86 387.826V385.943C1119.8 385.657 1119.71 385.381 1119.59 385.115C1119.48 384.844 1119.33 384.605 1119.14 384.396C1118.96 384.183 1118.73 384.014 1118.46 383.889C1118.19 383.764 1117.87 383.701 1117.51 383.701C1117.11 383.701 1116.77 383.785 1116.48 383.951C1116.2 384.113 1115.97 384.337 1115.79 384.623C1115.61 384.904 1115.48 385.232 1115.39 385.607C1115.31 385.977 1115.27 386.373 1115.27 386.795ZM1124.59 379.092V391.092H1123.15V379.092H1124.59ZM1124.25 386.545L1123.65 386.521C1123.65 385.943 1123.74 385.41 1123.91 384.92C1124.07 384.425 1124.31 383.995 1124.61 383.631C1124.91 383.266 1125.27 382.985 1125.69 382.787C1126.11 382.584 1126.58 382.482 1127.09 382.482C1127.5 382.482 1127.88 382.54 1128.21 382.654C1128.54 382.764 1128.83 382.941 1129.06 383.186C1129.3 383.43 1129.48 383.748 1129.61 384.139C1129.73 384.524 1129.8 384.995 1129.8 385.553V391.092H1128.34V385.537C1128.34 385.094 1128.28 384.74 1128.15 384.475C1128.02 384.204 1127.83 384.008 1127.58 383.889C1127.33 383.764 1127.02 383.701 1126.66 383.701C1126.3 383.701 1125.97 383.777 1125.67 383.928C1125.38 384.079 1125.13 384.287 1124.91 384.553C1124.71 384.818 1124.54 385.123 1124.42 385.467C1124.31 385.805 1124.25 386.165 1124.25 386.545ZM1135.5 382.639V383.748H1130.93V382.639H1135.5ZM1132.48 380.584H1133.92V388.998C1133.92 389.285 1133.97 389.501 1134.05 389.646C1134.14 389.792 1134.26 389.889 1134.4 389.936C1134.54 389.982 1134.69 390.006 1134.85 390.006C1134.97 390.006 1135.1 389.995 1135.23 389.975C1135.36 389.949 1135.46 389.928 1135.53 389.912L1135.54 391.092C1135.42 391.128 1135.27 391.162 1135.09 391.193C1134.9 391.23 1134.68 391.248 1134.42 391.248C1134.07 391.248 1133.74 391.178 1133.45 391.037C1133.15 390.896 1132.91 390.662 1132.73 390.334C1132.56 390.001 1132.48 389.553 1132.48 388.99V380.584ZM1142.12 388.85C1142.12 388.641 1142.07 388.449 1141.98 388.271C1141.89 388.089 1141.7 387.925 1141.42 387.779C1141.15 387.628 1140.73 387.498 1140.17 387.389C1139.7 387.29 1139.28 387.173 1138.9 387.037C1138.52 386.902 1138.2 386.738 1137.94 386.545C1137.68 386.352 1137.48 386.126 1137.34 385.865C1137.2 385.605 1137.12 385.3 1137.12 384.951C1137.12 384.618 1137.2 384.303 1137.34 384.006C1137.49 383.709 1137.71 383.446 1137.98 383.217C1138.25 382.988 1138.58 382.808 1138.97 382.678C1139.35 382.548 1139.78 382.482 1140.26 382.482C1140.93 382.482 1141.51 382.602 1141.99 382.842C1142.47 383.081 1142.84 383.402 1143.09 383.803C1143.35 384.199 1143.48 384.639 1143.48 385.123H1142.03C1142.03 384.889 1141.96 384.662 1141.82 384.443C1141.68 384.219 1141.48 384.035 1141.22 383.889C1140.96 383.743 1140.64 383.67 1140.26 383.67C1139.86 383.67 1139.53 383.732 1139.28 383.857C1139.04 383.977 1138.86 384.131 1138.74 384.318C1138.63 384.506 1138.58 384.704 1138.58 384.912C1138.58 385.068 1138.6 385.209 1138.66 385.334C1138.71 385.454 1138.81 385.566 1138.95 385.67C1139.09 385.769 1139.29 385.863 1139.55 385.951C1139.8 386.04 1140.13 386.128 1140.52 386.217C1141.22 386.373 1141.79 386.561 1142.23 386.779C1142.68 386.998 1143.02 387.266 1143.23 387.584C1143.45 387.902 1143.56 388.287 1143.56 388.74C1143.56 389.11 1143.48 389.449 1143.33 389.756C1143.18 390.063 1142.96 390.329 1142.66 390.553C1142.38 390.771 1142.03 390.943 1141.63 391.068C1141.24 391.188 1140.79 391.248 1140.3 391.248C1139.55 391.248 1138.92 391.115 1138.41 390.85C1137.89 390.584 1137.5 390.24 1137.23 389.818C1136.97 389.396 1136.84 388.951 1136.84 388.482H1138.29C1138.31 388.878 1138.42 389.193 1138.63 389.428C1138.84 389.657 1139.1 389.821 1139.4 389.92C1139.7 390.014 1140 390.061 1140.3 390.061C1140.69 390.061 1141.02 390.008 1141.29 389.904C1141.56 389.8 1141.77 389.657 1141.91 389.475C1142.05 389.292 1142.12 389.084 1142.12 388.85ZM1150.88 383.967V391.092H1149.43V382.639H1150.84L1150.88 383.967ZM1153.52 382.592L1153.51 383.936C1153.39 383.91 1153.27 383.894 1153.16 383.889C1153.06 383.878 1152.94 383.873 1152.8 383.873C1152.47 383.873 1152.18 383.925 1151.92 384.029C1151.67 384.133 1151.45 384.279 1151.27 384.467C1151.1 384.654 1150.96 384.878 1150.85 385.139C1150.75 385.394 1150.69 385.675 1150.66 385.982L1150.25 386.217C1150.25 385.706 1150.3 385.227 1150.4 384.779C1150.5 384.331 1150.66 383.936 1150.88 383.592C1151.09 383.243 1151.36 382.972 1151.69 382.779C1152.02 382.581 1152.42 382.482 1152.88 382.482C1152.98 382.482 1153.1 382.495 1153.23 382.521C1153.37 382.542 1153.46 382.566 1153.52 382.592ZM1158.2 391.248C1157.61 391.248 1157.08 391.149 1156.6 390.951C1156.13 390.748 1155.72 390.464 1155.38 390.1C1155.04 389.735 1154.78 389.303 1154.59 388.803C1154.41 388.303 1154.32 387.756 1154.32 387.162V386.834C1154.32 386.146 1154.42 385.535 1154.62 384.998C1154.83 384.456 1155.1 383.998 1155.45 383.623C1155.8 383.248 1156.2 382.964 1156.64 382.771C1157.08 382.579 1157.54 382.482 1158.02 382.482C1158.62 382.482 1159.14 382.587 1159.58 382.795C1160.02 383.003 1160.38 383.295 1160.66 383.67C1160.95 384.04 1161.15 384.477 1161.29 384.982C1161.42 385.482 1161.49 386.029 1161.49 386.623V387.271H1155.18V386.092H1160.05V385.982C1160.03 385.607 1159.95 385.243 1159.81 384.889C1159.68 384.535 1159.47 384.243 1159.19 384.014C1158.9 383.785 1158.51 383.67 1158.02 383.67C1157.69 383.67 1157.39 383.74 1157.11 383.881C1156.83 384.016 1156.6 384.219 1156.4 384.49C1156.2 384.761 1156.05 385.092 1155.94 385.482C1155.83 385.873 1155.77 386.324 1155.77 386.834V387.162C1155.77 387.563 1155.83 387.941 1155.94 388.295C1156.05 388.644 1156.22 388.951 1156.43 389.217C1156.65 389.482 1156.91 389.691 1157.22 389.842C1157.53 389.993 1157.89 390.068 1158.28 390.068C1158.79 390.068 1159.22 389.964 1159.58 389.756C1159.93 389.548 1160.24 389.269 1160.51 388.92L1161.38 389.615C1161.2 389.891 1160.97 390.154 1160.69 390.404C1160.41 390.654 1160.06 390.857 1159.65 391.014C1159.24 391.17 1158.76 391.248 1158.2 391.248ZM1168.1 388.85C1168.1 388.641 1168.05 388.449 1167.96 388.271C1167.87 388.089 1167.69 387.925 1167.41 387.779C1167.13 387.628 1166.71 387.498 1166.16 387.389C1165.69 387.29 1165.26 387.173 1164.88 387.037C1164.51 386.902 1164.19 386.738 1163.92 386.545C1163.66 386.352 1163.46 386.126 1163.32 385.865C1163.18 385.605 1163.11 385.3 1163.11 384.951C1163.11 384.618 1163.18 384.303 1163.33 384.006C1163.48 383.709 1163.69 383.446 1163.96 383.217C1164.24 382.988 1164.57 382.808 1164.95 382.678C1165.34 382.548 1165.77 382.482 1166.24 382.482C1166.92 382.482 1167.5 382.602 1167.98 382.842C1168.46 383.081 1168.82 383.402 1169.08 383.803C1169.33 384.199 1169.46 384.639 1169.46 385.123H1168.02C1168.02 384.889 1167.95 384.662 1167.8 384.443C1167.67 384.219 1167.47 384.035 1167.2 383.889C1166.94 383.743 1166.62 383.67 1166.24 383.67C1165.84 383.67 1165.52 383.732 1165.27 383.857C1165.02 383.977 1164.84 384.131 1164.73 384.318C1164.62 384.506 1164.56 384.704 1164.56 384.912C1164.56 385.068 1164.59 385.209 1164.64 385.334C1164.7 385.454 1164.8 385.566 1164.94 385.67C1165.08 385.769 1165.28 385.863 1165.53 385.951C1165.79 386.04 1166.11 386.128 1166.51 386.217C1167.2 386.373 1167.77 386.561 1168.22 386.779C1168.67 386.998 1169 387.266 1169.22 387.584C1169.44 387.902 1169.55 388.287 1169.55 388.74C1169.55 389.11 1169.47 389.449 1169.31 389.756C1169.16 390.063 1168.94 390.329 1168.65 390.553C1168.36 390.771 1168.02 390.943 1167.62 391.068C1167.22 391.188 1166.78 391.248 1166.28 391.248C1165.54 391.248 1164.91 391.115 1164.39 390.85C1163.88 390.584 1163.48 390.24 1163.22 389.818C1162.95 389.396 1162.82 388.951 1162.82 388.482H1164.27C1164.29 388.878 1164.41 389.193 1164.62 389.428C1164.83 389.657 1165.08 389.821 1165.38 389.92C1165.68 390.014 1165.98 390.061 1166.28 390.061C1166.68 390.061 1167.01 390.008 1167.27 389.904C1167.54 389.8 1167.75 389.657 1167.89 389.475C1168.03 389.292 1168.1 389.084 1168.1 388.85ZM1174.95 391.248C1174.36 391.248 1173.83 391.149 1173.35 390.951C1172.88 390.748 1172.47 390.464 1172.12 390.1C1171.79 389.735 1171.53 389.303 1171.34 388.803C1171.16 388.303 1171.07 387.756 1171.07 387.162V386.834C1171.07 386.146 1171.17 385.535 1171.38 384.998C1171.58 384.456 1171.85 383.998 1172.2 383.623C1172.55 383.248 1172.95 382.964 1173.39 382.771C1173.83 382.579 1174.29 382.482 1174.77 382.482C1175.37 382.482 1175.89 382.587 1176.33 382.795C1176.77 383.003 1177.13 383.295 1177.41 383.67C1177.7 384.04 1177.9 384.477 1178.04 384.982C1178.17 385.482 1178.24 386.029 1178.24 386.623V387.271H1171.93V386.092H1176.8V385.982C1176.78 385.607 1176.7 385.243 1176.56 384.889C1176.43 384.535 1176.22 384.243 1175.94 384.014C1175.65 383.785 1175.26 383.67 1174.77 383.67C1174.44 383.67 1174.14 383.74 1173.86 383.881C1173.58 384.016 1173.35 384.219 1173.15 384.49C1172.95 384.761 1172.8 385.092 1172.69 385.482C1172.58 385.873 1172.52 386.324 1172.52 386.834V387.162C1172.52 387.563 1172.58 387.941 1172.69 388.295C1172.8 388.644 1172.97 388.951 1173.18 389.217C1173.4 389.482 1173.66 389.691 1173.97 389.842C1174.28 389.993 1174.64 390.068 1175.03 390.068C1175.54 390.068 1175.97 389.964 1176.33 389.756C1176.68 389.548 1176.99 389.269 1177.26 388.92L1178.13 389.615C1177.95 389.891 1177.72 390.154 1177.44 390.404C1177.16 390.654 1176.81 390.857 1176.4 391.014C1175.99 391.17 1175.51 391.248 1174.95 391.248ZM1181.38 383.967V391.092H1179.93V382.639H1181.34L1181.38 383.967ZM1184.02 382.592L1184.01 383.936C1183.89 383.91 1183.77 383.894 1183.66 383.889C1183.56 383.878 1183.44 383.873 1183.3 383.873C1182.97 383.873 1182.68 383.925 1182.42 384.029C1182.17 384.133 1181.95 384.279 1181.77 384.467C1181.6 384.654 1181.46 384.878 1181.35 385.139C1181.25 385.394 1181.19 385.675 1181.16 385.982L1180.75 386.217C1180.75 385.706 1180.8 385.227 1180.9 384.779C1181 384.331 1181.16 383.936 1181.38 383.592C1181.59 383.243 1181.86 382.972 1182.19 382.779C1182.52 382.581 1182.92 382.482 1183.38 382.482C1183.48 382.482 1183.6 382.495 1183.73 382.521C1183.87 382.542 1183.96 382.566 1184.02 382.592ZM1188.06 389.787L1190.38 382.639H1191.85L1188.81 391.092H1187.84L1188.06 389.787ZM1186.13 382.639L1188.52 389.826L1188.68 391.092H1187.71L1184.65 382.639H1186.13ZM1196.64 391.248C1196.05 391.248 1195.52 391.149 1195.04 390.951C1194.57 390.748 1194.16 390.464 1193.81 390.1C1193.47 389.735 1193.21 389.303 1193.03 388.803C1192.85 388.303 1192.76 387.756 1192.76 387.162V386.834C1192.76 386.146 1192.86 385.535 1193.06 384.998C1193.27 384.456 1193.54 383.998 1193.89 383.623C1194.24 383.248 1194.64 382.964 1195.08 382.771C1195.52 382.579 1195.98 382.482 1196.45 382.482C1197.06 382.482 1197.58 382.587 1198.02 382.795C1198.46 383.003 1198.82 383.295 1199.1 383.67C1199.38 384.04 1199.59 384.477 1199.73 384.982C1199.86 385.482 1199.93 386.029 1199.93 386.623V387.271H1193.62V386.092H1198.48V385.982C1198.46 385.607 1198.39 385.243 1198.25 384.889C1198.12 384.535 1197.91 384.243 1197.62 384.014C1197.34 383.785 1196.95 383.67 1196.45 383.67C1196.12 383.67 1195.82 383.74 1195.55 383.881C1195.27 384.016 1195.03 384.219 1194.84 384.49C1194.64 384.761 1194.48 385.092 1194.38 385.482C1194.27 385.873 1194.21 386.324 1194.21 386.834V387.162C1194.21 387.563 1194.27 387.941 1194.38 388.295C1194.49 388.644 1194.65 388.951 1194.87 389.217C1195.09 389.482 1195.35 389.691 1195.66 389.842C1195.97 389.993 1196.32 390.068 1196.72 390.068C1197.23 390.068 1197.66 389.964 1198.02 389.756C1198.37 389.548 1198.68 389.269 1198.95 388.92L1199.82 389.615C1199.64 389.891 1199.41 390.154 1199.12 390.404C1198.84 390.654 1198.5 390.857 1198.09 391.014C1197.68 391.17 1197.2 391.248 1196.64 391.248ZM1206.95 389.451V379.092H1208.4V391.092H1207.07L1206.95 389.451ZM1201.26 386.959V386.795C1201.26 386.149 1201.34 385.563 1201.49 385.037C1201.65 384.506 1201.88 384.05 1202.17 383.67C1202.47 383.29 1202.82 382.998 1203.23 382.795C1203.64 382.587 1204.1 382.482 1204.6 382.482C1205.13 382.482 1205.6 382.576 1205.99 382.764C1206.39 382.946 1206.73 383.214 1207.01 383.568C1207.29 383.917 1207.51 384.339 1207.67 384.834C1207.83 385.329 1207.95 385.889 1208.01 386.514V387.232C1207.95 387.852 1207.84 388.41 1207.67 388.904C1207.51 389.399 1207.29 389.821 1207.01 390.17C1206.73 390.519 1206.39 390.787 1205.99 390.975C1205.59 391.157 1205.12 391.248 1204.59 391.248C1204.09 391.248 1203.64 391.141 1203.23 390.928C1202.82 390.714 1202.47 390.415 1202.17 390.029C1201.88 389.644 1201.65 389.191 1201.49 388.67C1201.34 388.144 1201.26 387.574 1201.26 386.959ZM1202.71 386.795V386.959C1202.71 387.381 1202.75 387.777 1202.84 388.146C1202.92 388.516 1203.06 388.842 1203.24 389.123C1203.42 389.404 1203.66 389.626 1203.94 389.787C1204.22 389.943 1204.55 390.021 1204.95 390.021C1205.42 390.021 1205.82 389.92 1206.12 389.717C1206.44 389.514 1206.69 389.245 1206.88 388.912C1207.06 388.579 1207.21 388.217 1207.31 387.826V385.943C1207.25 385.657 1207.16 385.381 1207.04 385.115C1206.92 384.844 1206.77 384.605 1206.59 384.396C1206.4 384.183 1206.18 384.014 1205.91 383.889C1205.64 383.764 1205.33 383.701 1204.96 383.701C1204.57 383.701 1204.22 383.785 1203.94 383.951C1203.66 384.113 1203.42 384.337 1203.24 384.623C1203.06 384.904 1202.92 385.232 1202.84 385.607C1202.75 385.977 1202.71 386.373 1202.71 386.795Z" fill="white"/>
<defs>
<linearGradient id="paint0_linear_1_13900" x1="-1.50255e-05" y1="175.253" x2="1920" y2="175.252" gradientUnits="userSpaceOnUse">
<stop stop-color="#1CAB55"/>
<stop offset="1" stop-color="#04A4EC"/>
</linearGradient>
<linearGradient id="paint1_linear_1_13900" x1="-311.78" y1="95.6273" x2="2231.33" y2="95.6277" gradientUnits="userSpaceOnUse">
<stop stop-color="#1CAB55"/>
<stop offset="1" stop-color="#04A4EC"/>
</linearGradient>
</defs>
</svg>
