<svg width="148" height="24" viewBox="0 0 148 24" fill="none" xmlns="http://www.w3.org/2000/svg">
<path fill-rule="evenodd" clip-rule="evenodd" d="M18.965 16.6102L17.792 15.4372C17.206 14.8512 16.256 14.8512 15.671 15.4372L14.749 16.3592C14.543 16.5652 14.231 16.6342 13.965 16.5172C12.629 15.9322 11.309 15.0452 10.132 13.8682C8.96002 12.6962 8.07602 11.3822 7.49002 10.0512C7.36802 9.77621 7.43902 9.45321 7.65202 9.24021L8.47802 8.41421C9.14902 7.74321 9.14902 6.79421 8.56302 6.20821L7.39002 5.03521C6.60902 4.25421 5.34302 4.25421 4.56202 5.03521L3.91002 5.68621C3.16902 6.42721 2.86002 7.49621 3.06002 8.55621C3.55402 11.1692 5.07202 14.0302 7.52102 16.4792C9.97002 18.9282 12.831 20.4462 15.444 20.9402C16.504 21.1402 17.573 20.8312 18.314 20.0902L18.965 19.4392C19.746 18.6582 19.746 17.3922 18.965 16.6102V16.6102Z" stroke="white" stroke-width="1.5" stroke-linecap="round" stroke-linejoin="round"/>
<path d="M13 6.99109C14.031 6.97709 15.067 7.35909 15.854 8.14609" stroke="white" stroke-width="1.5" stroke-linecap="round" stroke-linejoin="round"/>
<path d="M18.682 5.31811C17.113 3.74911 15.056 2.96411 13 2.96411" stroke="white" stroke-width="1.5" stroke-linecap="round" stroke-linejoin="round"/>
<path d="M17.009 11C17.023 9.969 16.641 8.933 15.854 8.146" stroke="white" stroke-width="1.5" stroke-linecap="round" stroke-linejoin="round"/>
<path d="M18.682 5.31812C20.251 6.88712 21.036 8.94412 21.036 11.0001" stroke="white" stroke-width="1.5" stroke-linecap="round" stroke-linejoin="round"/>
<path d="M35.5537 11.1553V12.6318H30.3174V11.1553H35.5537ZM30.8301 7.04688V17H28.9502V7.04688H30.8301ZM36.9482 7.04688V17H35.0684V7.04688H36.9482ZM38.4043 13.377V13.2334C38.4043 12.6911 38.4818 12.1921 38.6367 11.7363C38.7917 11.276 39.0173 10.8773 39.3135 10.54C39.6097 10.2028 39.972 9.94076 40.4004 9.75391C40.8288 9.5625 41.3164 9.4668 41.8633 9.4668C42.4193 9.4668 42.9115 9.5625 43.3398 9.75391C43.7728 9.94076 44.1374 10.2028 44.4336 10.54C44.7298 10.8773 44.9554 11.276 45.1104 11.7363C45.2653 12.1921 45.3428 12.6911 45.3428 13.2334V13.377C45.3428 13.9147 45.2653 14.4137 45.1104 14.874C44.9554 15.3298 44.7298 15.7285 44.4336 16.0703C44.1374 16.4076 43.7751 16.6696 43.3467 16.8564C42.9183 17.0433 42.4284 17.1367 41.877 17.1367C41.3301 17.1367 40.8402 17.0433 40.4072 16.8564C39.9743 16.6696 39.6097 16.4076 39.3135 16.0703C39.0173 15.7285 38.7917 15.3298 38.6367 14.874C38.4818 14.4137 38.4043 13.9147 38.4043 13.377ZM40.209 13.2334V13.377C40.209 13.7005 40.2409 14.0036 40.3047 14.2861C40.3685 14.5687 40.4665 14.8171 40.5986 15.0312C40.7308 15.2454 40.9017 15.4141 41.1113 15.5371C41.3255 15.6556 41.5807 15.7148 41.877 15.7148C42.1686 15.7148 42.4193 15.6556 42.6289 15.5371C42.8385 15.4141 43.0094 15.2454 43.1416 15.0312C43.2783 14.8171 43.3786 14.5687 43.4424 14.2861C43.5062 14.0036 43.5381 13.7005 43.5381 13.377V13.2334C43.5381 12.9144 43.5062 12.6159 43.4424 12.3379C43.3786 12.0553 43.2783 11.807 43.1416 11.5928C43.0094 11.374 42.8363 11.2031 42.6221 11.0801C42.4124 10.9525 42.1595 10.8887 41.8633 10.8887C41.5716 10.8887 41.321 10.9525 41.1113 11.0801C40.9017 11.2031 40.7308 11.374 40.5986 11.5928C40.4665 11.807 40.3685 12.0553 40.3047 12.3379C40.2409 12.6159 40.209 12.9144 40.209 13.2334ZM50.1553 9.60352V10.9023H45.917V9.60352H50.1553ZM47.0518 7.78516H48.8633V14.8672C48.8633 15.0859 48.8929 15.2546 48.9521 15.373C49.0114 15.4915 49.1003 15.5713 49.2188 15.6123C49.3372 15.6533 49.4785 15.6738 49.6426 15.6738C49.7611 15.6738 49.8704 15.667 49.9707 15.6533C50.071 15.6396 50.1553 15.626 50.2236 15.6123L50.2305 16.9658C50.0801 17.016 49.9092 17.057 49.7178 17.0889C49.5309 17.1208 49.319 17.1367 49.082 17.1367C48.6764 17.1367 48.321 17.0684 48.0156 16.9316C47.7103 16.7904 47.4733 16.5648 47.3047 16.2549C47.1361 15.9404 47.0518 15.5257 47.0518 15.0107V7.78516ZM53.2725 6.5V17H51.4609V6.5H53.2725ZM56.9092 9.60352V17H55.0977V9.60352H56.9092ZM54.9746 7.66895C54.9746 7.40007 55.0658 7.17676 55.248 6.99902C55.4349 6.82129 55.6855 6.73242 56 6.73242C56.3145 6.73242 56.5628 6.82129 56.7451 6.99902C56.932 7.17676 57.0254 7.40007 57.0254 7.66895C57.0254 7.93327 56.932 8.1543 56.7451 8.33203C56.5628 8.50977 56.3145 8.59863 56 8.59863C55.6855 8.59863 55.4349 8.50977 55.248 8.33203C55.0658 8.1543 54.9746 7.93327 54.9746 7.66895ZM60.4023 11.1826V17H58.5977V9.60352H60.293L60.4023 11.1826ZM60.1152 13.0352H59.582C59.5866 12.4974 59.6595 12.0098 59.8008 11.5723C59.9421 11.1348 60.1403 10.7588 60.3955 10.4443C60.6553 10.1299 60.9629 9.88835 61.3184 9.71973C61.6738 9.55111 62.0703 9.4668 62.5078 9.4668C62.8633 9.4668 63.1846 9.51693 63.4717 9.61719C63.7588 9.71745 64.0049 9.87695 64.21 10.0957C64.4196 10.3145 64.5791 10.6016 64.6885 10.957C64.8024 11.3079 64.8594 11.7409 64.8594 12.2559V17H63.041V12.2422C63.041 11.9049 62.9909 11.6383 62.8906 11.4424C62.7949 11.2464 62.6536 11.1074 62.4668 11.0254C62.2845 10.9434 62.0589 10.9023 61.79 10.9023C61.512 10.9023 61.2682 10.9593 61.0586 11.0732C60.8535 11.1826 60.6803 11.3353 60.5391 11.5312C60.4023 11.7272 60.2975 11.9528 60.2246 12.208C60.1517 12.4632 60.1152 12.7389 60.1152 13.0352ZM69.7744 17.1367C69.2139 17.1367 68.7103 17.0456 68.2637 16.8633C67.8171 16.681 67.4365 16.4281 67.1221 16.1045C66.8122 15.7764 66.5729 15.3958 66.4043 14.9629C66.2402 14.5254 66.1582 14.056 66.1582 13.5547V13.2812C66.1582 12.7116 66.2402 12.1943 66.4043 11.7295C66.5684 11.2601 66.8008 10.8568 67.1016 10.5195C67.4023 10.1823 67.7624 9.92253 68.1816 9.74023C68.6009 9.55794 69.0635 9.4668 69.5693 9.4668C70.0934 9.4668 70.556 9.55566 70.957 9.7334C71.3581 9.90658 71.693 10.1527 71.9619 10.4717C72.2308 10.7907 72.4336 11.1735 72.5703 11.6201C72.707 12.0622 72.7754 12.5521 72.7754 13.0898V13.8486H66.9785V12.6045H70.998V12.4678C70.9889 12.1807 70.9342 11.9186 70.834 11.6816C70.7337 11.4401 70.5788 11.2487 70.3691 11.1074C70.1595 10.9616 69.8883 10.8887 69.5557 10.8887C69.2868 10.8887 69.0521 10.9479 68.8516 11.0664C68.6556 11.1803 68.4915 11.3444 68.3594 11.5586C68.2318 11.7682 68.1361 12.0189 68.0723 12.3105C68.0085 12.6022 67.9766 12.9258 67.9766 13.2812V13.5547C67.9766 13.8646 68.0176 14.1517 68.0996 14.416C68.1862 14.6803 68.3115 14.9105 68.4756 15.1064C68.6442 15.2979 68.8447 15.4482 69.0771 15.5576C69.3141 15.6624 69.583 15.7148 69.8838 15.7148C70.262 15.7148 70.6038 15.6419 70.9092 15.4961C71.2191 15.3457 71.488 15.1247 71.7158 14.833L72.625 15.7764C72.4701 16.0042 72.2604 16.223 71.9961 16.4326C71.7363 16.6423 71.4219 16.8132 71.0527 16.9453C70.6836 17.0729 70.2575 17.1367 69.7744 17.1367ZM74.0264 16.1182C74.0264 15.8447 74.1198 15.6146 74.3066 15.4277C74.4935 15.2409 74.7464 15.1475 75.0654 15.1475C75.3844 15.1475 75.6374 15.2409 75.8242 15.4277C76.0111 15.6146 76.1045 15.8447 76.1045 16.1182C76.1045 16.387 76.0111 16.6149 75.8242 16.8018C75.6374 16.984 75.3844 17.0752 75.0654 17.0752C74.7464 17.0752 74.4935 16.984 74.3066 16.8018C74.1198 16.6149 74.0264 16.387 74.0264 16.1182ZM74.0332 10.3828C74.0332 10.1094 74.1266 9.87923 74.3135 9.69238C74.5003 9.50553 74.7533 9.41211 75.0723 9.41211C75.3913 9.41211 75.6442 9.50553 75.8311 9.69238C76.0179 9.87923 76.1113 10.1094 76.1113 10.3828C76.1113 10.6517 76.0179 10.8796 75.8311 11.0664C75.6442 11.2487 75.3913 11.3398 75.0723 11.3398C74.7533 11.3398 74.5003 11.2487 74.3135 11.0664C74.1266 10.8796 74.0332 10.6517 74.0332 10.3828ZM85.8389 7.01953V17H84.0273V9.13184L81.6279 9.9248V8.46191L85.6338 7.01953H85.8389ZM90.5488 15.5986H90.6787C91.2666 15.5986 91.7633 15.5234 92.1689 15.373C92.5791 15.2227 92.9095 15.0107 93.1602 14.7373C93.4154 14.4593 93.5999 14.1289 93.7139 13.7461C93.8324 13.3587 93.8916 12.9303 93.8916 12.4609V10.6562C93.8916 10.2734 93.8529 9.93848 93.7754 9.65137C93.6979 9.3597 93.5885 9.11589 93.4473 8.91992C93.3105 8.72396 93.1488 8.57812 92.9619 8.48242C92.7751 8.38216 92.5745 8.33203 92.3604 8.33203C92.1234 8.33203 91.9137 8.38672 91.7314 8.49609C91.5492 8.60547 91.3942 8.75586 91.2666 8.94727C91.1436 9.13411 91.0479 9.35059 90.9795 9.59668C90.9157 9.84277 90.8838 10.1025 90.8838 10.376C90.8838 10.6403 90.9134 10.8932 90.9727 11.1348C91.0365 11.3763 91.1299 11.5905 91.2529 11.7773C91.3805 11.9642 91.54 12.1123 91.7314 12.2217C91.9229 12.3265 92.1462 12.3789 92.4014 12.3789C92.6429 12.3789 92.8617 12.3333 93.0576 12.2422C93.2581 12.1465 93.4313 12.0212 93.5771 11.8662C93.723 11.7067 93.8346 11.5312 93.9121 11.3398C93.9941 11.1439 94.0397 10.9456 94.0488 10.7451L94.6846 11.0186C94.6846 11.3512 94.6139 11.6794 94.4727 12.0029C94.3359 12.3265 94.1423 12.6204 93.8916 12.8848C93.6455 13.1445 93.3584 13.3542 93.0303 13.5137C92.7021 13.6686 92.349 13.7461 91.9707 13.7461C91.5013 13.7461 91.0866 13.6595 90.7266 13.4863C90.3665 13.3132 90.0635 13.0739 89.8174 12.7686C89.5758 12.4587 89.3936 12.1032 89.2705 11.7021C89.1475 11.2965 89.0859 10.8636 89.0859 10.4033C89.0859 9.9248 89.1611 9.47591 89.3115 9.05664C89.4619 8.63281 89.6784 8.26139 89.9609 7.94238C90.248 7.61882 90.5944 7.36589 91 7.18359C91.4056 6.99674 91.8613 6.90332 92.3672 6.90332C92.8913 6.90332 93.3584 7.00586 93.7686 7.21094C94.1787 7.41602 94.5273 7.70085 94.8145 8.06543C95.1016 8.42546 95.3203 8.85156 95.4707 9.34375C95.6257 9.83594 95.7031 10.3737 95.7031 10.957V11.5928C95.7031 12.208 95.6416 12.7913 95.5186 13.3428C95.3955 13.8942 95.2064 14.3978 94.9512 14.8535C94.696 15.3092 94.3701 15.7035 93.9736 16.0361C93.5817 16.3688 93.1123 16.6263 92.5654 16.8086C92.0231 16.9863 91.4033 17.0752 90.7061 17.0752H90.5488V15.5986ZM103.776 11.1689V12.8438C103.776 13.6094 103.699 14.2633 103.544 14.8057C103.389 15.348 103.166 15.7923 102.874 16.1387C102.582 16.4805 102.234 16.7334 101.828 16.8975C101.423 17.057 100.971 17.1367 100.475 17.1367C100.078 17.1367 99.709 17.0866 99.3672 16.9863C99.0254 16.8815 98.7178 16.722 98.4443 16.5078C98.1755 16.2891 97.943 16.0111 97.7471 15.6738C97.5557 15.3366 97.4076 14.9333 97.3027 14.4639C97.2025 13.9945 97.1523 13.4544 97.1523 12.8438V11.1689C97.1523 10.4033 97.2298 9.75163 97.3848 9.21387C97.5443 8.67611 97.7699 8.23633 98.0615 7.89453C98.3532 7.55273 98.7018 7.30436 99.1074 7.14941C99.513 6.98991 99.9642 6.91016 100.461 6.91016C100.862 6.91016 101.231 6.96029 101.568 7.06055C101.91 7.16081 102.215 7.31803 102.484 7.53223C102.758 7.74186 102.99 8.0153 103.182 8.35254C103.373 8.68522 103.519 9.08626 103.619 9.55566C103.724 10.0205 103.776 10.5583 103.776 11.1689ZM101.972 13.0898V10.916C101.972 10.5332 101.949 10.2005 101.903 9.91797C101.862 9.63086 101.801 9.38704 101.719 9.18652C101.637 8.986 101.534 8.82422 101.411 8.70117C101.288 8.57357 101.147 8.48014 100.987 8.4209C100.828 8.36165 100.652 8.33203 100.461 8.33203C100.224 8.33203 100.012 8.37988 99.8252 8.47559C99.6383 8.56673 99.4811 8.71257 99.3535 8.91309C99.2259 9.11361 99.1279 9.38021 99.0596 9.71289C98.9958 10.041 98.9639 10.4421 98.9639 10.916V13.0898C98.9639 13.4727 98.9844 13.8076 99.0254 14.0947C99.071 14.3818 99.1348 14.6279 99.2168 14.833C99.3034 15.0381 99.4059 15.2067 99.5244 15.3389C99.6475 15.4665 99.7887 15.5622 99.9482 15.626C100.108 15.6852 100.283 15.7148 100.475 15.7148C100.716 15.7148 100.928 15.667 101.11 15.5713C101.297 15.4756 101.454 15.3252 101.582 15.1201C101.71 14.9105 101.805 14.6393 101.869 14.3066C101.938 13.9694 101.972 13.5638 101.972 13.0898ZM111.774 11.1689V12.8438C111.774 13.6094 111.697 14.2633 111.542 14.8057C111.387 15.348 111.164 15.7923 110.872 16.1387C110.58 16.4805 110.232 16.7334 109.826 16.8975C109.421 17.057 108.969 17.1367 108.473 17.1367C108.076 17.1367 107.707 17.0866 107.365 16.9863C107.023 16.8815 106.716 16.722 106.442 16.5078C106.174 16.2891 105.941 16.0111 105.745 15.6738C105.554 15.3366 105.406 14.9333 105.301 14.4639C105.201 13.9945 105.15 13.4544 105.15 12.8438V11.1689C105.15 10.4033 105.228 9.75163 105.383 9.21387C105.542 8.67611 105.768 8.23633 106.06 7.89453C106.351 7.55273 106.7 7.30436 107.105 7.14941C107.511 6.98991 107.962 6.91016 108.459 6.91016C108.86 6.91016 109.229 6.96029 109.566 7.06055C109.908 7.16081 110.214 7.31803 110.482 7.53223C110.756 7.74186 110.988 8.0153 111.18 8.35254C111.371 8.68522 111.517 9.08626 111.617 9.55566C111.722 10.0205 111.774 10.5583 111.774 11.1689ZM109.97 13.0898V10.916C109.97 10.5332 109.947 10.2005 109.901 9.91797C109.86 9.63086 109.799 9.38704 109.717 9.18652C109.635 8.986 109.532 8.82422 109.409 8.70117C109.286 8.57357 109.145 8.48014 108.985 8.4209C108.826 8.36165 108.65 8.33203 108.459 8.33203C108.222 8.33203 108.01 8.37988 107.823 8.47559C107.636 8.56673 107.479 8.71257 107.352 8.91309C107.224 9.11361 107.126 9.38021 107.058 9.71289C106.994 10.041 106.962 10.4421 106.962 10.916V13.0898C106.962 13.4727 106.982 13.8076 107.023 14.0947C107.069 14.3818 107.133 14.6279 107.215 14.833C107.301 15.0381 107.404 15.2067 107.522 15.3389C107.646 15.4665 107.787 15.5622 107.946 15.626C108.106 15.6852 108.281 15.7148 108.473 15.7148C108.714 15.7148 108.926 15.667 109.108 15.5713C109.295 15.4756 109.452 15.3252 109.58 15.1201C109.708 14.9105 109.803 14.6393 109.867 14.3066C109.936 13.9694 109.97 13.5638 109.97 13.0898ZM121.317 7.01953V17H119.506V9.13184L117.106 9.9248V8.46191L121.112 7.01953H121.317ZM131.271 14.2793C131.271 14.8991 131.125 15.4232 130.833 15.8516C130.546 16.2754 130.152 16.5967 129.65 16.8154C129.154 17.0296 128.589 17.1367 127.955 17.1367C127.326 17.1367 126.759 17.0296 126.253 16.8154C125.752 16.5967 125.353 16.2754 125.057 15.8516C124.765 15.4232 124.619 14.8991 124.619 14.2793C124.619 13.8646 124.701 13.4886 124.865 13.1514C125.034 12.8141 125.266 12.5247 125.562 12.2832C125.859 12.0371 126.21 11.8503 126.615 11.7227C127.021 11.5905 127.463 11.5244 127.941 11.5244C128.579 11.5244 129.149 11.6406 129.65 11.873C130.156 12.1009 130.553 12.4222 130.84 12.8369C131.127 13.2471 131.271 13.7279 131.271 14.2793ZM129.452 14.1699C129.452 13.8509 129.388 13.5752 129.261 13.3428C129.138 13.1058 128.962 12.9235 128.734 12.7959C128.507 12.6683 128.242 12.6045 127.941 12.6045C127.636 12.6045 127.369 12.6683 127.142 12.7959C126.918 12.9235 126.743 13.1058 126.615 13.3428C126.492 13.5752 126.431 13.8509 126.431 14.1699C126.431 14.4935 126.492 14.7715 126.615 15.0039C126.743 15.2318 126.921 15.4072 127.148 15.5303C127.376 15.6533 127.645 15.7148 127.955 15.7148C128.265 15.7148 128.532 15.6533 128.755 15.5303C128.978 15.4072 129.149 15.2318 129.268 15.0039C129.391 14.7715 129.452 14.4935 129.452 14.1699ZM131.052 9.67188C131.052 10.1732 130.92 10.6198 130.655 11.0117C130.391 11.3991 130.024 11.7021 129.555 11.9209C129.09 12.1396 128.557 12.249 127.955 12.249C127.354 12.249 126.816 12.1396 126.342 11.9209C125.872 11.7021 125.503 11.3991 125.234 11.0117C124.97 10.6198 124.838 10.1732 124.838 9.67188C124.838 9.07943 124.972 8.57812 125.241 8.16797C125.51 7.75326 125.877 7.4388 126.342 7.22461C126.811 7.01042 127.344 6.90332 127.941 6.90332C128.548 6.90332 129.085 7.01042 129.555 7.22461C130.024 7.4388 130.391 7.75326 130.655 8.16797C130.92 8.57812 131.052 9.07943 131.052 9.67188ZM129.247 9.74707C129.247 9.46452 129.195 9.21842 129.09 9.00879C128.985 8.7946 128.835 8.62826 128.639 8.50977C128.447 8.39128 128.215 8.33203 127.941 8.33203C127.677 8.33203 127.449 8.389 127.258 8.50293C127.066 8.61686 126.918 8.78092 126.813 8.99512C126.709 9.20475 126.656 9.4554 126.656 9.74707C126.656 10.0342 126.709 10.2848 126.813 10.499C126.918 10.7132 127.066 10.8818 127.258 11.0049C127.454 11.1234 127.686 11.1826 127.955 11.1826C128.224 11.1826 128.454 11.1234 128.646 11.0049C128.837 10.8818 128.985 10.7132 129.09 10.499C129.195 10.2848 129.247 10.0342 129.247 9.74707ZM139.255 11.1689V12.8438C139.255 13.6094 139.177 14.2633 139.022 14.8057C138.868 15.348 138.644 15.7923 138.353 16.1387C138.061 16.4805 137.712 16.7334 137.307 16.8975C136.901 17.057 136.45 17.1367 135.953 17.1367C135.557 17.1367 135.188 17.0866 134.846 16.9863C134.504 16.8815 134.196 16.722 133.923 16.5078C133.654 16.2891 133.422 16.0111 133.226 15.6738C133.034 15.3366 132.886 14.9333 132.781 14.4639C132.681 13.9945 132.631 13.4544 132.631 12.8438V11.1689C132.631 10.4033 132.708 9.75163 132.863 9.21387C133.023 8.67611 133.248 8.23633 133.54 7.89453C133.832 7.55273 134.18 7.30436 134.586 7.14941C134.992 6.98991 135.443 6.91016 135.939 6.91016C136.34 6.91016 136.71 6.96029 137.047 7.06055C137.389 7.16081 137.694 7.31803 137.963 7.53223C138.236 7.74186 138.469 8.0153 138.66 8.35254C138.852 8.68522 138.997 9.08626 139.098 9.55566C139.202 10.0205 139.255 10.5583 139.255 11.1689ZM137.45 13.0898V10.916C137.45 10.5332 137.427 10.2005 137.382 9.91797C137.341 9.63086 137.279 9.38704 137.197 9.18652C137.115 8.986 137.013 8.82422 136.89 8.70117C136.767 8.57357 136.625 8.48014 136.466 8.4209C136.306 8.36165 136.131 8.33203 135.939 8.33203C135.702 8.33203 135.491 8.37988 135.304 8.47559C135.117 8.56673 134.96 8.71257 134.832 8.91309C134.704 9.11361 134.606 9.38021 134.538 9.71289C134.474 10.041 134.442 10.4421 134.442 10.916V13.0898C134.442 13.4727 134.463 13.8076 134.504 14.0947C134.549 14.3818 134.613 14.6279 134.695 14.833C134.782 15.0381 134.884 15.2067 135.003 15.3389C135.126 15.4665 135.267 15.5622 135.427 15.626C135.586 15.6852 135.762 15.7148 135.953 15.7148C136.195 15.7148 136.407 15.667 136.589 15.5713C136.776 15.4756 136.933 15.3252 137.061 15.1201C137.188 14.9105 137.284 14.6393 137.348 14.3066C137.416 13.9694 137.45 13.5638 137.45 13.0898ZM145.688 6.96484H145.934V8.4209H145.817C145.266 8.4209 144.781 8.50521 144.361 8.67383C143.947 8.84245 143.6 9.07943 143.322 9.38477C143.049 9.68555 142.841 10.0433 142.7 10.458C142.559 10.8682 142.488 11.3171 142.488 11.8047V13.418C142.488 13.7962 142.527 14.1289 142.604 14.416C142.687 14.6986 142.798 14.9378 142.939 15.1338C143.085 15.3252 143.254 15.4688 143.445 15.5645C143.641 15.6602 143.855 15.708 144.088 15.708C144.32 15.708 144.53 15.6602 144.717 15.5645C144.904 15.4688 145.063 15.3343 145.195 15.1611C145.332 14.9834 145.435 14.776 145.503 14.5391C145.576 14.3021 145.612 14.0423 145.612 13.7598C145.612 13.4818 145.578 13.2243 145.51 12.9873C145.441 12.7503 145.341 12.543 145.209 12.3652C145.077 12.1829 144.913 12.0439 144.717 11.9482C144.525 11.848 144.307 11.7979 144.061 11.7979C143.742 11.7979 143.457 11.873 143.206 12.0234C142.955 12.1693 142.757 12.3607 142.611 12.5977C142.465 12.8346 142.386 13.0853 142.372 13.3496L141.764 13.0488C141.786 12.6615 141.868 12.306 142.01 11.9824C142.156 11.6589 142.349 11.3763 142.591 11.1348C142.837 10.8932 143.126 10.7064 143.459 10.5742C143.796 10.4421 144.17 10.376 144.58 10.376C145.054 10.376 145.469 10.4671 145.824 10.6494C146.18 10.8271 146.474 11.071 146.706 11.3809C146.943 11.6908 147.121 12.0485 147.239 12.4541C147.358 12.8551 147.417 13.279 147.417 13.7256C147.417 14.2041 147.34 14.6507 147.185 15.0654C147.034 15.4801 146.815 15.8424 146.528 16.1523C146.241 16.4622 145.895 16.7038 145.489 16.877C145.084 17.0501 144.628 17.1367 144.122 17.1367C143.589 17.1367 143.11 17.0365 142.687 16.8359C142.267 16.6354 141.907 16.3574 141.606 16.002C141.306 15.6465 141.076 15.2318 140.916 14.7578C140.757 14.2839 140.677 13.7712 140.677 13.2197V12.4951C140.677 11.7158 140.784 10.9912 140.998 10.3213C141.212 9.65137 141.529 9.06576 141.948 8.56445C142.372 8.05859 142.896 7.66667 143.521 7.38867C144.145 7.10612 144.867 6.96484 145.688 6.96484Z" fill="white"/>
</svg>
