<svg width="224" height="87" viewBox="0 0 224 87" fill="none" xmlns="http://www.w3.org/2000/svg">
<g filter="url(#filter0_d_1_13691)">
<rect x="20" y="13.8873" width="184" height="46" rx="23" fill="url(#paint0_linear_1_13691)" shape-rendering="crispEdges"/>
<path fill-rule="evenodd" clip-rule="evenodd" d="M66.965 41.4973L65.792 40.3243C65.206 39.7383 64.256 39.7383 63.671 40.3243L62.749 41.2463C62.543 41.4523 62.231 41.5213 61.965 41.4043C60.629 40.8193 59.309 39.9323 58.132 38.7553C56.96 37.5833 56.076 36.2693 55.49 34.9383C55.368 34.6633 55.439 34.3403 55.652 34.1273L56.478 33.3013C57.149 32.6303 57.149 31.6813 56.563 31.0953L55.39 29.9223C54.609 29.1413 53.343 29.1413 52.562 29.9223L51.91 30.5733C51.169 31.3143 50.86 32.3833 51.06 33.4433C51.554 36.0563 53.072 38.9173 55.521 41.3663C57.97 43.8153 60.831 45.3333 63.444 45.8273C64.504 46.0273 65.573 45.7183 66.314 44.9773L66.965 44.3263C67.746 43.5453 67.746 42.2793 66.965 41.4973Z" fill="white" stroke="white" stroke-width="0.5" stroke-linecap="round" stroke-linejoin="round"/>
<path d="M61 31.8783C62.031 31.8643 63.067 32.2463 63.854 33.0333" stroke="white" stroke-width="1.5" stroke-linecap="round" stroke-linejoin="round"/>
<path d="M66.682 30.2053C65.113 28.6363 63.056 27.8513 61 27.8513" stroke="white" stroke-width="1.5" stroke-linecap="round" stroke-linejoin="round"/>
<path d="M65.009 35.8873C65.023 34.8563 64.641 33.8203 63.854 33.0333" stroke="white" stroke-width="1.5" stroke-linecap="round" stroke-linejoin="round"/>
<path d="M66.682 30.2053C68.251 31.7743 69.036 33.8313 69.036 35.8873" stroke="white" stroke-width="1.5" stroke-linecap="round" stroke-linejoin="round"/>
<path d="M88.3047 40.1998V41.8873H82.5859V40.1998H88.3047ZM83.2344 30.5123V41.8873H81.0859V30.5123H83.2344ZM91.8734 33.4342V41.8873H89.8031V33.4342H91.8734ZM89.6625 31.2232C89.6625 30.9159 89.7667 30.6607 89.975 30.4576C90.1885 30.2545 90.475 30.1529 90.8344 30.1529C91.1938 30.1529 91.4776 30.2545 91.6859 30.4576C91.8995 30.6607 92.0063 30.9159 92.0063 31.2232C92.0063 31.5253 91.8995 31.7779 91.6859 31.981C91.4776 32.1842 91.1938 32.2857 90.8344 32.2857C90.475 32.2857 90.1885 32.1842 89.975 31.981C89.7667 31.7779 89.6625 31.5253 89.6625 31.2232ZM97.7391 42.0435C97.0984 42.0435 96.5229 41.9394 96.0125 41.731C95.5021 41.5227 95.0672 41.2337 94.7078 40.8639C94.3536 40.4889 94.0802 40.054 93.8875 39.5592C93.7 39.0592 93.6062 38.5227 93.6062 37.9498V37.6373C93.6062 36.9863 93.7 36.3951 93.8875 35.8639C94.075 35.3274 94.3406 34.8665 94.6844 34.481C95.0281 34.0956 95.4396 33.7988 95.9187 33.5904C96.3979 33.3821 96.9266 33.2779 97.5047 33.2779C98.1036 33.2779 98.6323 33.3795 99.0906 33.5826C99.549 33.7805 99.9318 34.0618 100.239 34.4264C100.546 34.7909 100.778 35.2284 100.934 35.7389C101.091 36.2441 101.169 36.804 101.169 37.4185V38.2857H94.5437V36.8639H99.1375V36.7076C99.1271 36.3795 99.0646 36.08 98.95 35.8092C98.8354 35.5331 98.6583 35.3144 98.4187 35.1529C98.1792 34.9863 97.8693 34.9029 97.4891 34.9029C97.1818 34.9029 96.9135 34.9706 96.6844 35.106C96.4604 35.2363 96.2729 35.4238 96.1219 35.6685C95.976 35.9081 95.8667 36.1946 95.7937 36.5279C95.7208 36.8613 95.6844 37.231 95.6844 37.6373V37.9498C95.6844 38.304 95.7312 38.6321 95.825 38.9342C95.924 39.2363 96.0672 39.4993 96.2547 39.7232C96.4474 39.942 96.6766 40.1139 96.9422 40.2389C97.213 40.3587 97.5203 40.4185 97.8641 40.4185C98.2964 40.4185 98.687 40.3352 99.0359 40.1685C99.3901 39.9967 99.6974 39.7441 99.9578 39.4107L100.997 40.4889C100.82 40.7493 100.58 40.9993 100.278 41.2389C99.9812 41.4784 99.6219 41.6738 99.2 41.8248C98.7781 41.9706 98.2911 42.0435 97.7391 42.0435ZM97.9031 29.8795L100.169 32.0435V32.1373H98.5125L97.3016 30.9498L96.0984 32.1373H94.4656V32.0279L96.7 29.8795H97.9031ZM104.675 35.2389V41.8873H102.612V33.4342H104.55L104.675 35.2389ZM104.347 37.356H103.737C103.743 36.7415 103.826 36.1842 103.987 35.6842C104.149 35.1842 104.376 34.7545 104.667 34.3951C104.964 34.0357 105.316 33.7597 105.722 33.567C106.128 33.3743 106.581 33.2779 107.081 33.2779C107.487 33.2779 107.855 33.3352 108.183 33.4498C108.511 33.5644 108.792 33.7467 109.027 33.9967C109.266 34.2467 109.448 34.5748 109.573 34.981C109.704 35.3821 109.769 35.8769 109.769 36.4654V41.8873H107.691V36.4498C107.691 36.0644 107.633 35.7597 107.519 35.5357C107.409 35.3118 107.248 35.1529 107.034 35.0592C106.826 34.9654 106.568 34.9185 106.261 34.9185C105.943 34.9185 105.665 34.9837 105.425 35.1139C105.191 35.2389 104.993 35.4133 104.831 35.6373C104.675 35.8613 104.555 36.1191 104.472 36.4107C104.389 36.7024 104.347 37.0175 104.347 37.356ZM117.797 29.8873V41.8873H115.727V29.8873H117.797ZM117.469 37.356H116.859C116.859 36.7675 116.938 36.2258 117.094 35.731C117.25 35.2363 117.471 34.8066 117.758 34.442C118.044 34.0722 118.385 33.7857 118.781 33.5826C119.182 33.3795 119.625 33.2779 120.109 33.2779C120.526 33.2779 120.904 33.3378 121.242 33.4576C121.586 33.5722 121.88 33.7571 122.125 34.0123C122.37 34.2675 122.557 34.6008 122.688 35.0123C122.823 35.4185 122.891 35.9133 122.891 36.4967V41.8873H120.812V36.481C120.812 36.0904 120.755 35.7831 120.641 35.5592C120.526 35.33 120.362 35.1659 120.148 35.067C119.94 34.968 119.682 34.9185 119.375 34.9185C119.042 34.9185 118.755 34.9837 118.516 35.1139C118.276 35.2389 118.078 35.4133 117.922 35.6373C117.771 35.8613 117.656 36.1191 117.578 36.4107C117.505 36.7024 117.469 37.0175 117.469 37.356ZM128.608 42.0435C127.967 42.0435 127.392 41.9394 126.881 41.731C126.371 41.5227 125.936 41.2337 125.577 40.8639C125.222 40.4889 124.949 40.054 124.756 39.5592C124.569 39.0592 124.475 38.5227 124.475 37.9498V37.6373C124.475 36.9863 124.569 36.3951 124.756 35.8639C124.944 35.3274 125.209 34.8665 125.553 34.481C125.897 34.0956 126.308 33.7988 126.787 33.5904C127.267 33.3821 127.795 33.2779 128.373 33.2779C128.972 33.2779 129.501 33.3795 129.959 33.5826C130.418 33.7805 130.801 34.0618 131.108 34.4264C131.415 34.7909 131.647 35.2284 131.803 35.7389C131.959 36.2441 132.037 36.804 132.037 37.4185V38.2857H125.412V36.8639H130.006V36.7076C129.996 36.3795 129.933 36.08 129.819 35.8092C129.704 35.5331 129.527 35.3144 129.287 35.1529C129.048 34.9863 128.738 34.9029 128.358 34.9029C128.051 34.9029 127.782 34.9706 127.553 35.106C127.329 35.2363 127.142 35.4238 126.991 35.6685C126.845 35.9081 126.735 36.1946 126.662 36.5279C126.59 36.8613 126.553 37.231 126.553 37.6373V37.9498C126.553 38.304 126.6 38.6321 126.694 38.9342C126.793 39.2363 126.936 39.4993 127.123 39.7232C127.316 39.942 127.545 40.1139 127.811 40.2389C128.082 40.3587 128.389 40.4185 128.733 40.4185C129.165 40.4185 129.556 40.3352 129.905 40.1685C130.259 39.9967 130.566 39.7441 130.827 39.4107L131.866 40.4889C131.689 40.7493 131.449 40.9993 131.147 41.2389C130.85 41.4784 130.491 41.6738 130.069 41.8248C129.647 41.9706 129.16 42.0435 128.608 42.0435ZM128.772 29.8795L131.037 32.0435V32.1373H129.381L128.17 30.9498L126.967 32.1373H125.334V32.0279L127.569 29.8795H128.772ZM127.139 43.7467C127.139 43.4602 127.243 43.2206 127.452 43.0279C127.665 42.8352 127.952 42.7389 128.311 42.7389C128.67 42.7389 128.954 42.8352 129.162 43.0279C129.376 43.2206 129.483 43.4602 129.483 43.7467C129.483 44.0279 129.376 44.2623 129.162 44.4498C128.954 44.6425 128.67 44.7389 128.311 44.7389C127.952 44.7389 127.665 44.6425 127.452 44.4498C127.243 44.2623 127.139 44.0279 127.139 43.7467ZM139.628 35.2389V41.8873H137.566V33.4342H139.503L139.628 35.2389ZM139.3 37.356H138.691C138.696 36.7415 138.779 36.1842 138.941 35.6842C139.102 35.1842 139.329 34.7545 139.62 34.3951C139.917 34.0357 140.269 33.7597 140.675 33.567C141.081 33.3743 141.534 33.2779 142.034 33.2779C142.441 33.2779 142.808 33.3352 143.136 33.4498C143.464 33.5644 143.745 33.7467 143.98 33.9967C144.219 34.2467 144.402 34.5748 144.527 34.981C144.657 35.3821 144.722 35.8769 144.722 36.4654V41.8873H142.644V36.4498C142.644 36.0644 142.586 35.7597 142.472 35.5357C142.362 35.3118 142.201 35.1529 141.987 35.0592C141.779 34.9654 141.521 34.9185 141.214 34.9185C140.896 34.9185 140.618 34.9837 140.378 35.1139C140.144 35.2389 139.946 35.4133 139.784 35.6373C139.628 35.8613 139.508 36.1191 139.425 36.4107C139.342 36.7024 139.3 37.0175 139.3 37.356ZM152.017 33.4342H153.892V41.6295C153.892 42.3951 153.726 43.0435 153.392 43.5748C153.064 44.1113 152.603 44.5175 152.009 44.7935C151.416 45.0748 150.726 45.2154 149.939 45.2154C149.601 45.2154 149.233 45.1685 148.838 45.0748C148.447 44.981 148.069 44.8326 147.705 44.6295C147.345 44.4316 147.046 44.1738 146.806 43.856L147.736 42.6373C148.017 42.9654 148.335 43.2128 148.689 43.3795C149.043 43.5514 149.426 43.6373 149.838 43.6373C150.254 43.6373 150.608 43.5592 150.9 43.4029C151.197 43.2519 151.423 43.0279 151.58 42.731C151.741 42.4394 151.822 42.08 151.822 41.6529V35.3639L152.017 33.4342ZM146.306 37.7623V37.5982C146.306 36.9524 146.384 36.3665 146.541 35.8404C146.697 35.3092 146.921 34.8534 147.213 34.4732C147.509 34.093 147.866 33.7988 148.283 33.5904C148.705 33.3821 149.179 33.2779 149.705 33.2779C150.262 33.2779 150.731 33.3795 151.111 33.5826C151.496 33.7857 151.814 34.0748 152.064 34.4498C152.319 34.8248 152.517 35.2701 152.658 35.7857C152.804 36.2962 152.916 36.8587 152.994 37.4732V37.9185C152.921 38.5175 152.804 39.067 152.642 39.567C152.486 40.067 152.278 40.5045 152.017 40.8795C151.757 41.2493 151.434 41.5357 151.048 41.7389C150.663 41.942 150.21 42.0435 149.689 42.0435C149.168 42.0435 148.699 41.9368 148.283 41.7232C147.866 41.5097 147.509 41.2102 147.213 40.8248C146.921 40.4394 146.697 39.9863 146.541 39.4654C146.384 38.9446 146.306 38.3769 146.306 37.7623ZM148.369 37.5982V37.7623C148.369 38.1269 148.405 38.468 148.478 38.7857C148.551 39.1034 148.663 39.3847 148.814 39.6295C148.965 39.8691 149.155 40.0566 149.384 40.192C149.614 40.3274 149.887 40.3951 150.205 40.3951C150.632 40.3951 150.981 40.3066 151.252 40.1295C151.528 39.9472 151.736 39.6998 151.877 39.3873C152.022 39.0696 152.116 38.7128 152.158 38.317V37.0904C152.132 36.7779 152.074 36.4889 151.986 36.2232C151.903 35.9576 151.785 35.7284 151.634 35.5357C151.483 35.343 151.291 35.192 151.056 35.0826C150.822 34.9732 150.543 34.9185 150.22 34.9185C149.908 34.9185 149.634 34.9889 149.4 35.1295C149.166 35.2649 148.973 35.455 148.822 35.6998C148.671 35.9446 148.556 36.2284 148.478 36.5514C148.405 36.8743 148.369 37.2232 148.369 37.5982ZM160.508 40.0904V36.192C160.508 35.9055 160.458 35.6581 160.359 35.4498C160.26 35.2415 160.109 35.08 159.906 34.9654C159.703 34.8508 159.445 34.7935 159.133 34.7935C158.857 34.7935 158.615 34.8404 158.406 34.9342C158.203 35.0279 158.047 35.1607 157.938 35.3326C157.828 35.4993 157.773 35.692 157.773 35.9107H155.703C155.703 35.5618 155.786 35.231 155.953 34.9185C156.12 34.6008 156.357 34.3196 156.664 34.0748C156.977 33.8248 157.349 33.6295 157.781 33.4889C158.219 33.3482 158.708 33.2779 159.25 33.2779C159.891 33.2779 160.461 33.3873 160.961 33.606C161.466 33.8196 161.862 34.1425 162.148 34.5748C162.44 35.0071 162.586 35.5514 162.586 36.2076V39.8951C162.586 40.317 162.612 40.679 162.664 40.981C162.721 41.2779 162.805 41.5357 162.914 41.7545V41.8873H160.812C160.714 41.6738 160.638 41.4029 160.586 41.0748C160.534 40.7415 160.508 40.4133 160.508 40.0904ZM160.797 36.7389L160.812 37.9654H159.508C159.185 37.9654 158.901 37.9993 158.656 38.067C158.411 38.1295 158.211 38.2232 158.055 38.3482C157.898 38.468 157.781 38.6139 157.703 38.7857C157.625 38.9524 157.586 39.1425 157.586 39.356C157.586 39.5644 157.633 39.7519 157.727 39.9185C157.826 40.0852 157.966 40.218 158.148 40.317C158.336 40.4107 158.555 40.4576 158.805 40.4576C159.169 40.4576 159.487 40.3847 159.758 40.2389C160.029 40.0878 160.24 39.9055 160.391 39.692C160.542 39.4784 160.622 39.2753 160.633 39.0826L161.227 39.9732C161.154 40.1868 161.044 40.4133 160.898 40.6529C160.753 40.8925 160.565 41.1165 160.336 41.3248C160.107 41.5331 159.831 41.705 159.508 41.8404C159.185 41.9758 158.81 42.0435 158.383 42.0435C157.836 42.0435 157.346 41.9342 156.914 41.7154C156.482 41.4967 156.141 41.1972 155.891 40.817C155.641 40.4368 155.516 40.0045 155.516 39.5201C155.516 39.0722 155.599 38.6764 155.766 38.3326C155.932 37.9889 156.18 37.6998 156.508 37.4654C156.836 37.2258 157.242 37.0462 157.727 36.9264C158.216 36.8014 158.776 36.7389 159.406 36.7389H160.797ZM166.897 40.9498L169.162 33.4342H171.373L167.983 43.1685C167.905 43.3769 167.803 43.6034 167.678 43.8482C167.558 44.093 167.397 44.3248 167.194 44.5435C166.991 44.7675 166.735 44.9498 166.428 45.0904C166.126 45.231 165.759 45.3014 165.327 45.3014C165.139 45.3014 164.972 45.2883 164.827 45.2623C164.681 45.2363 164.527 45.2024 164.366 45.1607V43.6139C164.418 43.6191 164.478 43.6217 164.545 43.6217C164.618 43.6269 164.681 43.6295 164.733 43.6295C165.035 43.6295 165.285 43.593 165.483 43.5201C165.681 43.4524 165.84 43.3404 165.959 43.1842C166.084 43.0331 166.189 42.8352 166.272 42.5904L166.897 40.9498ZM165.78 33.4342L167.694 39.6607L168.03 41.8404L166.608 42.0982L163.553 33.4342H165.78Z" fill="white"/>
</g>
<defs>
<filter id="filter0_d_1_13691" x="0" y="0.887299" width="224" height="86" filterUnits="userSpaceOnUse" color-interpolation-filters="sRGB">
<feFlood flood-opacity="0" result="BackgroundImageFix"/>
<feColorMatrix in="SourceAlpha" type="matrix" values="0 0 0 0 0 0 0 0 0 0 0 0 0 0 0 0 0 0 127 0" result="hardAlpha"/>
<feOffset dy="7"/>
<feGaussianBlur stdDeviation="10"/>
<feComposite in2="hardAlpha" operator="out"/>
<feColorMatrix type="matrix" values="0 0 0 0 0.833333 0 0 0 0 0.650327 0 0 0 0 0 0 0 0 0.19 0"/>
<feBlend mode="normal" in2="BackgroundImageFix" result="effect1_dropShadow_1_13691"/>
<feBlend mode="normal" in="SourceGraphic" in2="effect1_dropShadow_1_13691" result="shape"/>
</filter>
<linearGradient id="paint0_linear_1_13691" x1="112" y1="13.8873" x2="112" y2="59.8873" gradientUnits="userSpaceOnUse">
<stop stop-color="#FFB469"/>
<stop offset="1" stop-color="#E57709"/>
</linearGradient>
</defs>
</svg>
