<svg width="96" height="97" viewBox="0 0 96 97" fill="none" xmlns="http://www.w3.org/2000/svg">
<g clip-path="url(#clip0_1_13769)">
<path d="M28.914 20.9166C28.9157 25.4751 25.2215 29.1709 20.663 29.1726L17.0323 29.1743C16.6275 29.1092 16.2161 29.071 15.8015 29.0661V25.3969C15.7999 24.3944 15.4018 23.4332 14.694 22.7254L13.7297 21.7628C13.1501 21.1832 12.8254 20.397 12.8254 19.5777L12.8237 17.6907C12.8237 16.8379 13.1685 16.065 13.728 15.5072C14.304 14.9357 15.0598 14.6059 15.9114 14.6012C16.8703 14.6012 17.6486 13.75 17.6486 12.8108C17.6625 11.9005 18.3992 11.1319 19.3275 11.1319L28.6361 11.1285H28.9125L28.914 20.9166Z" fill="#FFDAD5"/>
<path d="M32.8153 6.42031V6.95169C32.8153 9.2585 30.9465 11.1288 28.6382 11.1288L19.3296 11.1322C18.408 11.1322 17.6623 11.9036 17.6507 12.8111C17.6507 13.7517 16.8739 14.6015 15.9135 14.6015C15.0617 14.6062 14.3061 14.936 13.7301 15.5075C13.1704 16.0655 12.8258 16.8382 12.8258 17.6909L12.8274 19.5779C12.8274 20.3973 13.1522 21.1835 13.7318 21.7631L14.6961 22.7257C15.4039 23.4335 15.8019 24.3946 15.8036 25.3972L15.7986 29.0664C15.747 29.063 15.6952 29.063 15.6437 29.063C13.4951 29.063 11.5283 29.8391 10.0059 31.1266H8.88506C5.016 31.1283 1.87819 27.9922 1.87819 24.1248L1.875 14.4382C1.875 11.3486 3.04744 8.37406 5.15606 6.11731C7.4595 3.65075 10.6839 2.24825 14.0599 2.24825L28.6365 2.24487C30.9433 2.24319 32.8136 4.1135 32.8153 6.42031Z" fill="#FFEC80"/>
<path d="M46.6359 94.4734H2.69531C3.05587 83.3084 4.51668 78.9914 5.93436 73.3051C6.6311 70.5088 6.98041 67.6413 6.98041 64.7627V59.6425C7.13922 61.8579 7.57816 64.0472 8.29365 66.1562L14.6748 84.9726C15.5949 87.6835 18.6342 89.1441 21.3305 88.1931C23.869 87.2871 25.2906 84.5841 24.5995 81.9783L19.4157 62.4315L24.5172 42.6138C25.3261 39.4719 24.8386 36.1412 23.1704 33.3652C23.6823 34.0003 24.1193 34.7102 24.478 35.4742C24.478 35.4742 26.9755 42.3783 35.0415 47.5715C41.1815 51.5241 40.5671 58.1425 36.4127 61.7646L33.7751 64.1818C31.9371 65.8704 31.6547 68.76 33.1401 70.7703C34.6961 72.8774 37.6234 73.4098 39.8201 71.9827L41.972 70.5855C41.9776 70.5798 41.987 70.5742 41.9926 70.5705C45.1739 74.3999 48.1627 79.5293 48.1627 85.2904C48.1627 87.6962 47.4877 91.4265 46.6359 94.4734Z" fill="url(#paint0_linear_1_13769)"/>
<path d="M23.0197 33.119C24.8082 35.9411 25.3505 39.377 24.5174 42.6127L19.4154 62.4315L24.5999 81.9775C25.2912 84.5837 23.87 87.2849 21.3305 88.1912C18.6333 89.13 15.599 87.693 14.6765 84.9726L8.29443 66.1554C7.38037 63.4601 6.91406 60.6332 6.91406 57.7871V37.7932C6.91406 32.9711 10.823 29.0621 15.6451 29.0621C18.6357 29.0621 21.4184 30.5931 23.0197 33.119Z" fill="#FFDAD5"/>
<path d="M40.5129 62.8548L42.7942 65.8548C43.9472 67.3709 43.5682 69.5472 41.9709 70.5845L39.8184 71.9823C37.622 73.4086 34.695 72.8776 33.1393 70.7708C31.6558 68.7623 31.9331 65.8717 33.7753 64.1817L35.6915 62.4237C37.1122 61.1204 39.3459 61.3201 40.5129 62.8548Z" fill="#FFDAD5"/>
<path d="M88.1112 11.5917C97.2713 22.6013 95.7723 38.9519 84.7629 48.1122C78.2098 53.5647 69.7637 55.2394 62.0686 53.3809L51.6318 60.1174L51.6556 48.1686C50.4367 47.159 49.292 46.0246 48.2428 44.7635C39.0827 33.7539 40.5818 17.4031 51.5911 8.24299C62.6005 -0.917079 78.951 0.582163 88.1112 11.5917Z" fill="white"/>
<path d="M66.6293 24.0209C64.976 25.2783 64.6739 27.6464 65.9585 29.2786L68.2745 32.2212L66.356 29.9142C64.201 27.3228 60.1936 26.8702 57.6179 29.1044L53.2047 33.0168C51.6755 34.3801 51.5241 36.7197 52.8661 38.2691C54.2352 39.8491 56.633 40.0025 58.1933 38.6084L61.376 35.7641L63.4911 38.2946C66.0779 41.3891 70.648 41.8854 73.8387 39.4181C77.1612 36.8489 77.728 32.0531 75.0963 28.7799L71.776 24.6506C70.5143 23.081 68.2323 22.8018 66.6293 24.0209Z" fill="#FFDAD5"/>
<path d="M85.2062 29.5844C86.7605 26.9552 85.8891 23.5637 83.2599 22.0094C80.6307 20.4551 77.2392 21.3265 75.6849 23.9557C74.1306 26.5849 75.0019 29.9763 77.6312 31.5307C80.2604 33.085 83.6518 32.2136 85.2062 29.5844Z" fill="#FFDAD5"/>
<path d="M2.60548 30.4026C3.67404 31.4704 4.96685 32.2309 6.37684 32.6434C5.5254 34.1694 5.0381 35.9252 5.0381 37.7934V57.7873C5.0381 58.4284 5.06135 59.0674 5.10485 59.7042V64.7621C5.10485 67.4917 4.77166 70.2133 4.11448 72.8508C3.94366 73.5363 3.7721 74.2018 3.60204 74.8617C2.33792 79.7647 1.14412 84.3959 0.820495 94.4123C0.804183 94.9198 0.994307 95.4122 1.34755 95.7771C1.7008 96.1419 2.18699 96.3478 2.69473 96.3478H46.6353C47.4764 96.3478 48.2146 95.7878 48.4411 94.9776C49.4107 91.5094 50.0373 87.7067 50.0373 85.2897C50.0373 80.4393 48.1672 75.5326 44.4774 70.6839C45.6762 68.877 45.6001 66.4466 44.2871 64.7196L42.0058 61.7196C41.4982 61.0523 40.8378 60.5263 40.0923 60.1765C41.1001 58.3873 41.5871 56.3684 41.4419 54.3702C41.2008 51.0494 39.2881 48.0747 36.0564 45.9944C28.6733 41.2411 26.2624 34.8934 26.2408 34.8358C25.7192 33.3868 24.5209 31.7912 23.4848 30.6491C27.7688 29.4135 30.7916 25.3673 30.7916 20.9162L30.7903 12.607C33.0679 11.7374 34.6905 9.53113 34.6905 6.9517V6.42052C34.6905 3.12241 31.9328 0.370117 28.6365 0.370117L14.0604 0.373492C10.1804 0.373492 6.43571 2.00061 3.78654 4.83747C1.34455 7.45026 0 10.8599 0 14.4387L0.00337498 24.1245C0.00337498 26.4962 0.92737 28.7258 2.60548 30.4026ZM12.0933 31.9303C13.2069 31.2536 14.5094 30.9114 15.8105 30.9426C21.3927 31.0361 23.9224 37.3987 22.7005 42.1452L17.5983 61.9643C17.5182 62.2755 17.5193 62.6019 17.6018 62.9124L22.7862 82.4585C23.2242 84.109 22.3071 85.8514 20.6988 86.4254C18.9839 87.0374 17.0358 86.0967 16.4508 84.3706L10.0689 65.5534C9.22326 63.0602 8.78789 60.4196 8.78789 57.7873V37.7934C8.78789 35.4176 10.0644 33.1637 12.0933 31.9303ZM41.5666 68.0775C41.4973 68.4761 41.2664 68.798 40.9344 69.0217L38.7973 70.4098C37.4522 71.2833 35.5976 70.9423 34.6474 69.6557C33.7359 68.4219 33.9133 66.5996 35.0428 65.5635L36.9589 63.8057C37.5594 63.255 38.5248 63.3383 39.0204 63.9898L41.3017 66.9896C41.5402 67.3029 41.6343 67.6894 41.5666 68.0775ZM34.0262 49.1474C36.2745 50.5949 37.5455 52.4948 37.7015 54.6419C37.901 57.3857 36.272 59.3025 34.41 61.0541L32.5061 62.8003C29.9985 65.1043 29.6048 69.1406 31.6311 71.8845C33.744 74.7453 37.8525 75.4955 40.8405 73.5545L41.5833 73.0723C44.7057 77.213 46.2871 81.317 46.2871 85.2897C46.2871 87.0625 45.8585 89.8707 45.1887 92.5978H4.64529C5.03847 84.3113 6.10665 80.167 7.23296 75.7979C7.40564 75.1286 7.57964 74.4536 7.75289 73.7579C7.92089 73.0831 8.06995 72.4036 8.20008 71.72L12.8986 85.5749C14.1541 89.275 18.2939 91.2529 21.9601 89.9586C25.3898 88.7346 27.345 85.0178 26.4111 81.4973L21.3529 62.424L26.3323 43.0805C26.391 42.8519 26.4441 42.6222 26.4908 42.3916C28.2353 44.5651 30.6816 46.9942 34.0262 49.1474ZM27.0413 20.9176C27.0424 24.3934 24.1401 27.2965 20.6643 27.2978L17.6785 27.2991V25.3939C17.6759 23.8844 17.0879 22.4657 16.0207 21.3985L15.0575 20.4374C14.8284 20.2083 14.7022 19.903 14.7022 19.5762L14.7005 17.6907C14.7005 17.3661 14.8259 17.0622 15.0562 16.8325C15.2812 16.6062 15.593 16.4755 15.9132 16.4761C17.8064 16.4761 19.4155 14.9067 19.5199 13.0068L27.0394 13.004L27.0407 20.917C27.0413 20.9174 27.0413 20.9174 27.0413 20.9176ZM6.52646 7.39683C8.46933 5.31634 11.2152 4.1231 14.0604 4.1231L28.6378 4.11972C29.8898 4.11972 30.9394 5.16896 30.9401 6.42146V6.95133C30.9401 8.2207 29.9074 9.25344 28.6375 9.25344L19.3295 9.25682C17.4142 9.25682 15.8328 10.8086 15.7773 12.728C14.5235 12.7569 13.2933 13.2871 12.4062 14.1792C11.4676 15.115 10.9507 16.3621 10.9507 17.692L10.9524 19.5775C10.9524 20.9041 11.4686 22.1509 12.4072 23.0897L13.3702 24.0509C13.7294 24.4103 13.9278 24.8892 13.9287 25.3965L13.9261 27.3278C12.2821 27.5989 10.6996 28.263 9.35713 29.2509H8.88445C6.09109 29.2509 3.75335 26.9185 3.75335 24.1234L3.74998 14.4382C3.74998 11.8139 4.73585 9.31344 6.52646 7.39683Z" fill="black"/>
<path d="M49.7764 49.0303L49.7542 60.1139C49.7529 60.8011 50.1276 61.4341 50.7305 61.7633C51.3229 62.0868 52.0802 62.0583 52.646 61.693L62.4215 55.3833C70.6892 57.1225 79.4655 54.9571 85.9597 49.5536C89.9908 46.1994 92.9789 41.8018 94.601 36.8359C94.9225 35.8515 94.3852 34.7929 93.4008 34.4714C92.4172 34.1502 91.3578 34.6872 91.0364 35.6715C89.6339 39.9655 87.0489 43.7691 83.5614 46.671C77.658 51.5829 69.9839 53.3645 62.5064 51.5583C62.0073 51.4378 61.4806 51.5272 61.0494 51.8056L53.5113 56.6712L53.5282 48.1725C53.5293 47.6128 53.2803 47.0818 52.8493 46.7246C51.7009 45.7734 50.6351 44.7101 49.6817 43.5643C41.1973 33.3672 42.5908 18.1687 52.7876 9.68438C62.9849 1.20043 78.1832 2.59392 86.6672 12.7911C88.5991 15.113 90.0583 17.7313 91.0042 20.573C91.3312 21.5553 92.3919 22.0871 93.3753 21.7599C94.3578 21.4329 94.8892 20.3713 94.5622 19.3888C93.4681 16.1019 91.7817 13.0753 89.5499 10.3928C79.7432 -1.3938 62.1757 -3.00479 50.3893 6.80215C38.6027 16.6089 36.9921 34.1766 46.7991 45.9632C47.7092 47.0572 48.7082 48.086 49.7764 49.0303Z" fill="black"/>
<path d="M56.3909 27.6866C56.3857 27.6913 56.3802 27.696 56.375 27.7006L51.9581 31.6166C49.6764 33.6505 49.4484 37.1851 51.4499 39.496C53.4777 41.8364 57.1332 42.0698 59.4438 40.0054L61.1813 38.4526L62.0534 39.496C65.2536 43.324 71.0361 43.9549 74.9865 40.9002C76.9948 39.3471 78.2649 37.1033 78.563 34.5822C78.5878 34.3724 78.603 34.1632 78.6138 33.9543C79.2063 34.1026 79.8172 34.1785 80.4281 34.1785C84.3971 34.1785 87.6912 31.0181 87.8247 27.0217C87.9595 22.9882 84.7057 19.5092 80.6722 19.3746C77.5172 19.2711 74.7504 21.1671 73.5954 23.9192L73.2382 23.4748C71.3256 21.0962 67.924 20.6805 65.4953 22.5277H65.4951C64.9304 22.9573 64.4614 23.4784 64.1031 24.0654C63.6998 23.4997 63.5202 22.8159 63.6014 22.1203C63.6885 21.3737 64.0622 20.7067 64.6536 20.2427C67.0695 18.3471 67.8441 15.0825 66.5376 12.3036C66.097 11.3665 64.9802 10.9637 64.0429 11.4045C63.1058 11.8452 62.7032 12.9621 63.1439 13.8992C63.7024 15.0868 63.3713 16.4822 62.3387 17.2926C60.955 18.3784 60.0805 19.9384 59.8765 21.6853C59.7063 23.144 60.0224 24.5829 60.769 25.8191C59.1548 25.9715 57.6168 26.6246 56.3909 27.6866ZM80.4234 23.1204C82.4611 23.1204 84.1452 24.8576 84.077 26.8965C84.0097 28.9102 82.3179 30.4938 80.3028 30.4265C78.3131 30.3599 76.7062 28.6438 76.7728 26.6525C76.8388 24.68 78.4642 23.1204 80.4234 23.1204ZM59.0086 30.3869C60.7759 28.9959 63.4257 29.3212 64.9152 31.1124L66.8335 33.4195C67.4893 34.2082 68.6571 34.3237 69.4545 33.6785C70.2519 33.0333 70.3828 31.8672 69.7485 31.0612L67.4325 28.1186C66.8042 27.3206 66.9576 26.1271 67.7646 25.5131C68.5648 24.9045 69.6855 25.0415 70.3153 25.8251L73.6354 29.9544C75.5848 32.3797 75.1498 36.0337 72.6921 37.9343C70.2885 39.7932 66.879 39.4229 64.9304 37.0915L62.8152 34.561C62.1451 33.7599 60.9066 33.6687 60.127 34.3657L56.9448 37.2096C56.1764 37.8961 54.958 37.819 54.284 37.0411C53.6172 36.2712 53.6932 35.0935 54.4494 34.4195L58.8537 30.5146C58.9045 30.4707 58.9559 30.4284 59.0086 30.3869Z" fill="black"/>
<path d="M93.7604 26.0466C92.7569 26.235 92.0894 27.2559 92.2885 28.2497C92.4888 29.2483 93.4898 29.9244 94.4916 29.7216C95.4891 29.5194 96.1692 28.5199 95.9652 27.5166C95.7623 26.5181 94.7616 25.8446 93.7604 26.0466Z" fill="black"/>
</g>
<defs>
<linearGradient id="paint0_linear_1_13769" x1="2.69531" y1="33.3652" x2="61.2267" y2="76.9153" gradientUnits="userSpaceOnUse">
<stop stop-color="#4EBEFF"/>
<stop offset="1" stop-color="#0679BB"/>
</linearGradient>
<clipPath id="clip0_1_13769">
<rect width="96" height="96" fill="white" transform="translate(0 0.358887)"/>
</clipPath>
</defs>
</svg>
