<svg width="96" height="97" viewBox="0 0 96 97" fill="none" xmlns="http://www.w3.org/2000/svg">
<g clip-path="url(#clip0_1_13835)">
<path d="M94.1009 35.2443C94.1009 53.4753 79.3213 68.2547 61.0905 68.2547C54.2075 68.2547 47.8162 66.1487 42.5276 62.5452C43.9876 62.2232 45.3765 61.4942 46.5104 60.3603L51.1945 55.6761C54.3615 52.5092 54.3615 47.3767 51.1945 44.2098L50.752 43.7672C47.585 40.6023 42.4524 40.6023 39.2856 43.7672L34.6015 48.4514C33.6136 49.4392 32.936 50.6187 32.5647 51.8692C29.7118 46.9874 28.078 41.3076 28.078 35.2445C28.078 17.0135 42.8576 2.23389 61.0905 2.23389C79.3213 2.23389 94.1009 17.0135 94.1009 35.2443Z" fill="url(#paint0_linear_1_13835)"/>
<path d="M72.6031 44.0089C78.0344 44.0089 82.4374 39.606 82.4374 34.1747C82.4374 28.7434 78.0344 24.3405 72.6031 24.3405C67.1718 24.3405 62.7689 28.7434 62.7689 34.1747C62.7689 39.606 67.1718 44.0089 72.6031 44.0089Z" fill="#FFD0C6"/>
<path d="M35.0472 60.3603L34.6044 59.9174C31.4382 56.7512 31.4382 51.6179 34.6044 48.4517L39.2886 43.7676C42.4548 40.6014 47.588 40.6014 50.7542 43.7676L51.1969 44.2103C54.3631 47.3765 54.3631 52.5097 51.1969 55.6759L46.5128 60.3601C43.3466 63.5265 38.2132 63.5265 35.0472 60.3603Z" fill="white"/>
<path d="M32.1332 81.4378L31.8711 81.1756C29.9967 79.3012 29.9967 76.2623 31.8711 74.3881L34.644 71.6152C36.5185 69.7407 39.5573 69.7407 41.4315 71.6152L41.6937 71.8773C43.5681 73.7517 43.5681 76.7906 41.6937 78.6648L38.9207 81.4378C37.0465 83.3122 34.0076 83.3122 32.1332 81.4378Z" fill="white"/>
<path d="M56.9548 16.4151C56.3838 15.567 55.2069 15.3273 54.3539 15.8957C53.5024 16.4629 53.2725 17.6469 53.8364 18.4965C54.4021 19.349 55.5865 19.5774 56.4353 19.0141C57.2855 18.4498 57.5199 17.2632 56.9548 16.4151Z" fill="black"/>
<path d="M1.89805 86.5246C2.39159 86.5246 2.88457 86.3309 3.25285 85.9463C4.73384 84.3993 6.72863 83.5475 8.86949 83.5475H8.86968C11.9479 83.5475 14.8422 82.3487 17.0187 80.172C19.1954 77.9953 20.3942 75.1012 20.3942 72.0228C20.3942 67.736 23.8818 64.2484 28.1686 64.2484C30.4253 64.2484 32.6106 63.5881 34.4745 62.3683C36.2507 63.8201 38.4538 64.6101 40.7786 64.6101C41.2286 64.6101 41.6734 64.578 42.1122 64.5199C47.7637 68.1926 54.3086 70.1304 61.0916 70.1304C63.6283 70.1304 66.1673 69.8541 68.6376 69.3092C69.649 69.0863 70.2879 68.0855 70.0648 67.0742C69.8418 66.063 68.842 65.4233 67.8298 65.647C65.6242 66.1335 63.3572 66.3802 61.0916 66.3802C55.9711 66.3802 51.0029 65.1438 46.5419 62.7801C47.0028 62.454 47.4384 62.0858 47.8376 61.6867L52.5218 57.0026C53.5653 55.9591 54.348 54.725 54.8402 53.3794C55.4459 54.9514 55.8965 56.6004 56.165 58.3109L56.5635 60.8493C56.7219 61.8587 57.6972 62.5694 58.7068 62.4109C59.7299 62.2504 60.4291 61.2907 60.2684 60.2676L59.8699 57.7294C58.0313 46.0181 48.961 36.7183 37.2996 34.5878C36.2801 34.401 35.3041 35.0766 35.1179 36.0954C34.9319 37.1142 35.6068 38.0909 36.6255 38.2771C38.5352 38.6259 40.364 39.1976 42.0858 39.9629C40.5363 40.4367 39.1071 41.2967 37.9608 42.442L33.2769 47.1262C33.0447 47.3581 32.8242 47.6021 32.6155 47.8554C30.8673 43.9069 29.9543 39.6072 29.9543 35.245C29.9541 18.0765 43.9221 4.10919 61.0914 4.10919C78.2596 4.10919 92.2268 18.0765 92.2268 35.2444C92.2268 43.9508 88.542 52.3201 82.1169 58.2066C81.3534 58.9061 81.3014 60.0923 82.0011 60.8558C82.7005 61.6194 83.8867 61.6714 84.6503 60.9717C91.8486 54.3768 95.977 44.9995 95.977 35.2444C95.977 16.0085 80.3273 0.358887 61.0914 0.358887C41.8542 0.358887 26.2038 16.0085 26.2038 35.2444C26.2038 41.168 27.7116 46.9895 30.5643 52.1351C30.4259 52.8021 30.3531 53.4874 30.3531 54.1844C30.3531 56.1113 30.8981 57.9533 31.9103 59.5393C30.7728 60.1643 29.4887 60.4981 28.1686 60.4981C21.8139 60.4981 16.6439 65.6681 16.6439 72.0228C16.6439 74.0995 15.8353 76.0517 14.3669 77.5202C12.8984 78.9886 10.9462 79.7971 8.86949 79.7971C5.69598 79.7971 2.73924 81.0599 0.543999 83.3528C-0.172122 84.1008 -0.146432 85.2878 0.601754 86.0041C0.964971 86.3518 1.4317 86.5246 1.89805 86.5246ZM48.3805 44.2529C48.9138 44.578 49.4263 45.0807 49.8695 45.5364C52.2718 47.9387 52.2718 51.9477 49.8695 54.35L45.1854 59.0341C42.785 61.4345 38.7718 61.4343 36.3718 59.0341L35.9289 58.5912C33.5315 56.1938 33.5317 52.175 35.9289 49.7776L40.613 45.0935C42.6551 43.0511 45.948 42.6959 48.3805 44.2529Z" fill="black"/>
<path d="M28.4129 80.6263C24.5596 80.6263 21.3441 83.842 21.3441 87.6953C21.3441 89.5252 19.8554 91.0139 18.0255 91.0139C16.0789 91.0139 14.2654 91.7884 12.9189 93.1947C12.2028 93.9427 12.2284 95.1297 12.9766 95.846C13.7136 96.5518 14.9215 96.5259 15.6279 95.7882C16.2602 95.1278 17.1117 94.7642 18.0257 94.7642C21.9236 94.7642 25.0946 91.5932 25.0946 87.6953C25.0946 85.8861 26.6041 84.3766 28.4133 84.3766C29.5866 84.3766 30.7282 84.0854 31.7452 83.5414C32.8801 84.323 34.2039 84.7157 35.5285 84.7157C37.2377 84.7157 38.947 84.065 40.2483 82.7638L43.0213 79.9908C45.6236 77.3883 45.6236 73.1538 43.0215 70.5517L42.7591 70.2892C40.1566 67.6868 35.9221 67.6868 33.3196 70.2892L30.5466 73.0621C28.5303 75.0785 28.0774 78.0742 29.1856 80.532C28.9344 80.592 28.676 80.6263 28.4133 80.6263C28.4131 80.6263 28.4131 80.6263 28.4129 80.6263ZM33.1987 75.7142L35.9716 72.9412C37.0971 71.8155 38.9815 71.8153 40.1071 72.941L40.3694 73.2035C41.5097 74.3438 41.5097 76.1989 40.3694 77.3392L37.5965 80.1122C36.4564 81.2524 34.6009 81.2524 33.4608 80.1122L33.1987 79.85C32.0584 78.7095 32.0584 76.8544 33.1987 75.7142Z" fill="black"/>
<path d="M84.3161 34.1743C84.3161 27.7178 79.0633 22.4651 72.6067 22.4651C66.1502 22.4651 60.8975 27.7178 60.8975 34.1743C60.8975 40.6308 66.1502 45.8837 72.6067 45.8837C79.0633 45.8837 84.3161 40.6308 84.3161 34.1743ZM72.6067 42.1334C68.2181 42.1334 64.6478 38.5629 64.6478 34.1743C64.6478 29.7857 68.2183 26.2154 72.6067 26.2154C76.9953 26.2154 80.5658 29.7859 80.5658 34.1743C80.5658 38.5629 76.9953 42.1334 72.6067 42.1334Z" fill="black"/>
<path d="M50.6033 27.5823C50.0319 26.7336 48.8551 26.4994 48.0025 27.0648C47.1496 27.6303 46.9216 28.8148 47.4849 29.6637C48.0491 30.5139 49.2357 30.7502 50.0839 30.1831C50.9326 29.6155 51.17 28.4325 50.6033 27.5823Z" fill="black"/>
<path d="M77.8678 63.5055C77.2891 62.6611 76.1254 62.4196 75.267 62.988C74.4142 63.5526 74.1861 64.7405 74.7494 65.5888C75.3144 66.4394 76.5008 66.6708 77.3484 66.1063C78.199 65.5399 78.4343 64.3555 77.8678 63.5055Z" fill="black"/>
</g>
<defs>
<linearGradient id="paint0_linear_1_13835" x1="28.078" y1="2.23389" x2="94.0988" y2="68.2567" gradientUnits="userSpaceOnUse">
<stop stop-color="#4EBEFF"/>
<stop offset="1" stop-color="#0679BB"/>
</linearGradient>
<clipPath id="clip0_1_13835">
<rect width="96" height="96" fill="white" transform="translate(0 0.358887)"/>
</clipPath>
</defs>
</svg>
