<svg width="41" height="41" viewBox="0 0 41 41" fill="none" xmlns="http://www.w3.org/2000/svg">
<path d="M27.0085 14.3691C26.8735 14.2993 26.7421 14.2228 26.6147 14.1399C26.2444 13.8951 25.9049 13.6067 25.6035 13.2808C24.8494 12.4179 24.5677 11.5426 24.464 10.9297H24.4682C24.3815 10.4209 24.4173 10.0918 24.4228 10.0918H20.9879V23.3736C20.9879 23.552 20.9879 23.7282 20.9804 23.9024C20.9804 23.924 20.9783 23.944 20.9771 23.9674C20.9771 23.9769 20.9771 23.9869 20.975 23.9969V24.0044C20.9388 24.481 20.786 24.9413 20.5302 25.345C20.2743 25.7486 19.9231 26.0832 19.5076 26.3193C19.0745 26.5657 18.5847 26.6949 18.0864 26.6943C16.4861 26.6943 15.189 25.3894 15.189 23.7778C15.189 22.1662 16.4861 20.8613 18.0864 20.8613C18.3893 20.861 18.6904 20.9086 18.9784 21.0025L18.9826 17.5052C18.1082 17.3922 17.2199 17.4617 16.3737 17.7093C15.5275 17.9568 14.7418 18.377 14.0662 18.9434C13.4742 19.4578 12.9764 20.0716 12.5954 20.7571C12.4504 21.0071 11.9034 22.0116 11.8371 23.642C11.7955 24.5673 12.0734 25.526 12.2059 25.9223V25.9306C12.2892 26.1639 12.6121 26.9601 13.1383 27.6313C13.5626 28.1698 14.064 28.6427 14.6262 29.035V29.0267L14.6345 29.035C16.2973 30.165 18.141 30.0908 18.141 30.0908C18.4601 30.0779 19.5292 30.0908 20.7434 29.5154C22.09 28.8775 22.8566 27.9272 22.8566 27.9272C23.3463 27.3593 23.7358 26.7122 24.0082 26.0135C24.319 25.1965 24.4228 24.2165 24.4228 23.8249V16.7785C24.4644 16.8035 25.0194 17.1706 25.0194 17.1706C25.0194 17.1706 25.8189 17.6831 27.0664 18.0168C27.9613 18.2543 29.1671 18.3043 29.1671 18.3043V14.8945C28.7446 14.9403 27.8867 14.807 27.0085 14.3691Z" fill="white"/>
<rect x="1" y="0.591797" width="39" height="39" rx="19.5" stroke="white"/>
</svg>
