<svg width="760" height="699" viewBox="0 0 760 699" fill="none" xmlns="http://www.w3.org/2000/svg">
<circle cx="354.428" cy="311.36" r="249.141" stroke="#D9D9D9" stroke-dasharray="4 4"/>
<circle cx="354.427" cy="311.359" r="190.583" stroke="#D9D9D9" stroke-dasharray="4 4"/>
<g filter="url(#filter0_d_1_13755)">
<path fill-rule="evenodd" clip-rule="evenodd" d="M719.999 303.654C719.999 360.873 673.614 407.259 616.394 407.259C559.175 407.259 512.789 360.873 512.789 303.654C512.789 246.434 559.175 200.049 616.394 200.049C673.614 200.049 719.999 246.434 719.999 303.654ZM616.394 379.163C658.096 379.163 691.903 345.356 691.903 303.654C691.903 261.952 658.096 228.145 616.394 228.145C574.692 228.145 540.885 261.952 540.885 303.654C540.885 345.356 574.692 379.163 616.394 379.163Z" fill="url(#paint0_linear_1_13755)"/>
</g>
<g filter="url(#filter1_d_1_13755)">
<path fill-rule="evenodd" clip-rule="evenodd" d="M239.21 132.605C239.21 189.824 192.824 236.21 135.605 236.21C78.3855 236.21 32 189.824 32 132.605C32 75.3855 78.3855 29 135.605 29C192.824 29 239.21 75.3855 239.21 132.605ZM135.605 208.114C177.307 208.114 211.114 174.307 211.114 132.605C211.114 90.9027 177.307 57.0963 135.605 57.0963C93.9027 57.0963 60.0963 90.9027 60.0963 132.605C60.0963 174.307 93.9027 208.114 135.605 208.114Z" fill="url(#paint1_linear_1_13755)"/>
</g>
<g filter="url(#filter2_d_1_13755)">
<path fill-rule="evenodd" clip-rule="evenodd" d="M327.048 551.754C327.048 608.973 280.662 655.359 223.443 655.359C166.223 655.359 119.838 608.973 119.838 551.754C119.838 494.534 166.223 448.149 223.443 448.149C280.662 448.149 327.048 494.534 327.048 551.754ZM223.443 627.263C265.145 627.263 298.952 593.456 298.952 551.754C298.952 510.052 265.145 476.245 223.443 476.245C181.741 476.245 147.934 510.052 147.934 551.754C147.934 593.456 181.741 627.263 223.443 627.263Z" fill="url(#paint2_linear_1_13755)"/>
</g>
<circle cx="354.5" cy="311.5" r="141" stroke="#D9D9D9" stroke-dasharray="4 4"/>
<path d="M692.017 303.509C692.017 345.211 658.211 379.017 616.509 379.017C574.806 379.017 541 345.211 541 303.509C541 261.806 574.806 228 616.509 228C658.211 228 692.017 261.806 692.017 303.509Z" fill="white"/>
<path d="M211.017 132.509C211.017 174.211 177.211 208.017 135.509 208.017C93.8064 208.017 60 174.211 60 132.509C60 90.8064 93.8064 57 135.509 57C177.211 57 211.017 90.8064 211.017 132.509Z" fill="white"/>
<path d="M299.017 551.509C299.017 593.211 265.211 627.017 223.509 627.017C181.806 627.017 148 593.211 148 551.509C148 509.806 181.806 476 223.509 476C265.211 476 299.017 509.806 299.017 551.509Z" fill="white"/>
<path d="M187.099 541.391C187.938 541.876 188.871 542.117 189.861 542.117C190.353 542.117 190.859 542.057 191.375 541.939C189.664 539.152 188.676 535.875 188.676 532.372C188.676 527.818 190.345 523.647 193.104 520.437C188.855 522.953 186 527.583 186 532.868V539.489C186 540.274 186.419 540.999 187.099 541.391Z" fill="url(#paint3_linear_1_13755)"/>
<path d="M207.162 528.975C205.283 530.931 203.102 532.123 200.653 532.527C199.975 532.64 199.297 532.688 198.628 532.688C196.642 532.688 194.728 532.257 193.084 531.767C193.076 531.968 193.07 532.169 193.07 532.372C193.07 540.059 199.324 546.313 207.011 546.313C214.699 546.313 220.953 540.059 220.953 532.372C220.953 532.158 220.947 531.946 220.937 531.734C215.434 533.157 210.898 532.253 207.162 528.975Z" fill="url(#paint4_linear_1_13755)"/>
<path d="M205.208 524.434C205.597 523.874 206.224 523.527 206.905 523.494C207.588 523.462 208.243 523.746 208.685 524.265C211.696 527.804 215.118 528.765 220.045 527.425C218.045 522.173 212.957 518.431 207.011 518.431C201.059 518.431 195.967 522.181 193.971 527.443C198.739 528.927 202.146 528.833 205.208 524.434Z" fill="url(#paint5_linear_1_13755)"/>
<path d="M212.361 561.125C212.361 567.183 217.29 572.112 223.348 572.112C229.405 572.112 234.334 567.183 234.334 561.125C234.334 555.801 230.526 551.351 225.492 550.35C225.82 552.002 227.056 553.322 228.701 553.746C229.876 554.049 230.583 555.248 230.279 556.423C230.023 557.413 229.131 558.071 228.153 558.071C227.971 558.071 227.787 558.049 227.602 558.001C224.16 557.113 221.607 554.265 221.1 550.745C221.082 550.621 221.077 550.497 221.08 550.375C216.106 551.423 212.361 555.844 212.361 561.125Z" fill="url(#paint6_linear_1_13755)"/>
<path d="M239.989 550.708C237.656 550.708 235.425 550.269 233.371 549.472C235.081 550.944 236.465 552.784 237.398 554.869L240.941 557.238L254.945 548.304C254.114 547.461 253.213 546.686 252.251 545.992C249 548.922 244.699 550.708 239.989 550.708Z" fill="url(#paint7_linear_1_13755)"/>
<path d="M257.703 551.757L242.095 561.714C241.735 561.944 241.324 562.059 240.913 562.059C240.488 562.059 240.062 561.935 239.693 561.689L238.727 561.043C238.727 561.071 238.728 561.098 238.728 561.125C238.728 566.722 235.723 571.63 231.241 574.321C235.955 575.972 240.101 579.084 243.012 583.308C243.278 583.693 243.402 584.133 243.399 584.568H247.833C247.823 584.483 247.816 584.397 247.816 584.309V571.711C247.816 570.498 248.8 569.514 250.014 569.514C251.227 569.514 252.211 570.498 252.211 571.711V584.309C252.211 584.397 252.204 584.483 252.194 584.568H258.803C260.016 584.568 261 583.585 261 582.371V563.044C261 558.893 259.789 555.019 257.703 551.757Z" fill="url(#paint8_linear_1_13755)"/>
<path d="M207.011 550.708C202.303 550.708 198.004 548.923 194.753 545.996C193.822 546.666 192.95 547.413 192.142 548.224C195.134 553.221 200.569 556.313 206.409 556.313C207.02 556.313 207.638 556.279 208.245 556.212C208.423 556.192 208.599 556.196 208.77 556.219C209.629 553.671 211.141 551.422 213.103 549.666C211.196 550.34 209.146 550.708 207.011 550.708Z" fill="url(#paint9_linear_1_13755)"/>
<path d="M223.348 577.373C217.456 577.373 211.915 580.035 208.232 584.563H221.072C221.106 584.565 221.14 584.569 221.174 584.569H238.467C234.785 580.038 229.241 577.373 223.348 577.373Z" fill="url(#paint10_linear_1_13755)"/>
<path d="M207.967 561.125C207.967 560.965 207.97 560.806 207.975 560.648C207.454 560.686 206.929 560.708 206.408 560.708C199.568 560.708 193.166 557.353 189.253 551.834C187.194 555.082 186 558.929 186 563.05V582.366C186 583.58 186.984 584.563 188.197 584.563H194.805C194.795 584.48 194.789 584.395 194.789 584.309V572.151C194.789 570.938 195.773 569.954 196.986 569.954C198.2 569.954 199.184 570.938 199.184 572.151V584.309C199.184 584.395 199.178 584.48 199.168 584.563H203.289C203.289 584.134 203.413 583.699 203.675 583.318C206.587 579.089 210.736 575.973 215.454 574.321C210.972 571.63 207.967 566.722 207.967 561.125Z" fill="url(#paint11_linear_1_13755)"/>
<path d="M238.185 524.434C238.575 523.874 239.202 523.527 239.882 523.494C240.566 523.462 241.221 523.746 241.662 524.265C244.673 527.804 248.096 528.765 253.022 527.425C251.022 522.173 245.934 518.431 239.988 518.431C234.036 518.431 228.944 522.181 226.948 527.443C231.717 528.927 235.123 528.833 238.185 524.434Z" fill="url(#paint12_linear_1_13755)"/>
<path d="M239.989 546.313C247.676 546.313 253.93 540.059 253.93 532.372C253.93 532.158 253.924 531.946 253.915 531.734C248.412 533.157 243.875 532.253 240.139 528.975C238.26 530.931 236.079 532.123 233.63 532.527C232.952 532.64 232.275 532.688 231.606 532.688C229.619 532.688 227.706 532.257 226.061 531.767C226.053 531.968 226.048 532.169 226.048 532.372C226.048 540.059 232.301 546.313 239.989 546.313Z" fill="url(#paint13_linear_1_13755)"/>
<path fill-rule="evenodd" clip-rule="evenodd" d="M100.197 117.559C98.9838 117.559 98 118.542 98 119.756V167.803C98 169.016 98.9838 170 100.197 170C101.411 170 102.395 169.016 102.395 167.803V119.756C102.395 118.542 101.411 117.559 100.197 117.559Z" fill="url(#paint14_linear_1_13755)"/>
<path fill-rule="evenodd" clip-rule="evenodd" d="M170.803 105.84C169.589 105.84 168.605 106.824 168.605 108.037V167.803C168.605 169.016 169.589 170 170.803 170C172.016 170 173 169.016 173 167.803V108.037C173 106.824 172.016 105.84 170.803 105.84Z" fill="url(#paint15_linear_1_13755)"/>
<path fill-rule="evenodd" clip-rule="evenodd" d="M106.789 128.25H164.211V141.434H106.789V128.25Z" fill="url(#paint16_linear_1_13755)"/>
<path fill-rule="evenodd" clip-rule="evenodd" d="M106.789 152.577H164.211V156.971H106.789V152.577Z" fill="url(#paint17_linear_1_13755)"/>
<path fill-rule="evenodd" clip-rule="evenodd" d="M144.326 117.284C145.65 121.186 149.346 124.004 153.69 124.004C159.142 124.004 163.578 119.568 163.578 114.116C163.578 108.664 159.142 104.228 153.69 104.228C149.826 104.228 146.475 106.457 144.849 109.695V100.493C144.849 97.4642 142.385 95 139.356 95C136.327 95 133.863 97.4642 133.863 100.493V104.228H127.567V108.548C127.567 108.582 127.565 108.616 127.564 108.65V124.004H134.962C139.306 124.004 143.002 121.186 144.326 117.284Z" fill="url(#paint18_linear_1_13755)"/>
<path fill-rule="evenodd" clip-rule="evenodd" d="M109.881 111.567C109.664 112.381 109.547 113.235 109.547 114.116C109.547 119.568 113.982 124.004 119.434 124.004H123.17V116.337C121.796 117.169 120.186 117.649 118.465 117.649C114.505 117.649 111.13 115.105 109.881 111.567Z" fill="url(#paint19_linear_1_13755)"/>
<path fill-rule="evenodd" clip-rule="evenodd" d="M110.154 104.16L113.759 105.823V108.548C113.759 111.143 115.87 113.255 118.465 113.255C121.061 113.255 123.172 111.143 123.172 108.548V102.9C123.172 102.034 122.933 101.186 122.479 100.447C121.991 99.5882 121.26 98.9163 120.365 98.5033L114.166 95.6439C111.916 94.606 109.219 95.4531 108.026 97.5726C107.384 98.7137 107.247 100.084 107.651 101.332C108.055 102.582 108.968 103.613 110.154 104.16Z" fill="url(#paint20_linear_1_13755)"/>
<path d="M596.584 330.498C597.417 331.702 598.365 332.841 599.424 333.9C604.002 338.479 610.067 341 616.5 341C622.933 341 628.998 338.479 633.576 333.9C638.155 329.322 640.676 323.257 640.676 316.824V303.015L596.584 330.498Z" fill="url(#paint21_linear_1_13755)"/>
<path d="M601.577 302.866C601.986 301.25 602.676 299.743 603.653 298.325C602.436 296.479 601.605 294.357 601.277 292.074H601.272C600.058 292.074 599.074 291.09 599.074 289.877C599.074 288.663 600.058 287.68 601.272 287.68H601.277C602.347 280.236 608.765 274.496 616.5 274.496C624.235 274.496 630.654 280.236 631.723 287.68H631.741C632.954 287.68 633.938 288.663 633.938 289.877C633.938 291.09 632.954 292.074 631.741 292.074H631.723C631.395 294.36 630.562 296.484 629.342 298.332C630.411 299.903 631.18 301.649 631.615 303.484L640.676 297.836V290.176C640.676 283.743 638.154 277.678 633.576 273.1C628.998 268.521 622.933 266 616.5 266C610.067 266 604.002 268.521 599.424 273.1C594.846 277.678 592.324 283.743 592.324 290.176V295.716L601.577 302.866Z" fill="url(#paint22_linear_1_13755)"/>
<path d="M592.324 301.27V316.824C592.324 320.268 593.048 323.606 594.422 326.667L611.454 316.051L592.324 301.27Z" fill="url(#paint23_linear_1_13755)"/>
<path d="M627.588 305.994C627.445 304.501 626.999 303.053 626.282 301.738C623.621 303.936 620.212 305.258 616.5 305.258C612.78 305.258 609.365 303.93 606.702 301.725C605.996 303.008 605.624 304.373 605.54 305.928L615.432 313.571L627.588 305.994Z" fill="url(#paint24_linear_1_13755)"/>
<path d="M616.5 300.863C622.558 300.863 627.486 295.935 627.486 289.877C627.486 284.553 623.679 280.102 618.644 279.102C618.973 280.753 620.209 282.073 621.853 282.498C623.028 282.801 623.735 283.999 623.432 285.174C623.176 286.165 622.284 286.823 621.306 286.823C621.124 286.823 620.939 286.8 620.755 286.753C617.312 285.864 614.76 283.016 614.252 279.497C614.234 279.372 614.23 279.249 614.233 279.127C609.284 280.17 605.553 284.552 605.516 289.798C605.517 289.824 605.52 289.85 605.52 289.877C605.52 289.904 605.517 289.93 605.516 289.956C605.559 295.977 610.469 300.863 616.5 300.863Z" fill="url(#paint25_linear_1_13755)"/>
<circle cx="354.788" cy="311.788" r="104.788" fill="url(#paint26_linear_1_13755)"/>
<g clip-path="url(#clip0_1_13755)">
<path d="M355 262C327.43 262 305 284.43 305 312C305 339.57 327.43 362 355 362C382.57 362 405 339.57 405 312C405 284.43 382.57 262 355 262ZM355 356.141C330.661 356.141 310.859 336.339 310.859 312C310.859 297.534 317.854 284.672 328.639 276.616C336.505 281.232 336.338 285.112 336.105 290.441C335.85 296.295 335.542 303.439 346.584 310.555C344.935 311.559 343.36 312.761 341.885 314.148H338.304C337.762 314.148 337.231 314.299 336.769 314.582L326.874 320.667C326.861 320.675 326.847 320.683 326.834 320.692C324.86 321.95 323.492 323.908 322.983 326.204C322.474 328.501 322.887 330.853 324.145 332.827C325.399 334.794 327.355 336.142 329.655 336.623C330.269 336.752 330.892 336.815 331.516 336.815C333.105 336.815 334.696 336.404 336.131 335.605L342.959 331.805C347.109 336.162 352.709 338.616 358.663 338.616C370.574 338.616 380.328 328.735 380.881 316.369C383.454 315.168 385.646 313.313 387.264 310.955C389.091 308.292 390.056 305.177 390.056 301.947C390.056 293.167 382.913 286.023 374.132 286.023C365.352 286.023 358.208 293.167 358.208 301.947C358.208 303.653 358.477 305.32 358.996 306.906C357.076 306.923 355.168 307.184 353.303 307.674C347.856 304.843 344.48 301.966 342.982 298.882C341.716 296.273 341.829 293.688 341.959 290.696C342.186 285.487 342.462 279.128 334.061 273.151C340.295 269.777 347.428 267.859 355 267.859C379.339 267.859 399.141 287.661 399.141 312C399.141 336.339 379.339 356.141 355 356.141V356.141ZM362.889 313.162C364.432 313.497 365.944 312.523 366.338 311.013C366.614 309.952 366.637 308.759 365.972 307.839C364.727 306.113 364.068 304.076 364.068 301.947C364.068 296.398 368.583 291.883 374.132 291.883C379.682 291.883 384.197 296.398 384.197 301.947C384.197 306.104 381.619 309.616 377.897 311.269C376.161 312.039 375.048 313.329 375.048 315.261C375.048 324.908 367.698 332.757 358.663 332.757C353.826 332.757 349.292 330.509 346.171 326.578C345.366 325.215 343.619 324.733 342.227 325.507L333.281 330.485C331.732 331.347 329.929 331 329.086 329.678C328.669 329.023 328.533 328.24 328.703 327.471C328.872 326.71 329.32 326.061 329.966 325.644L339.132 320.008H343.172C344.2 320.008 345.103 319.477 345.626 318.676C349.561 314.859 354.363 312.763 359.201 312.763C360.432 312.763 361.673 312.897 362.889 313.162V313.162Z" fill="white"/>
</g>
<defs>
<filter id="filter0_d_1_13755" x="480.789" y="171.049" width="279.21" height="279.21" filterUnits="userSpaceOnUse" color-interpolation-filters="sRGB">
<feFlood flood-opacity="0" result="BackgroundImageFix"/>
<feColorMatrix in="SourceAlpha" type="matrix" values="0 0 0 0 0 0 0 0 0 0 0 0 0 0 0 0 0 0 127 0" result="hardAlpha"/>
<feOffset dx="4" dy="7"/>
<feGaussianBlur stdDeviation="18"/>
<feComposite in2="hardAlpha" operator="out"/>
<feColorMatrix type="matrix" values="0 0 0 0 0.00343752 0 0 0 0 0.594263 0 0 0 0 0.825 0 0 0 0.21 0"/>
<feBlend mode="normal" in2="BackgroundImageFix" result="effect1_dropShadow_1_13755"/>
<feBlend mode="normal" in="SourceGraphic" in2="effect1_dropShadow_1_13755" result="shape"/>
</filter>
<filter id="filter1_d_1_13755" x="0" y="0" width="279.21" height="279.21" filterUnits="userSpaceOnUse" color-interpolation-filters="sRGB">
<feFlood flood-opacity="0" result="BackgroundImageFix"/>
<feColorMatrix in="SourceAlpha" type="matrix" values="0 0 0 0 0 0 0 0 0 0 0 0 0 0 0 0 0 0 127 0" result="hardAlpha"/>
<feOffset dx="4" dy="7"/>
<feGaussianBlur stdDeviation="18"/>
<feComposite in2="hardAlpha" operator="out"/>
<feColorMatrix type="matrix" values="0 0 0 0 0.00343752 0 0 0 0 0.594263 0 0 0 0 0.825 0 0 0 0.21 0"/>
<feBlend mode="normal" in2="BackgroundImageFix" result="effect1_dropShadow_1_13755"/>
<feBlend mode="normal" in="SourceGraphic" in2="effect1_dropShadow_1_13755" result="shape"/>
</filter>
<filter id="filter2_d_1_13755" x="87.8379" y="419.149" width="279.21" height="279.21" filterUnits="userSpaceOnUse" color-interpolation-filters="sRGB">
<feFlood flood-opacity="0" result="BackgroundImageFix"/>
<feColorMatrix in="SourceAlpha" type="matrix" values="0 0 0 0 0 0 0 0 0 0 0 0 0 0 0 0 0 0 127 0" result="hardAlpha"/>
<feOffset dx="4" dy="7"/>
<feGaussianBlur stdDeviation="18"/>
<feComposite in2="hardAlpha" operator="out"/>
<feColorMatrix type="matrix" values="0 0 0 0 0.00343752 0 0 0 0 0.594263 0 0 0 0 0.825 0 0 0 0.21 0"/>
<feBlend mode="normal" in2="BackgroundImageFix" result="effect1_dropShadow_1_13755"/>
<feBlend mode="normal" in="SourceGraphic" in2="effect1_dropShadow_1_13755" result="shape"/>
</filter>
<linearGradient id="paint0_linear_1_13755" x1="512.789" y1="304.073" x2="719.999" y2="304.073" gradientUnits="userSpaceOnUse">
<stop stop-color="#73D090"/>
<stop offset="0.0001" stop-color="#C4EACE"/>
<stop offset="1" stop-color="#53CAFB"/>
</linearGradient>
<linearGradient id="paint1_linear_1_13755" x1="32" y1="133.024" x2="239.21" y2="133.024" gradientUnits="userSpaceOnUse">
<stop stop-color="#73D090"/>
<stop offset="0.0001" stop-color="#C4EACE"/>
<stop offset="1" stop-color="#53CAFB"/>
</linearGradient>
<linearGradient id="paint2_linear_1_13755" x1="119.838" y1="552.173" x2="327.048" y2="552.173" gradientUnits="userSpaceOnUse">
<stop stop-color="#73D090"/>
<stop offset="0.0001" stop-color="#C4EACE"/>
<stop offset="1" stop-color="#53CAFB"/>
</linearGradient>
<linearGradient id="paint3_linear_1_13755" x1="186" y1="551.634" x2="261" y2="551.634" gradientUnits="userSpaceOnUse">
<stop stop-color="#73D090"/>
<stop offset="0.0001" stop-color="#C4EACE"/>
<stop offset="1" stop-color="#53CAFB"/>
</linearGradient>
<linearGradient id="paint4_linear_1_13755" x1="186" y1="551.634" x2="261" y2="551.634" gradientUnits="userSpaceOnUse">
<stop stop-color="#73D090"/>
<stop offset="0.0001" stop-color="#C4EACE"/>
<stop offset="1" stop-color="#53CAFB"/>
</linearGradient>
<linearGradient id="paint5_linear_1_13755" x1="186" y1="551.634" x2="261" y2="551.634" gradientUnits="userSpaceOnUse">
<stop stop-color="#73D090"/>
<stop offset="0.0001" stop-color="#C4EACE"/>
<stop offset="1" stop-color="#53CAFB"/>
</linearGradient>
<linearGradient id="paint6_linear_1_13755" x1="186" y1="551.634" x2="261" y2="551.634" gradientUnits="userSpaceOnUse">
<stop stop-color="#73D090"/>
<stop offset="0.0001" stop-color="#C4EACE"/>
<stop offset="1" stop-color="#53CAFB"/>
</linearGradient>
<linearGradient id="paint7_linear_1_13755" x1="186" y1="551.634" x2="261" y2="551.634" gradientUnits="userSpaceOnUse">
<stop stop-color="#73D090"/>
<stop offset="0.0001" stop-color="#C4EACE"/>
<stop offset="1" stop-color="#53CAFB"/>
</linearGradient>
<linearGradient id="paint8_linear_1_13755" x1="186" y1="551.634" x2="261" y2="551.634" gradientUnits="userSpaceOnUse">
<stop stop-color="#73D090"/>
<stop offset="0.0001" stop-color="#C4EACE"/>
<stop offset="1" stop-color="#53CAFB"/>
</linearGradient>
<linearGradient id="paint9_linear_1_13755" x1="186" y1="551.634" x2="261" y2="551.634" gradientUnits="userSpaceOnUse">
<stop stop-color="#73D090"/>
<stop offset="0.0001" stop-color="#C4EACE"/>
<stop offset="1" stop-color="#53CAFB"/>
</linearGradient>
<linearGradient id="paint10_linear_1_13755" x1="186" y1="551.634" x2="261" y2="551.634" gradientUnits="userSpaceOnUse">
<stop stop-color="#73D090"/>
<stop offset="0.0001" stop-color="#C4EACE"/>
<stop offset="1" stop-color="#53CAFB"/>
</linearGradient>
<linearGradient id="paint11_linear_1_13755" x1="186" y1="551.634" x2="261" y2="551.634" gradientUnits="userSpaceOnUse">
<stop stop-color="#73D090"/>
<stop offset="0.0001" stop-color="#C4EACE"/>
<stop offset="1" stop-color="#53CAFB"/>
</linearGradient>
<linearGradient id="paint12_linear_1_13755" x1="186" y1="551.634" x2="261" y2="551.634" gradientUnits="userSpaceOnUse">
<stop stop-color="#73D090"/>
<stop offset="0.0001" stop-color="#C4EACE"/>
<stop offset="1" stop-color="#53CAFB"/>
</linearGradient>
<linearGradient id="paint13_linear_1_13755" x1="186" y1="551.634" x2="261" y2="551.634" gradientUnits="userSpaceOnUse">
<stop stop-color="#73D090"/>
<stop offset="0.0001" stop-color="#C4EACE"/>
<stop offset="1" stop-color="#53CAFB"/>
</linearGradient>
<linearGradient id="paint14_linear_1_13755" x1="98" y1="132.652" x2="173" y2="132.652" gradientUnits="userSpaceOnUse">
<stop stop-color="#73D090"/>
<stop offset="0.0001" stop-color="#C4EACE"/>
<stop offset="1" stop-color="#53CAFB"/>
</linearGradient>
<linearGradient id="paint15_linear_1_13755" x1="98" y1="132.652" x2="173" y2="132.652" gradientUnits="userSpaceOnUse">
<stop stop-color="#73D090"/>
<stop offset="0.0001" stop-color="#C4EACE"/>
<stop offset="1" stop-color="#53CAFB"/>
</linearGradient>
<linearGradient id="paint16_linear_1_13755" x1="98" y1="132.652" x2="173" y2="132.652" gradientUnits="userSpaceOnUse">
<stop stop-color="#73D090"/>
<stop offset="0.0001" stop-color="#C4EACE"/>
<stop offset="1" stop-color="#53CAFB"/>
</linearGradient>
<linearGradient id="paint17_linear_1_13755" x1="98" y1="132.652" x2="173" y2="132.652" gradientUnits="userSpaceOnUse">
<stop stop-color="#73D090"/>
<stop offset="0.0001" stop-color="#C4EACE"/>
<stop offset="1" stop-color="#53CAFB"/>
</linearGradient>
<linearGradient id="paint18_linear_1_13755" x1="98" y1="132.652" x2="173" y2="132.652" gradientUnits="userSpaceOnUse">
<stop stop-color="#73D090"/>
<stop offset="0.0001" stop-color="#C4EACE"/>
<stop offset="1" stop-color="#53CAFB"/>
</linearGradient>
<linearGradient id="paint19_linear_1_13755" x1="98" y1="132.652" x2="173" y2="132.652" gradientUnits="userSpaceOnUse">
<stop stop-color="#73D090"/>
<stop offset="0.0001" stop-color="#C4EACE"/>
<stop offset="1" stop-color="#53CAFB"/>
</linearGradient>
<linearGradient id="paint20_linear_1_13755" x1="98" y1="132.652" x2="173" y2="132.652" gradientUnits="userSpaceOnUse">
<stop stop-color="#73D090"/>
<stop offset="0.0001" stop-color="#C4EACE"/>
<stop offset="1" stop-color="#53CAFB"/>
</linearGradient>
<linearGradient id="paint21_linear_1_13755" x1="592.324" y1="303.652" x2="640.676" y2="303.652" gradientUnits="userSpaceOnUse">
<stop stop-color="#73D090"/>
<stop offset="0.0001" stop-color="#C4EACE"/>
<stop offset="1" stop-color="#53CAFB"/>
</linearGradient>
<linearGradient id="paint22_linear_1_13755" x1="592.324" y1="303.652" x2="640.676" y2="303.652" gradientUnits="userSpaceOnUse">
<stop stop-color="#73D090"/>
<stop offset="0.0001" stop-color="#C4EACE"/>
<stop offset="1" stop-color="#53CAFB"/>
</linearGradient>
<linearGradient id="paint23_linear_1_13755" x1="592.324" y1="303.652" x2="640.676" y2="303.652" gradientUnits="userSpaceOnUse">
<stop stop-color="#73D090"/>
<stop offset="0.0001" stop-color="#C4EACE"/>
<stop offset="1" stop-color="#53CAFB"/>
</linearGradient>
<linearGradient id="paint24_linear_1_13755" x1="592.324" y1="303.652" x2="640.676" y2="303.652" gradientUnits="userSpaceOnUse">
<stop stop-color="#73D090"/>
<stop offset="0.0001" stop-color="#C4EACE"/>
<stop offset="1" stop-color="#53CAFB"/>
</linearGradient>
<linearGradient id="paint25_linear_1_13755" x1="592.324" y1="303.652" x2="640.676" y2="303.652" gradientUnits="userSpaceOnUse">
<stop stop-color="#73D090"/>
<stop offset="0.0001" stop-color="#C4EACE"/>
<stop offset="1" stop-color="#53CAFB"/>
</linearGradient>
<linearGradient id="paint26_linear_1_13755" x1="250" y1="312.212" x2="459.575" y2="312.212" gradientUnits="userSpaceOnUse">
<stop stop-color="#26BA5F"/>
<stop offset="0.0001" stop-color="#26BA5F"/>
<stop offset="1" stop-color="#08B2FB"/>
</linearGradient>
<clipPath id="clip0_1_13755">
<rect width="100" height="100" fill="white" transform="translate(305 262)"/>
</clipPath>
</defs>
</svg>
