<svg width="237" height="24" viewBox="0 0 237 24" fill="none" xmlns="http://www.w3.org/2000/svg">
<path d="M12 3.1001C16.667 8.0271 16.667 15.9731 12 20.9001" stroke="white" stroke-width="1.5" stroke-linecap="round" stroke-linejoin="round"/>
<path d="M12 20.9001C7.33301 15.9731 7.33301 8.0271 12 3.1001" stroke="white" stroke-width="1.5" stroke-linecap="round" stroke-linejoin="round"/>
<path d="M12 3C16.982 3 21 7.018 21 12C21 16.982 16.982 21 12 21" stroke="white" stroke-width="1.5" stroke-linecap="round" stroke-linejoin="round"/>
<path d="M12 21C7.018 21 3 16.982 3 12C3 7.018 7.018 3 12 3" stroke="white" stroke-width="1.5" stroke-linecap="round" stroke-linejoin="round"/>
<path d="M3.51001 9H20.49" stroke="white" stroke-width="1.5" stroke-linecap="round" stroke-linejoin="round"/>
<path d="M3.51001 15H20.49" stroke="white" stroke-width="1.5" stroke-linecap="round" stroke-linejoin="round"/>
<path d="M30.584 6.5V17H28.7725V6.5H30.584ZM30.2969 13.0352H29.7637C29.7637 12.5202 29.832 12.0462 29.9688 11.6133C30.1055 11.1803 30.2992 10.8044 30.5498 10.4854C30.8005 10.1618 31.099 9.91113 31.4453 9.7334C31.7962 9.55566 32.1836 9.4668 32.6074 9.4668C32.972 9.4668 33.3024 9.51921 33.5986 9.62402C33.8994 9.72428 34.1569 9.88607 34.3711 10.1094C34.5853 10.3327 34.7493 10.6243 34.8633 10.9844C34.9818 11.3398 35.041 11.7728 35.041 12.2832V17H33.2227V12.2695C33.2227 11.9277 33.1725 11.6589 33.0723 11.4629C32.972 11.2624 32.8285 11.1188 32.6416 11.0322C32.4593 10.9456 32.2337 10.9023 31.9648 10.9023C31.6732 10.9023 31.4225 10.9593 31.2129 11.0732C31.0033 11.1826 30.8301 11.3353 30.6934 11.5312C30.5612 11.7272 30.4609 11.9528 30.3926 12.208C30.3288 12.4632 30.2969 12.7389 30.2969 13.0352ZM40.1338 9.60352V10.9023H35.8955V9.60352H40.1338ZM37.0303 7.78516H38.8418V14.8672C38.8418 15.0859 38.8714 15.2546 38.9307 15.373C38.9899 15.4915 39.0788 15.5713 39.1973 15.6123C39.3158 15.6533 39.457 15.6738 39.6211 15.6738C39.7396 15.6738 39.849 15.667 39.9492 15.6533C40.0495 15.6396 40.1338 15.626 40.2021 15.6123L40.209 16.9658C40.0586 17.016 39.8877 17.057 39.6963 17.0889C39.5094 17.1208 39.2975 17.1367 39.0605 17.1367C38.6549 17.1367 38.2995 17.0684 37.9941 16.9316C37.6888 16.7904 37.4518 16.5648 37.2832 16.2549C37.1146 15.9404 37.0303 15.5257 37.0303 15.0107V7.78516ZM44.8369 9.60352V10.9023H40.5986V9.60352H44.8369ZM41.7334 7.78516H43.5449V14.8672C43.5449 15.0859 43.5745 15.2546 43.6338 15.373C43.693 15.4915 43.7819 15.5713 43.9004 15.6123C44.0189 15.6533 44.1602 15.6738 44.3242 15.6738C44.4427 15.6738 44.5521 15.667 44.6523 15.6533C44.7526 15.6396 44.8369 15.626 44.9053 15.6123L44.9121 16.9658C44.7617 17.016 44.5908 17.057 44.3994 17.0889C44.2126 17.1208 44.0007 17.1367 43.7637 17.1367C43.3581 17.1367 43.0026 17.0684 42.6973 16.9316C42.3919 16.7904 42.1549 16.5648 41.9863 16.2549C41.8177 15.9404 41.7334 15.5257 41.7334 15.0107V7.78516ZM47.8447 11.0254V19.8438H46.0332V9.60352H47.708L47.8447 11.0254ZM52.5957 13.2266V13.3701C52.5957 13.9079 52.5319 14.4069 52.4043 14.8672C52.2812 15.3229 52.099 15.7217 51.8574 16.0635C51.6159 16.4007 51.3151 16.665 50.9551 16.8564C50.5996 17.0433 50.1895 17.1367 49.7246 17.1367C49.2689 17.1367 48.8724 17.0501 48.5352 16.877C48.1979 16.6992 47.9131 16.4486 47.6807 16.125C47.4482 15.8014 47.2614 15.4255 47.1201 14.9971C46.9834 14.5641 46.8809 14.0924 46.8125 13.582V13.124C46.8809 12.5817 46.9834 12.0895 47.1201 11.6475C47.2614 11.2008 47.4482 10.8158 47.6807 10.4922C47.9131 10.1641 48.1956 9.91113 48.5283 9.7334C48.8656 9.55566 49.2598 9.4668 49.7109 9.4668C50.1803 9.4668 50.5928 9.55566 50.9482 9.7334C51.3083 9.91113 51.6113 10.1663 51.8574 10.499C52.1035 10.8317 52.2881 11.2282 52.4111 11.6885C52.5342 12.1488 52.5957 12.6615 52.5957 13.2266ZM50.7842 13.3701V13.2266C50.7842 12.8984 50.7546 12.5954 50.6953 12.3174C50.6361 12.0348 50.5449 11.7887 50.4219 11.5791C50.2988 11.3649 50.1393 11.1986 49.9434 11.0801C49.7474 10.9616 49.5104 10.9023 49.2324 10.9023C48.9544 10.9023 48.7152 10.9479 48.5146 11.0391C48.3141 11.1302 48.1501 11.2601 48.0225 11.4287C47.8949 11.5973 47.7946 11.7979 47.7217 12.0303C47.6533 12.2581 47.6077 12.5111 47.585 12.7891V13.9238C47.626 14.2611 47.7057 14.5641 47.8242 14.833C47.9427 15.1019 48.1159 15.3161 48.3438 15.4756C48.5762 15.6351 48.877 15.7148 49.2461 15.7148C49.5241 15.7148 49.7611 15.6533 49.957 15.5303C50.153 15.4072 50.3125 15.2386 50.4355 15.0244C50.5586 14.8057 50.6475 14.555 50.7021 14.2725C50.7568 13.9899 50.7842 13.6891 50.7842 13.3701ZM57.9824 14.9766C57.9824 14.8216 57.9414 14.6826 57.8594 14.5596C57.7773 14.4365 57.6224 14.3249 57.3945 14.2246C57.1712 14.1198 56.8431 14.0218 56.4102 13.9307C56.0273 13.8486 55.6742 13.7461 55.3506 13.623C55.027 13.5 54.749 13.3519 54.5166 13.1787C54.2842 13.001 54.1019 12.7936 53.9697 12.5566C53.8421 12.3151 53.7783 12.0371 53.7783 11.7227C53.7783 11.4173 53.8444 11.1302 53.9766 10.8613C54.1087 10.5879 54.3001 10.3486 54.5508 10.1436C54.8014 9.93392 55.1068 9.76986 55.4668 9.65137C55.8268 9.52832 56.2324 9.4668 56.6836 9.4668C57.3125 9.4668 57.8525 9.56934 58.3037 9.77441C58.7594 9.97949 59.1081 10.262 59.3496 10.6221C59.5911 10.9775 59.7119 11.3786 59.7119 11.8252H57.9072C57.9072 11.6292 57.8617 11.4515 57.7705 11.292C57.6839 11.1325 57.5495 11.0049 57.3672 10.9092C57.1849 10.8089 56.9548 10.7588 56.6768 10.7588C56.4261 10.7588 56.2142 10.7998 56.041 10.8818C55.8724 10.9639 55.7448 11.071 55.6582 11.2031C55.5716 11.3353 55.5283 11.4811 55.5283 11.6406C55.5283 11.7591 55.5511 11.8662 55.5967 11.9619C55.6468 12.0531 55.7266 12.1374 55.8359 12.2148C55.9453 12.2923 56.0934 12.363 56.2803 12.4268C56.4717 12.4906 56.7064 12.5521 56.9844 12.6113C57.5358 12.7207 58.0166 12.8665 58.4268 13.0488C58.8415 13.2266 59.165 13.4635 59.3975 13.7598C59.6299 14.056 59.7461 14.4342 59.7461 14.8945C59.7461 15.2227 59.6755 15.5234 59.5342 15.7969C59.3929 16.0658 59.1878 16.3005 58.9189 16.501C58.6501 16.7015 58.3288 16.8587 57.9551 16.9727C57.5814 17.082 57.1598 17.1367 56.6904 17.1367C56.0114 17.1367 55.4372 17.016 54.9678 16.7744C54.4984 16.5283 54.1429 16.2184 53.9014 15.8447C53.6598 15.4665 53.5391 15.0745 53.5391 14.6689H55.2686C55.2822 14.9561 55.3597 15.1862 55.501 15.3594C55.6423 15.5326 55.82 15.6579 56.0342 15.7354C56.2529 15.8083 56.4831 15.8447 56.7246 15.8447C56.998 15.8447 57.2282 15.8083 57.415 15.7354C57.6019 15.6579 57.7432 15.5553 57.8389 15.4277C57.9346 15.2956 57.9824 15.1452 57.9824 14.9766ZM61.1611 16.1182C61.1611 15.8447 61.2546 15.6146 61.4414 15.4277C61.6283 15.2409 61.8812 15.1475 62.2002 15.1475C62.5192 15.1475 62.7721 15.2409 62.959 15.4277C63.1458 15.6146 63.2393 15.8447 63.2393 16.1182C63.2393 16.387 63.1458 16.6149 62.959 16.8018C62.7721 16.984 62.5192 17.0752 62.2002 17.0752C61.8812 17.0752 61.6283 16.984 61.4414 16.8018C61.2546 16.6149 61.1611 16.387 61.1611 16.1182ZM61.168 10.3828C61.168 10.1094 61.2614 9.87923 61.4482 9.69238C61.6351 9.50553 61.888 9.41211 62.207 9.41211C62.526 9.41211 62.779 9.50553 62.9658 9.69238C63.1527 9.87923 63.2461 10.1094 63.2461 10.3828C63.2461 10.6517 63.1527 10.8796 62.9658 11.0664C62.779 11.2487 62.526 11.3398 62.207 11.3398C61.888 11.3398 61.6351 11.2487 61.4482 11.0664C61.2614 10.8796 61.168 10.6517 61.168 10.3828ZM69.2139 7.04688L65.4541 17.8545H64.0801L67.8398 7.04688H69.2139ZM72.9326 7.04688L69.1729 17.8545H67.7988L71.5586 7.04688H72.9326ZM73.9785 6.5H75.79V15.3662L75.6123 17H73.9785V6.5ZM80.5479 13.2266V13.3701C80.5479 13.9215 80.4863 14.4274 80.3633 14.8877C80.2448 15.348 80.0648 15.7467 79.8232 16.084C79.5817 16.4167 79.2809 16.6764 78.9209 16.8633C78.5654 17.0456 78.1484 17.1367 77.6699 17.1367C77.2142 17.1367 76.8177 17.0479 76.4805 16.8701C76.1478 16.6924 75.8675 16.4417 75.6396 16.1182C75.4118 15.79 75.2295 15.4049 75.0928 14.9629C74.9561 14.5163 74.8535 14.0286 74.7852 13.5V13.1104C74.8535 12.5771 74.9561 12.0895 75.0928 11.6475C75.2295 11.2054 75.4118 10.8203 75.6396 10.4922C75.8675 10.1641 76.1478 9.91113 76.4805 9.7334C76.8132 9.55566 77.2051 9.4668 77.6562 9.4668C78.1393 9.4668 78.5609 9.56022 78.9209 9.74707C79.2855 9.92936 79.5863 10.1891 79.8232 10.5264C80.0648 10.859 80.2448 11.2555 80.3633 11.7158C80.4863 12.1715 80.5479 12.6751 80.5479 13.2266ZM78.7363 13.3701V13.2266C78.7363 12.9121 78.7113 12.6159 78.6611 12.3379C78.611 12.0553 78.529 11.807 78.415 11.5928C78.3011 11.3786 78.1462 11.21 77.9502 11.0869C77.7542 10.9639 77.5081 10.9023 77.2119 10.9023C76.9294 10.9023 76.6878 10.9502 76.4873 11.0459C76.2913 11.1416 76.1273 11.2738 75.9951 11.4424C75.8675 11.611 75.7673 11.8092 75.6943 12.0371C75.626 12.265 75.5804 12.5111 75.5576 12.7754V13.8418C75.5895 14.1927 75.6647 14.5094 75.7832 14.792C75.9017 15.07 76.0771 15.291 76.3096 15.4551C76.5465 15.6191 76.8519 15.7012 77.2256 15.7012C77.5173 15.7012 77.7611 15.6442 77.957 15.5303C78.153 15.4118 78.3079 15.2477 78.4219 15.0381C78.5358 14.8239 78.6156 14.5755 78.6611 14.293C78.7113 14.0104 78.7363 13.7028 78.7363 13.3701ZM85.1826 17.1367C84.6221 17.1367 84.1185 17.0456 83.6719 16.8633C83.2253 16.681 82.8447 16.4281 82.5303 16.1045C82.2204 15.7764 81.9811 15.3958 81.8125 14.9629C81.6484 14.5254 81.5664 14.056 81.5664 13.5547V13.2812C81.5664 12.7116 81.6484 12.1943 81.8125 11.7295C81.9766 11.2601 82.209 10.8568 82.5098 10.5195C82.8105 10.1823 83.1706 9.92253 83.5898 9.74023C84.0091 9.55794 84.4717 9.4668 84.9775 9.4668C85.5016 9.4668 85.9642 9.55566 86.3652 9.7334C86.7663 9.90658 87.1012 10.1527 87.3701 10.4717C87.639 10.7907 87.8418 11.1735 87.9785 11.6201C88.1152 12.0622 88.1836 12.5521 88.1836 13.0898V13.8486H82.3867V12.6045H86.4062V12.4678C86.3971 12.1807 86.3424 11.9186 86.2422 11.6816C86.1419 11.4401 85.987 11.2487 85.7773 11.1074C85.5677 10.9616 85.2965 10.8887 84.9639 10.8887C84.695 10.8887 84.4603 10.9479 84.2598 11.0664C84.0638 11.1803 83.8997 11.3444 83.7676 11.5586C83.64 11.7682 83.5443 12.0189 83.4805 12.3105C83.4167 12.6022 83.3848 12.9258 83.3848 13.2812V13.5547C83.3848 13.8646 83.4258 14.1517 83.5078 14.416C83.5944 14.6803 83.7197 14.9105 83.8838 15.1064C84.0524 15.2979 84.2529 15.4482 84.4854 15.5576C84.7223 15.6624 84.9912 15.7148 85.292 15.7148C85.6702 15.7148 86.012 15.6419 86.3174 15.4961C86.6273 15.3457 86.8962 15.1247 87.124 14.833L88.0332 15.7764C87.8783 16.0042 87.6686 16.223 87.4043 16.4326C87.1445 16.6423 86.8301 16.8132 86.4609 16.9453C86.0918 17.0729 85.6657 17.1367 85.1826 17.1367ZM91.1641 11.1826V17H89.3594V9.60352H91.0547L91.1641 11.1826ZM90.877 13.0352H90.3438C90.3483 12.4974 90.4212 12.0098 90.5625 11.5723C90.7038 11.1348 90.902 10.7588 91.1572 10.4443C91.417 10.1299 91.7246 9.88835 92.0801 9.71973C92.4355 9.55111 92.832 9.4668 93.2695 9.4668C93.625 9.4668 93.9463 9.51693 94.2334 9.61719C94.5205 9.71745 94.7666 9.87695 94.9717 10.0957C95.1813 10.3145 95.3408 10.6016 95.4502 10.957C95.5641 11.3079 95.6211 11.7409 95.6211 12.2559V17H93.8027V12.2422C93.8027 11.9049 93.7526 11.6383 93.6523 11.4424C93.5566 11.2464 93.4154 11.1074 93.2285 11.0254C93.0462 10.9434 92.8206 10.9023 92.5518 10.9023C92.2738 10.9023 92.0299 10.9593 91.8203 11.0732C91.6152 11.1826 91.4421 11.3353 91.3008 11.5312C91.1641 11.7272 91.0592 11.9528 90.9863 12.208C90.9134 12.4632 90.877 12.7389 90.877 13.0352ZM98.9844 6.5V17H97.1729V6.5H98.9844ZM98.6973 13.0352H98.1641C98.1641 12.5202 98.2324 12.0462 98.3691 11.6133C98.5059 11.1803 98.6995 10.8044 98.9502 10.4854C99.2008 10.1618 99.4993 9.91113 99.8457 9.7334C100.197 9.55566 100.584 9.4668 101.008 9.4668C101.372 9.4668 101.703 9.51921 101.999 9.62402C102.3 9.72428 102.557 9.88607 102.771 10.1094C102.986 10.3327 103.15 10.6243 103.264 10.9844C103.382 11.3398 103.441 11.7728 103.441 12.2832V17H101.623V12.2695C101.623 11.9277 101.573 11.6589 101.473 11.4629C101.372 11.2624 101.229 11.1188 101.042 11.0322C100.86 10.9456 100.634 10.9023 100.365 10.9023C100.074 10.9023 99.8229 10.9593 99.6133 11.0732C99.4036 11.1826 99.2305 11.3353 99.0938 11.5312C98.9616 11.7272 98.8613 11.9528 98.793 12.208C98.7292 12.4632 98.6973 12.7389 98.6973 13.0352ZM107.488 15.6328L109.211 9.60352H111.098L108.562 17H107.413L107.488 15.6328ZM106.23 9.60352L107.974 15.6465L108.035 17H106.88L104.337 9.60352H106.23ZM113.962 9.60352V17H112.15V9.60352H113.962ZM112.027 7.66895C112.027 7.40007 112.118 7.17676 112.301 6.99902C112.488 6.82129 112.738 6.73242 113.053 6.73242C113.367 6.73242 113.616 6.82129 113.798 6.99902C113.985 7.17676 114.078 7.40007 114.078 7.66895C114.078 7.93327 113.985 8.1543 113.798 8.33203C113.616 8.50977 113.367 8.59863 113.053 8.59863C112.738 8.59863 112.488 8.50977 112.301 8.33203C112.118 8.1543 112.027 7.93327 112.027 7.66895ZM119.007 17.1367C118.446 17.1367 117.943 17.0456 117.496 16.8633C117.049 16.681 116.669 16.4281 116.354 16.1045C116.045 15.7764 115.805 15.3958 115.637 14.9629C115.473 14.5254 115.391 14.056 115.391 13.5547V13.2812C115.391 12.7116 115.473 12.1943 115.637 11.7295C115.801 11.2601 116.033 10.8568 116.334 10.5195C116.635 10.1823 116.995 9.92253 117.414 9.74023C117.833 9.55794 118.296 9.4668 118.802 9.4668C119.326 9.4668 119.788 9.55566 120.189 9.7334C120.59 9.90658 120.925 10.1527 121.194 10.4717C121.463 10.7907 121.666 11.1735 121.803 11.6201C121.939 12.0622 122.008 12.5521 122.008 13.0898V13.8486H116.211V12.6045H120.23V12.4678C120.221 12.1807 120.167 11.9186 120.066 11.6816C119.966 11.4401 119.811 11.2487 119.602 11.1074C119.392 10.9616 119.121 10.8887 118.788 10.8887C118.519 10.8887 118.285 10.9479 118.084 11.0664C117.888 11.1803 117.724 11.3444 117.592 11.5586C117.464 11.7682 117.368 12.0189 117.305 12.3105C117.241 12.6022 117.209 12.9258 117.209 13.2812V13.5547C117.209 13.8646 117.25 14.1517 117.332 14.416C117.419 14.6803 117.544 14.9105 117.708 15.1064C117.877 15.2979 118.077 15.4482 118.31 15.5576C118.547 15.6624 118.815 15.7148 119.116 15.7148C119.494 15.7148 119.836 15.6419 120.142 15.4961C120.451 15.3457 120.72 15.1247 120.948 14.833L121.857 15.7764C121.702 16.0042 121.493 16.223 121.229 16.4326C120.969 16.6423 120.654 16.8132 120.285 16.9453C119.916 17.0729 119.49 17.1367 119.007 17.1367ZM124.988 11.1826V17H123.184V9.60352H124.879L124.988 11.1826ZM124.701 13.0352H124.168C124.173 12.4974 124.245 12.0098 124.387 11.5723C124.528 11.1348 124.726 10.7588 124.981 10.4443C125.241 10.1299 125.549 9.88835 125.904 9.71973C126.26 9.55111 126.656 9.4668 127.094 9.4668C127.449 9.4668 127.771 9.51693 128.058 9.61719C128.345 9.71745 128.591 9.87695 128.796 10.0957C129.006 10.3145 129.165 10.6016 129.274 10.957C129.388 11.3079 129.445 11.7409 129.445 12.2559V17H127.627V12.2422C127.627 11.9049 127.577 11.6383 127.477 11.4424C127.381 11.2464 127.24 11.1074 127.053 11.0254C126.87 10.9434 126.645 10.9023 126.376 10.9023C126.098 10.9023 125.854 10.9593 125.645 11.0732C125.439 11.1826 125.266 11.3353 125.125 11.5312C124.988 11.7272 124.883 11.9528 124.811 12.208C124.738 12.4632 124.701 12.7389 124.701 13.0352ZM132.843 11.0254V19.8438H131.031V9.60352H132.706L132.843 11.0254ZM137.594 13.2266V13.3701C137.594 13.9079 137.53 14.4069 137.402 14.8672C137.279 15.3229 137.097 15.7217 136.855 16.0635C136.614 16.4007 136.313 16.665 135.953 16.8564C135.598 17.0433 135.188 17.1367 134.723 17.1367C134.267 17.1367 133.87 17.0501 133.533 16.877C133.196 16.6992 132.911 16.4486 132.679 16.125C132.446 15.8014 132.259 15.4255 132.118 14.9971C131.981 14.5641 131.879 14.0924 131.811 13.582V13.124C131.879 12.5817 131.981 12.0895 132.118 11.6475C132.259 11.2008 132.446 10.8158 132.679 10.4922C132.911 10.1641 133.194 9.91113 133.526 9.7334C133.864 9.55566 134.258 9.4668 134.709 9.4668C135.178 9.4668 135.591 9.55566 135.946 9.7334C136.306 9.91113 136.609 10.1663 136.855 10.499C137.102 10.8317 137.286 11.2282 137.409 11.6885C137.532 12.1488 137.594 12.6615 137.594 13.2266ZM135.782 13.3701V13.2266C135.782 12.8984 135.753 12.5954 135.693 12.3174C135.634 12.0348 135.543 11.7887 135.42 11.5791C135.297 11.3649 135.137 11.1986 134.941 11.0801C134.745 10.9616 134.508 10.9023 134.23 10.9023C133.952 10.9023 133.713 10.9479 133.513 11.0391C133.312 11.1302 133.148 11.2601 133.021 11.4287C132.893 11.5973 132.793 11.7979 132.72 12.0303C132.651 12.2581 132.606 12.5111 132.583 12.7891V13.9238C132.624 14.2611 132.704 14.5641 132.822 14.833C132.941 15.1019 133.114 15.3161 133.342 15.4756C133.574 15.6351 133.875 15.7148 134.244 15.7148C134.522 15.7148 134.759 15.6533 134.955 15.5303C135.151 15.4072 135.311 15.2386 135.434 15.0244C135.557 14.8057 135.646 14.555 135.7 14.2725C135.755 13.9899 135.782 13.6891 135.782 13.3701ZM140.684 6.5V17H138.872V6.5H140.684ZM140.396 13.0352H139.863C139.863 12.5202 139.932 12.0462 140.068 11.6133C140.205 11.1803 140.399 10.8044 140.649 10.4854C140.9 10.1618 141.199 9.91113 141.545 9.7334C141.896 9.55566 142.283 9.4668 142.707 9.4668C143.072 9.4668 143.402 9.51921 143.698 9.62402C143.999 9.72428 144.257 9.88607 144.471 10.1094C144.685 10.3327 144.849 10.6243 144.963 10.9844C145.081 11.3398 145.141 11.7728 145.141 12.2832V17H143.322V12.2695C143.322 11.9277 143.272 11.6589 143.172 11.4629C143.072 11.2624 142.928 11.1188 142.741 11.0322C142.559 10.9456 142.333 10.9023 142.064 10.9023C141.773 10.9023 141.522 10.9593 141.312 11.0732C141.103 11.1826 140.93 11.3353 140.793 11.5312C140.661 11.7272 140.561 11.9528 140.492 12.208C140.428 12.4632 140.396 12.7389 140.396 13.0352ZM151.136 15.2432V9.60352H152.954V17H151.245L151.136 15.2432ZM151.368 13.7119L151.929 13.6982C151.929 14.195 151.874 14.653 151.765 15.0723C151.655 15.4915 151.484 15.8561 151.252 16.166C151.024 16.4714 150.735 16.7106 150.384 16.8838C150.033 17.0524 149.618 17.1367 149.14 17.1367C148.775 17.1367 148.442 17.0866 148.142 16.9863C147.841 16.8815 147.581 16.7197 147.362 16.501C147.148 16.2777 146.982 15.9928 146.863 15.6465C146.745 15.2956 146.686 14.874 146.686 14.3818V9.60352H148.49V14.3955C148.49 14.6416 148.518 14.8467 148.572 15.0107C148.632 15.1748 148.711 15.3092 148.812 15.4141C148.916 15.5143 149.037 15.5872 149.174 15.6328C149.315 15.6738 149.465 15.6943 149.625 15.6943C150.062 15.6943 150.407 15.6077 150.657 15.4346C150.912 15.2568 151.095 15.0199 151.204 14.7236C151.313 14.4229 151.368 14.0856 151.368 13.7119ZM154.232 13.377V13.2334C154.232 12.6911 154.31 12.1921 154.465 11.7363C154.62 11.276 154.845 10.8773 155.142 10.54C155.438 10.2028 155.8 9.94076 156.229 9.75391C156.657 9.5625 157.145 9.4668 157.691 9.4668C158.247 9.4668 158.74 9.5625 159.168 9.75391C159.601 9.94076 159.965 10.2028 160.262 10.54C160.558 10.8773 160.784 11.276 160.938 11.7363C161.093 12.1921 161.171 12.6911 161.171 13.2334V13.377C161.171 13.9147 161.093 14.4137 160.938 14.874C160.784 15.3298 160.558 15.7285 160.262 16.0703C159.965 16.4076 159.603 16.6696 159.175 16.8564C158.746 17.0433 158.257 17.1367 157.705 17.1367C157.158 17.1367 156.668 17.0433 156.235 16.8564C155.802 16.6696 155.438 16.4076 155.142 16.0703C154.845 15.7285 154.62 15.3298 154.465 14.874C154.31 14.4137 154.232 13.9147 154.232 13.377ZM156.037 13.2334V13.377C156.037 13.7005 156.069 14.0036 156.133 14.2861C156.197 14.5687 156.295 14.8171 156.427 15.0312C156.559 15.2454 156.73 15.4141 156.939 15.5371C157.154 15.6556 157.409 15.7148 157.705 15.7148C157.997 15.7148 158.247 15.6556 158.457 15.5371C158.667 15.4141 158.838 15.2454 158.97 15.0312C159.106 14.8171 159.207 14.5687 159.271 14.2861C159.334 14.0036 159.366 13.7005 159.366 13.377V13.2334C159.366 12.9144 159.334 12.6159 159.271 12.3379C159.207 12.0553 159.106 11.807 158.97 11.5928C158.838 11.374 158.664 11.2031 158.45 11.0801C158.241 10.9525 157.988 10.8887 157.691 10.8887C157.4 10.8887 157.149 10.9525 156.939 11.0801C156.73 11.2031 156.559 11.374 156.427 11.5928C156.295 11.807 156.197 12.0553 156.133 12.3379C156.069 12.6159 156.037 12.9144 156.037 13.2334ZM164.254 11.1826V17H162.449V9.60352H164.145L164.254 11.1826ZM163.967 13.0352H163.434C163.438 12.4974 163.511 12.0098 163.652 11.5723C163.794 11.1348 163.992 10.7588 164.247 10.4443C164.507 10.1299 164.814 9.88835 165.17 9.71973C165.525 9.55111 165.922 9.4668 166.359 9.4668C166.715 9.4668 167.036 9.51693 167.323 9.61719C167.61 9.71745 167.856 9.87695 168.062 10.0957C168.271 10.3145 168.431 10.6016 168.54 10.957C168.654 11.3079 168.711 11.7409 168.711 12.2559V17H166.893V12.2422C166.893 11.9049 166.842 11.6383 166.742 11.4424C166.646 11.2464 166.505 11.1074 166.318 11.0254C166.136 10.9434 165.91 10.9023 165.642 10.9023C165.364 10.9023 165.12 10.9593 164.91 11.0732C164.705 11.1826 164.532 11.3353 164.391 11.5312C164.254 11.7272 164.149 11.9528 164.076 12.208C164.003 12.4632 163.967 12.7389 163.967 13.0352ZM175.007 9.60352H176.647V16.7744C176.647 17.4443 176.502 18.0117 176.21 18.4766C175.923 18.946 175.52 19.3014 175 19.543C174.48 19.7891 173.877 19.9121 173.188 19.9121C172.892 19.9121 172.571 19.8711 172.225 19.7891C171.883 19.707 171.552 19.5771 171.233 19.3994C170.919 19.2262 170.657 19.0007 170.447 18.7227L171.261 17.6562C171.507 17.9434 171.785 18.1598 172.095 18.3057C172.405 18.4561 172.74 18.5312 173.1 18.5312C173.464 18.5312 173.774 18.4629 174.029 18.3262C174.289 18.194 174.487 17.998 174.624 17.7383C174.765 17.4831 174.836 17.1686 174.836 16.7949V11.292L175.007 9.60352ZM170.01 13.3906V13.2471C170.01 12.682 170.078 12.1693 170.215 11.709C170.352 11.2441 170.548 10.8454 170.803 10.5127C171.062 10.18 171.375 9.92253 171.739 9.74023C172.108 9.55794 172.523 9.4668 172.983 9.4668C173.471 9.4668 173.881 9.55566 174.214 9.7334C174.551 9.91113 174.829 10.1641 175.048 10.4922C175.271 10.8203 175.444 11.21 175.567 11.6611C175.695 12.1077 175.793 12.5999 175.861 13.1377V13.5273C175.798 14.0514 175.695 14.5322 175.554 14.9697C175.417 15.4072 175.235 15.79 175.007 16.1182C174.779 16.4417 174.496 16.6924 174.159 16.8701C173.822 17.0479 173.425 17.1367 172.97 17.1367C172.514 17.1367 172.104 17.0433 171.739 16.8564C171.375 16.6696 171.062 16.4076 170.803 16.0703C170.548 15.7331 170.352 15.3366 170.215 14.8809C170.078 14.4251 170.01 13.9284 170.01 13.3906ZM171.814 13.2471V13.3906C171.814 13.7096 171.846 14.0081 171.91 14.2861C171.974 14.5641 172.072 14.8102 172.204 15.0244C172.336 15.234 172.503 15.3981 172.703 15.5166C172.904 15.6351 173.143 15.6943 173.421 15.6943C173.795 15.6943 174.1 15.6169 174.337 15.4619C174.578 15.3024 174.761 15.0859 174.884 14.8125C175.011 14.5345 175.093 14.2223 175.13 13.876V12.8027C175.107 12.5293 175.057 12.2764 174.979 12.0439C174.907 11.8115 174.804 11.611 174.672 11.4424C174.54 11.2738 174.371 11.1416 174.166 11.0459C173.961 10.9502 173.717 10.9023 173.435 10.9023C173.161 10.9023 172.922 10.9639 172.717 11.0869C172.512 11.2054 172.343 11.3717 172.211 11.5859C172.079 11.8001 171.979 12.0485 171.91 12.3311C171.846 12.6136 171.814 12.9189 171.814 13.2471ZM186.197 15.4277V6.5H188.016V17H186.375L186.197 15.4277ZM181.446 13.3906V13.2471C181.446 12.682 181.51 12.1693 181.638 11.709C181.77 11.2441 181.961 10.8454 182.212 10.5127C182.463 10.18 182.766 9.92253 183.121 9.74023C183.481 9.55794 183.889 9.4668 184.345 9.4668C184.787 9.4668 185.172 9.55566 185.5 9.7334C185.833 9.91113 186.115 10.1641 186.348 10.4922C186.585 10.8203 186.774 11.21 186.915 11.6611C187.056 12.1077 187.159 12.5999 187.223 13.1377V13.5273C187.159 14.0514 187.056 14.5322 186.915 14.9697C186.774 15.4072 186.585 15.79 186.348 16.1182C186.115 16.4417 185.833 16.6924 185.5 16.8701C185.167 17.0479 184.778 17.1367 184.331 17.1367C183.88 17.1367 183.474 17.0433 183.114 16.8564C182.759 16.6696 182.456 16.4076 182.205 16.0703C181.959 15.7331 181.77 15.3366 181.638 14.8809C181.51 14.4251 181.446 13.9284 181.446 13.3906ZM183.258 13.2471V13.3906C183.258 13.7096 183.285 14.0081 183.34 14.2861C183.395 14.5641 183.483 14.8102 183.606 15.0244C183.729 15.234 183.887 15.3981 184.078 15.5166C184.274 15.6351 184.511 15.6943 184.789 15.6943C185.145 15.6943 185.436 15.6169 185.664 15.4619C185.896 15.3024 186.076 15.0859 186.204 14.8125C186.332 14.5345 186.414 14.2223 186.45 13.876V12.8027C186.432 12.5293 186.384 12.2764 186.307 12.0439C186.234 11.8115 186.129 11.611 185.992 11.4424C185.86 11.2738 185.696 11.1416 185.5 11.0459C185.304 10.9502 185.072 10.9023 184.803 10.9023C184.525 10.9023 184.288 10.9639 184.092 11.0869C183.896 11.2054 183.736 11.3717 183.613 11.5859C183.49 11.8001 183.399 12.0485 183.34 12.3311C183.285 12.6136 183.258 12.9189 183.258 13.2471ZM189.328 13.377V13.2334C189.328 12.6911 189.406 12.1921 189.561 11.7363C189.715 11.276 189.941 10.8773 190.237 10.54C190.534 10.2028 190.896 9.94076 191.324 9.75391C191.753 9.5625 192.24 9.4668 192.787 9.4668C193.343 9.4668 193.835 9.5625 194.264 9.75391C194.697 9.94076 195.061 10.2028 195.357 10.54C195.654 10.8773 195.879 11.276 196.034 11.7363C196.189 12.1921 196.267 12.6911 196.267 13.2334V13.377C196.267 13.9147 196.189 14.4137 196.034 14.874C195.879 15.3298 195.654 15.7285 195.357 16.0703C195.061 16.4076 194.699 16.6696 194.271 16.8564C193.842 17.0433 193.352 17.1367 192.801 17.1367C192.254 17.1367 191.764 17.0433 191.331 16.8564C190.898 16.6696 190.534 16.4076 190.237 16.0703C189.941 15.7285 189.715 15.3298 189.561 14.874C189.406 14.4137 189.328 13.9147 189.328 13.377ZM191.133 13.2334V13.377C191.133 13.7005 191.165 14.0036 191.229 14.2861C191.292 14.5687 191.39 14.8171 191.522 15.0312C191.655 15.2454 191.826 15.4141 192.035 15.5371C192.249 15.6556 192.505 15.7148 192.801 15.7148C193.092 15.7148 193.343 15.6556 193.553 15.5371C193.762 15.4141 193.933 15.2454 194.065 15.0312C194.202 14.8171 194.302 14.5687 194.366 14.2861C194.43 14.0036 194.462 13.7005 194.462 13.377V13.2334C194.462 12.9144 194.43 12.6159 194.366 12.3379C194.302 12.0553 194.202 11.807 194.065 11.5928C193.933 11.374 193.76 11.2031 193.546 11.0801C193.336 10.9525 193.083 10.8887 192.787 10.8887C192.495 10.8887 192.245 10.9525 192.035 11.0801C191.826 11.2031 191.655 11.374 191.522 11.5928C191.39 11.807 191.292 12.0553 191.229 12.3379C191.165 12.6159 191.133 12.9144 191.133 13.2334ZM199.35 11.1826V17H197.545V9.60352H199.24L199.35 11.1826ZM199.062 13.0352H198.529C198.534 12.4974 198.607 12.0098 198.748 11.5723C198.889 11.1348 199.088 10.7588 199.343 10.4443C199.603 10.1299 199.91 9.88835 200.266 9.71973C200.621 9.55111 201.018 9.4668 201.455 9.4668C201.811 9.4668 202.132 9.51693 202.419 9.61719C202.706 9.71745 202.952 9.87695 203.157 10.0957C203.367 10.3145 203.526 10.6016 203.636 10.957C203.75 11.3079 203.807 11.7409 203.807 12.2559V17H201.988V12.2422C201.988 11.9049 201.938 11.6383 201.838 11.4424C201.742 11.2464 201.601 11.1074 201.414 11.0254C201.232 10.9434 201.006 10.9023 200.737 10.9023C200.459 10.9023 200.215 10.9593 200.006 11.0732C199.801 11.1826 199.628 11.3353 199.486 11.5312C199.35 11.7272 199.245 11.9528 199.172 12.208C199.099 12.4632 199.062 12.7389 199.062 13.0352ZM210.103 9.60352H211.743V16.7744C211.743 17.4443 211.597 18.0117 211.306 18.4766C211.019 18.946 210.615 19.3014 210.096 19.543C209.576 19.7891 208.972 19.9121 208.284 19.9121C207.988 19.9121 207.667 19.8711 207.32 19.7891C206.979 19.707 206.648 19.5771 206.329 19.3994C206.015 19.2262 205.753 19.0007 205.543 18.7227L206.356 17.6562C206.603 17.9434 206.881 18.1598 207.19 18.3057C207.5 18.4561 207.835 18.5312 208.195 18.5312C208.56 18.5312 208.87 18.4629 209.125 18.3262C209.385 18.194 209.583 17.998 209.72 17.7383C209.861 17.4831 209.932 17.1686 209.932 16.7949V11.292L210.103 9.60352ZM205.105 13.3906V13.2471C205.105 12.682 205.174 12.1693 205.311 11.709C205.447 11.2441 205.643 10.8454 205.898 10.5127C206.158 10.18 206.47 9.92253 206.835 9.74023C207.204 9.55794 207.619 9.4668 208.079 9.4668C208.567 9.4668 208.977 9.55566 209.31 9.7334C209.647 9.91113 209.925 10.1641 210.144 10.4922C210.367 10.8203 210.54 11.21 210.663 11.6611C210.791 12.1077 210.889 12.5999 210.957 13.1377V13.5273C210.893 14.0514 210.791 14.5322 210.649 14.9697C210.513 15.4072 210.33 15.79 210.103 16.1182C209.875 16.4417 209.592 16.6924 209.255 16.8701C208.918 17.0479 208.521 17.1367 208.065 17.1367C207.61 17.1367 207.2 17.0433 206.835 16.8564C206.47 16.6696 206.158 16.4076 205.898 16.0703C205.643 15.7331 205.447 15.3366 205.311 14.8809C205.174 14.4251 205.105 13.9284 205.105 13.3906ZM206.91 13.2471V13.3906C206.91 13.7096 206.942 14.0081 207.006 14.2861C207.07 14.5641 207.168 14.8102 207.3 15.0244C207.432 15.234 207.598 15.3981 207.799 15.5166C207.999 15.6351 208.239 15.6943 208.517 15.6943C208.89 15.6943 209.196 15.6169 209.433 15.4619C209.674 15.3024 209.856 15.0859 209.979 14.8125C210.107 14.5345 210.189 14.2223 210.226 13.876V12.8027C210.203 12.5293 210.153 12.2764 210.075 12.0439C210.002 11.8115 209.9 11.611 209.768 11.4424C209.635 11.2738 209.467 11.1416 209.262 11.0459C209.057 10.9502 208.813 10.9023 208.53 10.9023C208.257 10.9023 208.018 10.9639 207.812 11.0869C207.607 11.2054 207.439 11.3717 207.307 11.5859C207.174 11.8001 207.074 12.0485 207.006 12.3311C206.942 12.6136 206.91 12.9189 206.91 13.2471ZM213.445 16.1182C213.445 15.8447 213.539 15.6146 213.726 15.4277C213.912 15.2409 214.165 15.1475 214.484 15.1475C214.803 15.1475 215.056 15.2409 215.243 15.4277C215.43 15.6146 215.523 15.8447 215.523 16.1182C215.523 16.387 215.43 16.6149 215.243 16.8018C215.056 16.984 214.803 17.0752 214.484 17.0752C214.165 17.0752 213.912 16.984 213.726 16.8018C213.539 16.6149 213.445 16.387 213.445 16.1182ZM219.803 15.6328L221.525 9.60352H223.412L220.876 17H219.728L219.803 15.6328ZM218.545 9.60352L220.288 15.6465L220.35 17H219.194L216.651 9.60352H218.545ZM226.133 11.1826V17H224.328V9.60352H226.023L226.133 11.1826ZM225.846 13.0352H225.312C225.317 12.4974 225.39 12.0098 225.531 11.5723C225.673 11.1348 225.871 10.7588 226.126 10.4443C226.386 10.1299 226.693 9.88835 227.049 9.71973C227.404 9.55111 227.801 9.4668 228.238 9.4668C228.594 9.4668 228.915 9.51693 229.202 9.61719C229.489 9.71745 229.735 9.87695 229.94 10.0957C230.15 10.3145 230.31 10.6016 230.419 10.957C230.533 11.3079 230.59 11.7409 230.59 12.2559V17H228.771V12.2422C228.771 11.9049 228.721 11.6383 228.621 11.4424C228.525 11.2464 228.384 11.1074 228.197 11.0254C228.015 10.9434 227.789 10.9023 227.521 10.9023C227.243 10.9023 226.999 10.9593 226.789 11.0732C226.584 11.1826 226.411 11.3353 226.27 11.5312C226.133 11.7272 226.028 11.9528 225.955 12.208C225.882 12.4632 225.846 12.7389 225.846 13.0352ZM236.462 7.04688L232.702 17.8545H231.328L235.088 7.04688H236.462Z" fill="white"/>
</svg>
