<svg width="41" height="41" viewBox="0 0 41 41" fill="none" xmlns="http://www.w3.org/2000/svg">
<path fill-rule="evenodd" clip-rule="evenodd" d="M28.3252 13.5184C29.1819 13.7491 29.8574 14.4245 30.0879 15.2812C30.5164 16.8462 30.4999 20.1082 30.4999 20.1082C30.4999 20.1082 30.4999 23.3536 30.0881 24.9187C29.8574 25.7753 29.182 26.4508 28.3252 26.6813C26.7602 27.0933 20.5 27.0933 20.5 27.0933C20.5 27.0933 14.2561 27.0933 12.6747 26.665C11.8179 26.4343 11.1425 25.7588 10.9118 24.9022C10.5 23.3536 10.5 20.0917 10.5 20.0917C10.5 20.0917 10.5 16.8462 10.9118 15.2812C11.1424 14.4246 11.8344 13.7326 12.6745 13.5021C14.2396 13.0901 20.4998 13.0901 20.4998 13.0901C20.4998 13.0901 26.7602 13.0901 28.3252 13.5184ZM23.7122 20.092L18.5063 23.0903V17.0936L23.7122 20.092Z" fill="white"/>
<rect x="1" y="0.591797" width="39" height="39" rx="19.5" stroke="white"/>
</svg>
